<?xml version="1.0" encoding="utf-8"?>
<!-- Generator: Adobe Illustrator 22.1.0, SVG Export Plug-In . SVG Version: 6.00 Build 0)  -->
<svg version="1.1" id="Layer_1" xmlns="http://www.w3.org/2000/svg" xmlns:xlink="http://www.w3.org/1999/xlink" x="0px" y="0px"
	 viewBox="0 0 68 56" style="enable-background:new 0 0 68 56;" xml:space="preserve">
<style type="text/css">
	.st0{fill:#FFFFFF;}
</style>
<g>
	<path class="st0" d="M61.7,7H6.3C4.7,7,3.5,8.3,3.5,9.9v36.3c0,1.6,1.3,2.9,2.9,2.9h55.4c1.6,0,2.9-1.3,2.9-2.9V9.9
		C64.5,8.3,63.3,7,61.7,7 M57.9,46.1H9.2V9.9h48.7V46.1z M62.6,29.4c0,0.8-0.6,1.4-1.4,1.4c-0.8,0-1.4-0.6-1.4-1.4v-2.9
		c0-0.8,0.6-1.4,1.4-1.4c0.8,0,1.4,0.6,1.4,1.4V29.4z"/>
	<path class="st0" d="M42.7,27.9v-3.5c0-0.7-1-1.1-2.3-1.4v-0.9c0-3.2-2.6-5.8-5.8-5.8c-3.2,0-5.8,2.6-5.8,5.8v0.9
		c-1.3,0.3-2.3,0.7-2.3,1.4v3.5c0,1.1,2.9,1.6,5.3,1.8c0,0,0,0.1,0,0.1c0,0.3,0,0.6,0.1,0.9c-1.1-0.1-2-0.2-2.9-0.4
		c-1.4-0.3-2.2-0.6-2.5-1.1v4c0.3,1.1,3.8,1.5,6.1,1.6l-0.1,1c-1.3-0.1-2.5-0.2-3.5-0.4c-1.4-0.3-2.2-0.6-2.5-1.1v3.8
		c0,1.8,7.8,1.9,8.1,1.9c0.3,0,8.1,0,8.1-1.9v-3.8c-0.3,0.5-1.2,0.8-2.5,1.1c-1,0.2-2.2,0.3-3.4,0.4l-0.1-1c2.3-0.1,5.7-0.5,6.1-1.6
		v-4c-0.3,0.5-1.2,0.8-2.5,1.1c-0.8,0.2-1.8,0.3-2.9,0.4c0.1-0.3,0.1-0.6,0.1-0.9c0,0,0-0.1,0-0.1C39.8,29.5,42.7,29.1,42.7,27.9
		 M31,22.1c0-2,1.6-3.6,3.7-3.6c2,0,3.6,1.6,3.6,3.6v0.6c-1.8-0.2-3.5-0.2-3.7-0.2s-1.8,0-3.7,0.2V22.1z M35.6,31.7l0.6,5.5h-0.3
		h-2.5h-0.2l0.6-5.5c-0.7-0.3-1.2-1.1-1.2-1.9c0-1.2,0.9-2.1,2.1-2.1c1.2,0,2.1,1,2.1,2.1C36.7,30.6,36.3,31.3,35.6,31.7 M42,24.4
		c-0.3,0.4-2.9,1.1-7.4,1.1c-4.5,0-7.1-0.7-7.4-1.1c0,0,0,0,0,0c0.1-0.2,0.6-0.4,1.5-0.6v0.5c0,0,0,0,0,0c0,0.1,0.5,0.2,1.1,0.2
		c0.6,0,1.1-0.1,1.1-0.2c0,0,0,0,0,0h0v-0.8c1-0.1,2.2-0.2,3.7-0.2c1.4,0,2.6,0.1,3.7,0.2v0.8h0c0,0,0,0,0,0c0,0.1,0.5,0.2,1.1,0.2
		c0.6,0,1.1-0.1,1.1-0.2c0,0,0,0,0,0v-0.5C41.3,24,41.9,24.2,42,24.4C42,24.4,42,24.4,42,24.4"/>
</g>
</svg>
