<?xml version="1.0" encoding="utf-8"?>
<!-- Generator: Adobe Illustrator 22.1.0, SVG Export Plug-In . SVG Version: 6.00 Build 0)  -->
<svg version="1.1" id="Layer_1" xmlns="http://www.w3.org/2000/svg" xmlns:xlink="http://www.w3.org/1999/xlink" x="0px" y="0px"
	 viewBox="0 0 68 56" style="enable-background:new 0 0 68 56;" xml:space="preserve">
<style type="text/css">
	.st0{fill:#FFFFFF;}
</style>
<g>
	<path class="st0" d="M61.7,7H6.3C4.7,7,3.5,8.3,3.5,9.9v36.3c0,1.6,1.3,2.9,2.9,2.9h55.4c1.6,0,2.9-1.3,2.9-2.9V9.9
		C64.5,8.3,63.3,7,61.7,7 M57.9,46.1H9.2V9.9h48.7V46.1z M62.6,29.4c0,0.8-0.6,1.4-1.4,1.4c-0.8,0-1.4-0.6-1.4-1.4v-2.9
		c0-0.8,0.6-1.4,1.4-1.4c0.8,0,1.4,0.6,1.4,1.4V29.4z"/>
	<path class="st0" d="M21.6,25.5V36H25V25.5l5.3,5.3v-4.9l-5.8-5.8c-0.3-0.3-0.8-0.5-1.2-0.5c-0.5,0-0.9,0.2-1.2,0.5l-5.8,5.8v4.9
		L21.6,25.5z"/>
	<path class="st0" d="M43.6,30.1V19.6h-3.4v10.5l-5.3-5.3v4.9l5.8,5.8c0.3,0.3,0.8,0.5,1.2,0.5s0.9-0.2,1.2-0.5l5.8-5.8v-4.9
		L43.6,30.1z"/>
</g>
</svg>
