<?xml version="1.0" encoding="utf-8"?>
<!-- Generator: Adobe Illustrator 22.0.1, SVG Export Plug-In . SVG Version: 6.00 Build 0)  -->
<svg version="1.1" id="Layer_1" xmlns="http://www.w3.org/2000/svg" xmlns:xlink="http://www.w3.org/1999/xlink" x="0px" y="0px"
	 viewBox="0 0 61.1 42" style="enable-background:new 0 0 61.1 42;" xml:space="preserve">
<style type="text/css">
	.st0{fill:#FFFFFF;}
</style>
<g>
	<path class="st0" d="M58.2,0H2.9C1.3,0,0,1.3,0,2.9v36.3C0,40.7,1.3,42,2.9,42h55.4c1.6,0,2.9-1.3,2.9-2.9V2.9
		C61.1,1.3,59.8,0,58.2,0 M54.4,39.1H5.7V2.9h48.7V39.1z M59.2,22.4c0,0.8-0.6,1.4-1.4,1.4c-0.8,0-1.4-0.6-1.4-1.4v-2.9
		c0-0.8,0.6-1.4,1.4-1.4c0.8,0,1.4,0.6,1.4,1.4V22.4z"/>
	<polygon class="st0" points="42.1,30.1 42.1,25.9 39.3,25.9 39.3,22.9 41,22.9 41,18.6 39.3,18.6 39.3,14.3 31,14.3 31,11.3 
		32.7,11.3 32.7,7 28.4,7 28.4,11.3 30.1,11.3 30.1,14.3 21.8,14.3 21.8,18.6 20.1,18.6 20.1,22.9 21.8,22.9 21.8,25.9 19,25.9 
		19,30.1 17.3,30.1 17.3,34.4 21.6,34.4 21.6,30.1 19.9,30.1 19.9,26.7 24.6,26.7 24.6,30.1 22.9,30.1 22.9,34.4 27.1,34.4 
		27.1,30.1 25.4,30.1 25.4,25.9 22.6,25.9 22.6,22.9 24.4,22.9 24.4,18.6 22.6,18.6 22.6,15.2 30.1,15.2 30.1,18.6 28.4,18.6 
		28.4,22.9 30.1,22.9 30.1,30.1 28.4,30.1 28.4,34.4 32.7,34.4 32.7,30.1 31,30.1 31,22.9 32.7,22.9 32.7,18.6 31,18.6 31,15.2 
		38.5,15.2 38.5,18.6 36.8,18.6 36.8,22.9 38.5,22.9 38.5,25.9 35.7,25.9 35.7,30.1 34,30.1 34,34.4 38.3,34.4 38.3,30.1 36.6,30.1 
		36.6,26.7 41.3,26.7 41.3,30.1 39.5,30.1 39.5,34.4 43.8,34.4 43.8,30.1 	"/>
</g>
</svg>
