<?xml version="1.0" encoding="utf-8"?>
<!-- Generator: Adobe Illustrator 22.0.1, SVG Export Plug-In . SVG Version: 6.00 Build 0)  -->
<svg version="1.1" id="Layer_1" xmlns="http://www.w3.org/2000/svg" xmlns:xlink="http://www.w3.org/1999/xlink" x="0px" y="0px"
	 viewBox="0 0 62 61.9" style="enable-background:new 0 0 62 61.9;" xml:space="preserve">
<style type="text/css">
	.st0{fill:#FFFFFF;}
</style>
<g>
	<g>
		<path class="st0" d="M43.6,0L31,6.9v10.5H15.5v1.9h29.1v25.2H10.7V25.1H6.8v19.4c0,1.1,0.9,1.9,1.9,1.9h38.7
			c1.1,0,1.9-0.9,1.9-1.9V19.3c0-1.1-0.9-1.9-1.9-1.9h-3.9V2.5l16.6,5.9v49.2l-16.5,1.8v-11H31v11.2l12.6,2.3L62,59.6V6.9L43.6,0z
			 M46,31c0-0.5,0.4-1,1-1c0.5,0,1,0.4,1,1v1.9c0,0.5-0.4,1-1,1c-0.5,0-1-0.4-1-1V31z"/>
		<path class="st0" d="M13.6,21.6v-6.5c0-0.9-0.7-1.6-1.6-1.6H5.5c-0.9,0-1.6,0.7-1.6,1.6v6.5c0,0.9,0.7,1.6,1.6,1.6H12
			C12.8,23.2,13.6,22.5,13.6,21.6z"/>
		<path class="st0" d="M4,26.1H0.8c-0.4,0-0.8,0.4-0.8,0.8v3.2c0,0.4,0.4,0.8,0.8,0.8H4c0.4,0,0.8-0.4,0.8-0.8v-3.2
			C4.8,26.5,4.5,26.1,4,26.1z"/>
		<path class="st0" d="M2.9,8.2v1.9c0,0.3,0.2,0.5,0.5,0.5h1.9c0.3,0,0.5-0.2,0.5-0.5V8.2c0-0.3-0.2-0.5-0.5-0.5H3.4
			C3.1,7.7,2.9,7.9,2.9,8.2z"/>
		<path class="st0" d="M0.6,3.8h2.6c0.4,0,0.6-0.3,0.6-0.6V0.6C3.8,0.2,3.5,0,3.2,0H0.6C0.2,0,0,0.3,0,0.6v2.6
			C0,3.5,0.3,3.8,0.6,3.8z"/>
		<path class="st0" d="M11.6,7.7h3.9c0.5,0,1-0.4,1-1V2.9c0-0.5-0.4-1-1-1h-3.9c-0.5,0-1,0.4-1,1v3.9C10.7,7.3,11.1,7.7,11.6,7.7z"
			/>
		<path class="st0" d="M19.9,13.5h1.9c0.3,0,0.5-0.2,0.5-0.5v-1.9c0-0.3-0.2-0.5-0.5-0.5h-1.9c-0.3,0-0.5,0.2-0.5,0.5V13
			C19.4,13.3,19.6,13.5,19.9,13.5z"/>
		<polygon class="st0" points="58.8,34.7 51.3,33.8 51.3,40 58.8,40.5 		"/>
		<path class="st0" d="M58.8,20.8L51.3,19c0,0.1,0,0.2,0,0.4v0.9l7.5,1.7V20.8z"/>
		<polygon class="st0" points="45.8,50 58.8,49.8 58.8,48.6 45.8,48.6 		"/>
		<polygon class="st0" points="58.8,11.5 45.8,7.3 45.8,8.7 58.8,12.7 		"/>
		<polygon class="st0" points="45.8,13.8 49.5,14.8 49.5,13.5 45.8,12.5 		"/>
		<polygon class="st0" points="45.8,55.2 58.8,54.4 58.8,53.2 45.8,53.8 		"/>
		<polygon class="st0" points="58.8,16.2 55.7,15.3 55.7,16.5 58.8,17.4 		"/>
		<polygon class="st0" points="58.8,25.4 51.3,23.9 51.3,30.1 58.8,31.3 		"/>
		<path class="st0" d="M51.3,44.5c0,0.1,0,0.3,0,0.4l7.5,0.2v-1.2l-7.5-0.3V44.5z"/>
		<polygon class="st0" points="54.4,13 50.8,12 50.8,17.2 54.4,18.1 		"/>
	</g>
	<g>
		<path class="st0" d="M21.3,27.3l-1.5-0.8c-0.3-0.2-0.7-0.1-0.9,0.2c-0.2,0.3-0.1,0.7,0.2,0.9l1.5,0.8c0.1,0.1,0.2,0.1,0.3,0.1
			c0.2,0,0.4-0.1,0.6-0.3C21.8,27.9,21.7,27.5,21.3,27.3 M24,25.5c0.1,0,0.2,0,0.3-0.1c0.3-0.2,0.4-0.6,0.2-0.9L23.7,23
			c-0.2-0.3-0.6-0.4-0.9-0.2c-0.3,0.2-0.4,0.6-0.2,0.9l0.8,1.5C23.5,25.4,23.8,25.5,24,25.5 M28.1,24.5c0.4,0,0.7-0.3,0.7-0.7v-1.7
			c0-0.4-0.3-0.7-0.7-0.7s-0.7,0.3-0.7,0.7v1.7C27.4,24.2,27.7,24.5,28.1,24.5 M25.6,40.2c0,0.7,0.5,1.3,1.2,1.4l0,0
			c0,0.5,0.4,0.8,0.8,0.8h0.8c0.5,0,0.8-0.4,0.8-0.8l0,0c0.7-0.1,1.2-0.6,1.2-1.4v-1.7h-4.9v1.7H25.6z M28.1,25.7
			c-2.7,0-4.9,2.2-4.9,4.9c0,2.5,2.4,3.5,2.4,5.7v1.1h4.9v-1.1c0-2.2,2.4-3.2,2.4-5.7C33,27.9,30.8,25.7,28.1,25.7 M37.1,26.7
			c-0.2-0.3-0.6-0.4-0.9-0.2l-1.5,0.8c-0.3,0.2-0.4,0.6-0.2,0.9c0.1,0.2,0.3,0.3,0.6,0.3c0.1,0,0.2,0,0.3-0.1l1.5-0.8
			C37.2,27.4,37.3,27,37.1,26.7 M33.3,22.9c-0.3-0.2-0.7-0.1-0.9,0.2l-0.8,1.5c-0.2,0.3-0.1,0.7,0.2,0.9c0.1,0.1,0.2,0.1,0.3,0.1
			c0.2,0,0.4-0.1,0.6-0.3l0.8-1.5C33.7,23.5,33.6,23.1,33.3,22.9"/>
	</g>
</g>
</svg>
