<?xml version="1.0" encoding="utf-8"?>
<!-- Generator: Adobe Illustrator 22.0.1, SVG Export Plug-In . SVG Version: 6.00 Build 0)  -->
<svg version="1.1" id="Layer_1" xmlns="http://www.w3.org/2000/svg" xmlns:xlink="http://www.w3.org/1999/xlink" x="0px" y="0px"
	 viewBox="0 0 57 42" style="enable-background:new 0 0 57 42;" xml:space="preserve">
<style type="text/css">
	.st0{fill:#FFFFFF;}
</style>
<g>
	<path class="st0" d="M11.3,0v27l6.9-6.9c0.3-0.3,0.9-0.3,1.3,0c0.3,0.3,0.3,0.7,0.1,1.1L0.4,40.5c-0.4,0.3-0.4,0.9,0,1.3
		C0.6,41.9,0.8,42,1,42s0.5-0.1,0.6-0.3l9.7-9.7v6h45.5V0H11.3z M18.4,14.7L16.7,13l3-3l-3-3l1.7-1.7l3,3l3-3L26.1,7l-3,3l3,3
		l-1.7,1.7l-3-3L18.4,14.7z M40.7,33.4c-2.9,0-5.3-2.4-5.3-5.3c0-2.9,2.4-5.3,5.3-5.3c2.9,0,5.3,2.4,5.3,5.3S43.6,33.4,40.7,33.4
		 M47.8,16.5L46,14.9l2.8-3.1l-1.9,0.1c-9.5,0.7-20,10-24,21.1l-2.2-0.8C25,20.3,36.5,10.3,46.8,9.5l2.1-0.1l-3.4-3l1.6-1.8l6.3,5.5
		L47.8,16.5z"/>
	<path class="st0" d="M40.7,25.1c-1.6,0-2.9,1.3-2.9,2.9c0,1.6,1.3,2.9,2.9,2.9c1.6,0,2.9-1.3,2.9-2.9
		C43.6,26.4,42.3,25.1,40.7,25.1"/>
</g>
</svg>
