<?xml version="1.0" encoding="utf-8"?>
<!-- Generator: Adobe Illustrator 22.0.1, SVG Export Plug-In . SVG Version: 6.00 Build 0)  -->
<svg version="1.1" id="Layer_1" xmlns="http://www.w3.org/2000/svg" xmlns:xlink="http://www.w3.org/1999/xlink" x="0px" y="0px"
	 viewBox="0 0 53.6 53.6" style="enable-background:new 0 0 53.6 53.6;" xml:space="preserve">
<style type="text/css">
	.st0{fill:#FFFFFF;}
</style>
<g>
	<path class="st0" d="M26.8,3.3L26.8,3.3c12.9,0,23.4,10.5,23.4,23.5c0,12.9-10.5,23.4-23.4,23.4S3.3,39.7,3.3,26.8
		C3.4,13.9,13.9,3.4,26.8,3.3 M26.8,0C12,0,0,12,0,26.8s12,26.8,26.8,26.8s26.8-12,26.8-26.8S41.6,0,26.8,0"/>
	<path class="st0" d="M26.8,5.4C15,5.4,5.4,15,5.4,26.8c0,10.1,7,18.5,16.3,20.8c3.7-7.4,11.4-17.8,26.5-21.5l0,0
		C47.8,14.6,38.4,5.4,26.8,5.4 M41.5,26.2H11.9v-10h29.6V26.2z"/>
	<path class="st0" d="M37.3,34.4c-2.8,0-5.1,2.3-5.1,5.1c0,1.4,0.6,2.7,1.5,3.6h7.2c0.9-0.9,1.5-2.2,1.5-3.6
		C42.4,36.7,40.1,34.4,37.3,34.4 M35.4,40.9c-0.6,0-1.1-0.5-1.1-1.1s0.5-1.1,1.1-1.1s1.1,0.5,1.1,1.1C36.5,40.4,36,40.9,35.4,40.9
		 M39.2,40.9c-0.6,0-1.1-0.5-1.1-1.1s0.5-1.1,1.1-1.1s1.1,0.5,1.1,1.1S39.8,40.9,39.2,40.9"/>
	<path class="st0" d="M18.3,17.9h-2.5c-0.5,0-1,0.4-1,1v4.9c0,0.6,0.4,1,1,1h2.5c0.6,0,1-0.4,1-1v-4.9
		C19.3,18.4,18.8,17.9,18.3,17.9 M18.1,23.6h-2.2V19h2.2V23.6z"/>
	<path class="st0" d="M24.8,17.9h-2.5c-0.5,0-1,0.4-1,1v4.9c0,0.6,0.4,1,1,1h2.5c0.6,0,1-0.4,1-1v-4.9
		C25.8,18.4,25.3,17.9,24.8,17.9 M24.6,23.6h-2.2V19h2.2V23.6z"/>
	<path class="st0" d="M31.3,17.9h-2.5c-0.5,0-1,0.4-1,1v4.9c0,0.6,0.4,1,1,1h2.5c0.6,0,1-0.4,1-1v-4.9
		C32.2,18.4,31.8,17.9,31.3,17.9 M31.1,23.6h-2.2V19h2.2V23.6z"/>
	<path class="st0" d="M37.9,17.9h-2.5c-0.5,0-1,0.4-1,1v4.9c0,0.6,0.4,1,1,1h2.5c0.6,0,1-0.4,1-1v-4.9
		C38.9,18.4,38.5,17.9,37.9,17.9 M37.8,23.6h-2.2V19h2.2V23.6z"/>
</g>
</svg>
