<?xml version="1.0" encoding="utf-8"?>
<!-- Generator: Adobe Illustrator 22.0.1, SVG Export Plug-In . SVG Version: 6.00 Build 0)  -->
<svg version="1.1" id="Layer_1" xmlns="http://www.w3.org/2000/svg" xmlns:xlink="http://www.w3.org/1999/xlink" x="0px" y="0px"
	 viewBox="0 0 40.2 53.6" style="enable-background:new 0 0 40.2 53.6;" xml:space="preserve">
<style type="text/css">
	.st0{fill:#FFFFFF;}
</style>
<g>
	<path class="st0" d="M20.1,12.8c-2.5,0-4.6,2-4.6,4.6v3.4h9.1v-3.4C24.7,14.9,22.6,12.8,20.1,12.8"/>
	<path class="st0" d="M20.1,23.2c-1.5,0-2.7,1.2-2.7,2.7c0,1.2,0.8,2.2,1.9,2.6l-0.8,4.2h3.2L21,28.6c1.1-0.3,1.9-1.4,1.9-2.6
		C22.8,24.4,21.6,23.2,20.1,23.2"/>
	<path class="st0" d="M20.1,0L0,8.6v19.2l0,0c0.6,10.6,8.4,20,20.1,25.8c11.7-5.8,19.5-15.2,20.1-25.8l0,0V8.6L20.1,0z M30.2,34.2
		l-10.1,4.3L10,34.2V20.7h2.7v-3.4c0-4,3.3-7.3,7.3-7.3s7.3,3.3,7.3,7.3v3.4H30v13.5H30.2z"/>
</g>
</svg>
