<?xml version="1.0" encoding="utf-8"?>
<!-- Generator: Adobe Illustrator 22.0.1, SVG Export Plug-In . SVG Version: 6.00 Build 0)  -->
<svg version="1.1" id="Layer_5" xmlns="http://www.w3.org/2000/svg" xmlns:xlink="http://www.w3.org/1999/xlink" x="0px" y="0px"
	 viewBox="0 0 75.2 83.8" style="enable-background:new 0 0 75.2 83.8;" xml:space="preserve">
<style type="text/css">
	.st0{fill:rgba(0,59,77,.5);}
</style>
<g>
	<path class="st0" d="M66.6,14.9c0,0-0.4-0.3-0.5-0.4c-0.2-0.3-0.2-1.3-0.2-1.3s0.5,0.1,0.7,0.3c0.1,0.1,0.3,0.3,0.3,0.5
		C66.9,14.2,66.6,14.9,66.6,14.9"/>
	<path class="st0" d="M70.3,17.4c0,0,0.8,0.8,0.9,1.2c0.1,0.7-0.2,2.2-0.7,2.7c-0.5,0.5-2.8,0.6-2.8,0.6s0.3,0.9,0.4,1.2
		c0.1,0.4,0.6,1.5,0.6,1.5s1.4,0,1.7-0.3c0.2-0.2,0.4-0.8,0.6-1c0.2-0.1,0.7-0.1,0.9-0.3c0.2-0.1,0.3-0.5,0.5-0.6
		c0.2-0.1,0.9,0,1.1-0.3c0.3-0.4,0-1.4,0.2-1.9c0.1-0.2,0.3-0.5,0.4-0.7c0.2-0.2,0.6-0.2,0.8-0.4c0.3-0.4,0.5-1.5,0.3-1.9
		c-0.1-0.2-0.7-0.1-0.9-0.3c-0.1-0.2,0.1-0.8-0.1-0.9c-0.3-0.3-1.3,0-1.7-0.3c-0.2-0.1-0.7-0.9-0.7-0.9L70.3,17.4z"/>
	<path class="st0" d="M66.6,14.9c0,0,0.3,1.9,0.8,2.3c0.6,0.5,3,0.2,3,0.2l1.5-2.3c0,0,0-1.2-0.3-1.3c-0.3-0.1-0.6,0.8-0.8,1
		c-0.2,0.2-0.5,0.7-0.8,0.9c-0.4,0.2-1.2,0.3-1.6,0.3c-0.2,0-0.6-0.2-0.8-0.3C67.3,15.4,66.6,14.9,66.6,14.9z"/>
	<path class="st0" d="M59.6,10c-0.3-0.3-0.5-1.3-0.9-1.5c-0.2-0.1-0.6-0.1-0.8-0.3c-0.3-0.2-0.4-1-0.7-1.1c-0.2-0.1-0.8,0.2-1.1,0.1
		c-0.2-0.1-0.5-0.4-0.7-0.5c-0.2-0.1-0.5-0.5-0.7-0.5c-0.1,0-0.3,0.1-0.3,0.1l-0.6-1c0,0,0.8-0.4,1-0.6c0.3-0.2,1.1-0.5,1.3-0.9
		c0.1-0.2,0.1-0.7,0.2-0.9c0-0.3,0-1.3,0-1.3s0.5-0.4,0.7-0.6c0.2-0.1,0.4-0.5,0.6-0.6c0.2-0.1,0.7-0.3,0.9-0.3
		c0.2,0.1,0.3,0.6,0.4,0.7c0.3,0.2,1.2,0.1,1.2,0.1s0,0.6,0.2,0.8c0.2,0.2,0.9,0,1,0.2c0.2,0.2,0,0.8-0.2,1
		c-0.1,0.2-0.6,0.3-0.7,0.5c-0.1,0.2-0.1,0.8,0,1c0.1,0.2,0.8,0.2,0.9,0.4c0.1,0.2,0,0.7,0.2,0.9c0.1,0.1,0.5,0.2,0.7,0.2
		s0.5-0.3,0.7-0.2c0.2,0.1,0.2,0.6,0.2,0.9c0,0.2-0.4,0.7-0.3,0.9c0.1,0.1,0.5,0.1,0.6,0.3c0.1,0.2,0.1,0.9,0.1,0.9
		s-0.6,0.2-0.9,0.3c-0.1,0-0.5,0-0.6,0.2c-0.2,0.3-0.1,1.5-0.1,1.5S61.5,11,61.3,11C60.8,11.1,59.9,10.2,59.6,10z"/>
	<path class="st0" d="M49.6,7.4c0,0.4,0.9,1.5,0.9,1.5s0.1-1.1,0.2-1.5c0-0.5,0-2.1,0-2.1S49.5,6.9,49.6,7.4z"/>
	<path class="st0" d="M50.7,5.4c0,0,0.8-0.3,0.9-0.5c0.2-0.2,0.6-0.8,0.5-1.1c-0.1-0.3-0.9-0.6-0.9-0.6L50.7,5.4z"/>
	<path class="st0" d="M62.3,25.9c0,0,0-0.6,0-0.9c0-0.2,0.1-0.5,0-0.7c-0.1-0.1-0.3-0.1-0.4-0.2c-0.3-0.1-0.9-0.1-1.2-0.1
		c-0.3,0-0.8,0-1.1,0.1c-0.2,0.1-0.8,0.4-0.8,0.4s0.1,1.7,0.1,2.2c0,0.3-0.1,1,0,1.3c0.1,0.2,0.3,0.5,0.4,0.7c0.2,0.2,0.7,0.6,1,0.5
		c0.3,0,0.6-0.6,0.8-0.8c0.2-0.2,0.7-0.6,0.9-0.9c0.1-0.1,0.3-0.4,0.4-0.4c0.6-0.3,1.9,0.2,2.5-0.1c0.2-0.1,0.5-0.6,0.8-0.7
		c0.5-0.3,1.9,0,2.2-0.4c0.1-0.1-0.1-0.6,0-0.8c0.1-0.2,0.8-0.7,0.8-0.7s-0.5-1.2-0.6-1.5c-0.1-0.3-0.4-1.2-0.4-1.2
		s-2.3,0.1-2.9,0.5c-0.3,0.2-0.7,0.7-0.9,1c-0.2,0.3-0.1,1.1-0.3,1.5C63.4,25.2,62.3,25.9,62.3,25.9"/>
	<path class="st0" d="M51.7,10.1c0.3-0.1,0.6-0.7,0.9-0.9c0.2-0.2,0.7-0.4,0.9-0.7c0.1-0.3-0.1-1.1,0-1.4c0.2-0.3,1.1-0.9,1.1-0.9
		l-0.6-1c0,0-0.8,0.8-1.2,0.9c-0.3,0.1-1.1,0-1.4-0.2c-0.2-0.1-0.7-0.6-0.7-0.6s0,1.7,0,2.3c0,0.3-0.1,1.2-0.1,1.2v1.2
		C50.5,10.1,51.4,10.2,51.7,10.1z"/>
	<path class="st0" d="M62,10.5c0,0-0.1-1.2,0.1-1.5c0.1-0.1,0.6-0.2,0.6-0.2l0.7,1.7L62,10.5z"/>
	<path class="st0" d="M61.3,11c0.2,0,0.7-0.5,0.7-0.5s1,0.1,1.4,0.1l0,0c0.4,0.2,0.8,0.9,1.1,1.2c0.3,0.3,1.4,1.4,1.4,1.4
		s0,1,0.2,1.3c0.1,0.1,0.5,0.4,0.5,0.4s0.3,1.9,0.8,2.3c0.6,0.5,3,0.2,3,0.2s0.8,0.8,0.9,1.2c0.1,0.7-0.2,2.2-0.7,2.7
		c-0.5,0.5-2.8,0.6-2.8,0.6s-2.3,0.1-2.9,0.5c-0.3,0.2-0.7,0.7-0.9,1c-0.2,0.3-0.1,1.1-0.3,1.5c-0.2,0.3-1.3,1-1.3,1s0-0.6,0-0.9
		c0-0.2,0.1-0.5,0-0.7c-0.1-0.1-0.3-0.1-0.4-0.2c-0.3-0.1-0.9-0.1-1.2-0.1c-0.3,0-0.8,0-1.1,0.1c-0.2,0.1-0.8,0.4-0.8,0.4
		s-0.9-0.9-1.1-1.3c-0.1-0.3-0.2-0.9-0.3-1.2c-0.1-0.3-0.5-0.8-0.7-1c-0.3-0.4-0.9-1.1-1.2-1.5c-0.2-0.3-0.5-0.8-0.6-1.1
		c-0.2-0.5-0.4-1.6-0.7-2.1c-0.2-0.5-0.8-1.4-1.1-1.8c-0.3-0.4-1.2-0.9-1.4-1.3c-0.2-0.3,0-1.2-0.2-1.5c-0.1-0.2-0.7-0.3-0.9-0.5
		c-0.2-0.2-0.2-1.1-0.2-1.1s0.9,0.1,1.2,0c0.3-0.1,0.6-0.7,0.9-0.9c0.2-0.2,0.7-0.4,0.9-0.7c0.1-0.3-0.1-1.1,0-1.4
		c0.2-0.3,1.1-0.9,1.1-0.9s0.3-0.1,0.3-0.1c0.2,0,0.5,0.4,0.7,0.5c0.2,0.1,0.5,0.5,0.7,0.5c0.3,0.1,0.9-0.2,1.1-0.1
		C57.6,7.3,57.8,8,58,8.2c0.2,0.1,0.6,0.1,0.8,0.3c0.3,0.3,0.6,1.2,0.9,1.5C60,10.4,60.8,11.1,61.3,11z"/>
	<path class="st0" d="M50.7,5.4c0,0,0.5,0.5,0.7,0.6c0.3,0.1,1,0.3,1.4,0.2c0.4-0.1,1.2-0.9,1.2-0.9s0.8-0.4,1-0.6
		c0.3-0.2,1.1-0.5,1.3-0.9c0.1-0.2,0.1-0.7,0.2-0.9c0-0.3,0-1.3,0-1.3s-0.1-0.9-0.3-1c-0.3-0.2-1,0.2-1.3,0.3c-0.3,0-0.8,0-1.1,0
		c-0.4,0-1.2,0.1-1.5,0.2c-0.2,0-0.9,0.2-0.9,0.2S51,1.8,51,2.1c0,0.3,0.3,1.1,0.3,1.1s0.8,0.3,0.9,0.6c0.1,0.3-0.3,0.9-0.5,1.1
		C51.4,5.1,50.7,5.4,50.7,5.4z"/>
	<path class="st0" d="M17.5,32c0,0,0.4,0.5,0.4,0.7c0.1,0.3,0.2,1,0.3,1.4c0,0.3,0,1,0.1,1.3c0.1,0.3,0.3,1.3,0.3,1.3l1.3-0.6
		c0,0-0.4-1.7-0.3-2.2c0.1-0.2,0.5-0.5,0.6-0.8c0.2-0.5,0.5-1.7,0.5-2.2c0-0.3-0.2-1.3-0.2-1.3l-0.9,0.1c0,0-0.1,0.8-0.3,1
		c-0.2,0.2-0.9,0.2-1.1,0.3C18,31.2,17.5,32,17.5,32z"/>
	<path class="st0" d="M1.2,29.2c0,0.2-0.1,0.6,0,0.7c0.2,0.1,0.7-0.1,0.9,0c0.1,0.1,0.4,0.5,0.4,0.5s0.3-0.6,0.5-0.7
		c0.3-0.2,1.2-0.4,1.2-0.4s1,0.2,1.4,0.3c0.3,0,1.1,0,1.1,0s-0.3-0.9-0.5-1.1C6,28.3,5.6,28.2,5.5,28c-0.1-0.2-0.2-0.8-0.2-0.8
		s-0.5-0.4-0.7-0.5c-0.2-0.2-0.5-0.9-0.8-1.1c-0.1-0.1-0.5-0.1-0.7-0.3c-0.1-0.1-0.3-0.5-0.4-0.6c-0.2-0.1-0.9,0.2-0.9,0.2
		S1.1,26,0.7,26.3C0.5,26.4,0,26.4,0,26.6c0,0.2,0.6,0.1,0.8,0.3C1,27,1.5,27.7,1.5,27.7s0.4,0.2,0.4,0.4c0,0.2-0.5,0.3-0.6,0.4
		C1.2,28.6,1.2,29,1.2,29.2"/>
	<path class="st0" d="M5.3,27.2c0,0,0.6-1.3,1-1.3c0.2,0,0.6,0.4,0.8,0.4c0.8,0.3,2.6,0.3,3.5,0.3c0.3,0,1.1,0.1,1.3-0.2
		c0.2-0.2,0.1-1-0.1-1.2c-0.1-0.2-0.7-0.1-0.8-0.3c-1.1-1.5,0.7-5.8,0.1-7.6c-0.1-0.2-0.4-0.5-0.5-0.7c-0.1-0.3-0.2-1.2,0-1.5
		c0.1-0.1,0.6,0,0.7-0.2c0.1-0.2,0-1,0-1s0.8,0.5,1,0.7c1.8,1.3,5,4.3,6.8,5.5c0.2,0.1,0.8,0.2,0.9,0.4c0.2,0.3-0.1,1.4,0.3,1.6
		c0.2,0.1,0.9-0.2,0.9-0.2s0.7,2.6,0.2,3.3c-0.1,0.1-0.6,0-0.7,0.1c-0.1,0.1,0.1,0.5,0,0.6c-0.4,0.5-2,0.1-2.6,0.3
		c-0.2,0.1-0.8,0.5-0.8,0.5s-1.3-0.2-1.6-0.1c-0.2,0.1-0.4,0.5-0.5,0.7c-0.1,0.1-0.4,0.4-0.5,0.5c-0.3,0.2-1,0.2-1.3,0.4
		c-0.1,0.1-0.2,0.4-0.3,0.5c-0.1,0.2-0.2,0.6-0.3,0.8c-0.1,0.3-0.6,0.7-0.7,0.9c-0.1,0.3-0.3,1.3-0.3,1.3s-0.9,0.1-1.2,0.2
		c-0.2,0-0.9,0.1-0.9,0.1s-0.1-1-0.3-1.3c-0.1-0.2-0.5-0.6-0.8-0.8c-0.2-0.1-0.8-0.2-1.1-0.3c-0.3-0.1-1-0.3-1-0.3s-0.3-0.9-0.5-1.1
		C6,28.3,5.6,28.2,5.5,28C5.4,27.8,5.3,27.2,5.3,27.2z"/>
	<path class="st0" d="M7.4,34.2c0,0-0.1-0.9-0.3-1.1c-0.2-0.3-0.8-0.6-1.1-0.6c-0.2,0-0.6,0.3-0.9,0.4c-0.2,0.1-1,0.3-1,0.3
		s0.1,0.8,0.3,0.9c0.1,0.1,0.6,0.1,0.7,0.3c0.1,0.2,0,0.7,0.2,0.9c0.2,0.2,0.8,0.1,0.9,0.3C6.3,35.6,6.4,36,6.4,36L7.4,34.2z"/>
	<path class="st0" d="M28.3,34.9c0.2-0.2,0.5-0.8,0.7-1.1c0.2-0.5,0.3-1.5,0.5-1.9c0.1-0.1,0.2-0.4,0.3-0.5c0.1-0.1,0.5-0.3,0.6-0.4
		c0.2-0.3,0.2-1,0.2-1.3c0-0.4-0.2-1.7-0.2-1.7l0,0c0,0-0.6,0.3-0.7,0.4c-0.1,0.1-0.3,0.6-0.5,0.6c-0.2,0-0.3-0.5-0.5-0.6
		c-0.3-0.1-1.1-0.2-1.3,0c-0.1,0.1,0,0.5-0.1,0.6c-0.2,0.1-0.6,0-0.8-0.1c-0.2-0.1-0.4-0.5-0.6-0.6c-0.2-0.1-0.5,0.1-0.7,0.1
		c-0.3,0-1-0.1-1.2,0.1c-0.1,0.1,0,0.4-0.1,0.4c-0.2,0-0.3-0.6-0.4-0.7c-0.2-0.1-0.6-0.1-0.8-0.1c-0.2,0-0.7,0.1-0.9,0.3
		c-0.2,0.1-0.3,0.5-0.4,0.7c-0.1,0.1-0.2,0.4-0.3,0.5c-0.1,0-0.3,0-0.3,0s0.2,1,0.2,1.3c0,0.6-0.3,1.7-0.5,2.2
		c-0.1,0.2-0.5,0.5-0.6,0.8c-0.2,0.5,0.3,2.2,0.3,2.2s0.6,0.1,0.8,0.2c0.2,0,0.7-0.2,0.9-0.1c0.1,0.1,0.3,0.3,0.4,0.5
		c0.1,0.1,0.4,0.4,0.4,0.6c0.1,0.2-0.1,0.7,0,0.9c0.1,0.2,0.5,0.5,0.7,0.6c0.2,0.1,0.9,0,0.9,0s1.4-1.1,1.8-1.5
		c0.2-0.2,0.4-0.6,0.6-0.8c0.2-0.2,0.6-0.6,0.8-0.8C27.5,35.4,28,35.1,28.3,34.9z"/>
	<path class="st0" d="M18,36.8c0,0-0.3-1-0.3-1.3c-0.1-0.3-0.2-1-0.2-1.4c0-0.2,0.2-0.7,0.1-0.9c-0.1-0.1-0.4-0.2-0.4-0.3
		C17,32.9,17,32.1,17,32.1l0.4-0.1c0,0,0.4,0.5,0.4,0.7c0.1,0.3,0.2,1,0.3,1.4c0,0.3,0,1,0.1,1.3c0.1,0.3,0.3,1.3,0.3,1.3L18,36.8z"
		/>
	<path class="st0" d="M6.4,36l0.9-1.8c0,0,0.3,1,0.6,1.2c0.2,0.1,0.8,0.2,0.8,0.2s0.1,0.8,0.3,0.9c0.1,0.1,0.5,0.1,0.6,0.2
		c0.2,0.2,0,0.9,0.2,1.1c0.2,0.2,1.1,0.4,1.1,0.4s-0.1,0.4-0.2,0.5c-0.1,0.1-0.4,0.4-0.6,0.4c-0.3,0.1-0.9-0.2-1.2-0.3
		C8.1,38.4,6.4,36,6.4,36z"/>
	<path class="st0" d="M9.3,11.5c0,0-0.2,1.1-0.4,1.4c-0.1,0.2-0.3,0.5-0.4,0.6c-0.5,0.3-2-0.3-2.4,0.2c-0.6,0.6,0.7,2.8,0,3.3
		c-0.2,0.1-0.6-0.3-0.9-0.3c-0.2,0-0.5,0.3-0.6,0.5c-0.1,0.2-0.2,0.6-0.3,0.9c-0.1,0.4,0.2,1.2-0.1,1.5c-0.2,0.1-0.6,0-0.9,0
		c-0.4,0-1.1-0.1-1.5-0.2c-0.1,0-0.3-0.2-0.3-0.2s-0.2,2.3,0,3c0,0.1,0.2,0.2,0.2,0.3c0.2,0.5,0,2.3,0,2.3s0.7-0.3,0.9-0.2
		c0.2,0.1,0.3,0.5,0.4,0.6c0.1,0.1,0.5,0.1,0.7,0.3c0.3,0.2,0.5,0.9,0.8,1.1c0.1,0.2,0.7,0.5,0.7,0.5s0.6-1.3,1-1.3
		c0.2,0,0.6,0.4,0.8,0.4c0.8,0.3,2.6,0.3,3.5,0.3c0.3,0,1.1,0.1,1.3-0.2c0.2-0.2,0.1-1-0.1-1.2c-0.1-0.2-0.7-0.1-0.8-0.3
		c-1.1-1.5,0.7-5.8,0.1-7.6c-0.1-0.2-0.4-0.5-0.5-0.7c-0.1-0.3-0.2-1.2,0-1.5c0.1-0.1,0.6,0,0.7-0.2c0.1-0.2,0-1,0-1L9.3,11.5z"/>
	<path class="st0" d="M10.9,38.3c0,0-0.9-0.2-1.1-0.4c-0.2-0.2,0-0.9-0.2-1.1c-0.1-0.1-0.5-0.1-0.6-0.2c-0.2-0.2-0.3-0.9-0.3-0.9
		s0.1-1,0.3-1.3c0.2-0.3,1.1-0.4,1.1-0.8c0-0.2-0.6-0.4-0.7-0.6c0-0.2,0.3-0.8,0.3-0.8s0.6-0.1,0.9-0.1c0.3,0,1.2-0.2,1.2-0.2
		s0.4,0.4,0.6,0.4c0.5,0.2,2,0.1,2,0.1s0,0.7,0.1,0.9c0.1,0.1,0.5,0.2,0.6,0.3c0.1,0.2,0,0.6-0.1,0.8c-0.1,0.1-0.4,0-0.5,0.1
		c-0.3,0.3-0.2,1.2-0.2,1.5c0,0.4,0.2,1.6,0.2,1.6s-1.8-0.1-2.5,0.1C11.7,37.9,10.9,38.3,10.9,38.3z"/>
	<path class="st0" d="M19.6,29.6c0,0-0.1,0.8-0.3,1c-0.2,0.2-0.9,0.2-1.1,0.3c-0.3,0.2-0.8,1-0.8,1L17,32.1c0,0-0.7-0.1-0.9-0.2
		c-0.2-0.1-0.5-0.4-0.7-0.4c-0.1,0-0.5-0.1-0.6,0c-0.2,0.1-0.5,0.9-0.5,0.9s-1.5,0.1-2-0.1c-0.2-0.1-0.6-0.4-0.6-0.4s0.2-1,0.3-1.3
		c0.1-0.3,0.5-0.7,0.7-0.9c0.1-0.2,0.3-0.6,0.3-0.8c0.1-0.1,0.1-0.4,0.3-0.5c0.3-0.2,1-0.2,1.3-0.4c0.2-0.1,0.4-0.4,0.5-0.5
		c0.1-0.2,0.3-0.6,0.5-0.7c0.4-0.2,1.6,0.1,1.6,0.1s0.2,0.5,0.3,0.6c0.1,0.1,0.5,0.2,0.6,0.3c0.1,0.2-0.1,0.8,0.1,1
		c0.1,0.1,0.5,0,0.7,0.1C19.3,29,19.6,29.6,19.6,29.6z"/>
	<path class="st0" d="M2.5,30.4c0,0,0.3-0.6,0.5-0.7c0.3-0.2,1.2-0.4,1.2-0.4s1,0.2,1.4,0.3c0.3,0,1.1,0,1.1,0s0.8,0.2,1,0.3
		c0.3,0.1,0.9,0.1,1.1,0.3c0.2,0.1,0.6,0.5,0.8,0.8c0.2,0.3,0.3,1.3,0.3,1.3S9.4,32.8,9.5,33c0,0.2,0.7,0.4,0.7,0.6
		c0,0.3-0.9,0.5-1.1,0.8c-0.2,0.3-0.3,1.3-0.3,1.3S8.1,35.5,8,35.4c-0.3-0.2-0.6-1.2-0.6-1.2s-0.1-0.9-0.3-1.1
		c-0.2-0.3-0.8-0.6-1.1-0.6c-0.2,0-0.6,0.3-0.9,0.4c-0.2,0.1-1,0.3-1,0.3s-1-0.9-1.2-1.3C2.7,31.5,2.5,30.4,2.5,30.4z"/>
	<path class="st0" d="M14.5,37.7c0,0-0.2-1.2-0.2-1.6c0-0.4-0.1-1.3,0.2-1.5c0.1-0.1,0.4,0,0.5-0.1c0.1-0.1,0.2-0.6,0.1-0.8
		c-0.1-0.2-0.5-0.2-0.6-0.3c-0.1-0.2-0.1-0.9-0.1-0.9s0.3-0.8,0.5-0.9c0.1-0.1,0.5,0,0.6,0c0.2,0.1,0.5,0.4,0.7,0.4
		c0.2,0.1,0.9,0.2,0.9,0.2s0,0.7,0.1,0.9c0.1,0.1,0.4,0.1,0.4,0.3c0.1,0.2-0.1,0.6-0.1,0.9c0,0.3,0.1,1,0.2,1.4
		c0.1,0.3,0.3,1.3,0.3,1.3s-0.3,0.4-0.4,0.5c-0.2,0.1-0.6-0.1-0.8,0c-0.2,0.1-0.3,0.4-0.4,0.5c-0.2,0.1-0.6,0.1-0.8,0.1
		C15.3,37.9,14.5,37.7,14.5,37.7z"/>
	<path class="st0" d="M20.9,29.5c0.1-0.1,0.2-0.4,0.3-0.5c0.1-0.2,0.2-0.6,0.4-0.7c0.2-0.1,0.7-0.2,0.9-0.3c0.2,0,0.6,0,0.8,0.1
		c0.2,0.1,0.2,0.7,0.4,0.7c0.1,0,0-0.4,0.1-0.4c0.2-0.2,0.9-0.1,1.2-0.1c0.2,0,0.6-0.1,0.7-0.1c0.2,0.1,0.4,0.5,0.6,0.6
		c0.2,0.1,0.6,0.2,0.8,0.1c0.1-0.1,0-0.5,0.1-0.6c0.3-0.2,1-0.1,1.3,0c0.2,0.1,0.3,0.6,0.5,0.6c0.2,0,0.3-0.4,0.5-0.6
		c0.2-0.1,0.7-0.4,0.7-0.4s-0.1-0.8,0-1c0-0.2,0.3-0.4,0.4-0.5c0.1-0.1,0.5-0.3,0.6-0.4c0.1-0.1,0.2-0.5,0.4-0.6
		c0.1-0.1,0.6,0,0.7-0.2c0.9-1,0.6-4.1,0.3-5.4c0-0.3-0.3-0.8-0.4-1.1c0-0.1-0.2-0.3-0.2-0.4c-0.1-0.1-0.1-0.6-0.1-0.6
		s-0.5-0.2-0.6-0.2c-0.3-0.1-0.9,0.1-1.2-0.1C30,17.3,30,17,30,16.9c-0.3-0.2-1.3,0-1.3,0s-0.2,0.3-0.3,0.4c-0.2,0.2-0.8,0.3-1,0.4
		c-0.2,0.1-0.7,0.5-0.9,0.7c-0.1,0.2-0.3,0.6-0.4,0.7c-0.3,0.3-1.3,0.2-1.6,0.5c-0.1,0.1-0.1,0.5-0.2,0.7c-0.1,0.1-0.5,0.2-0.6,0.3
		c-0.2,0.2-0.5,0.7-0.7,0.8c-0.4,0.2-1.3-0.2-1.6,0.1c-0.1,0.1-0.1,0.5-0.1,0.5s0.7,2.6,0.2,3.3c-0.1,0.1-0.6,0-0.7,0.1
		c-0.1,0.1,0.1,0.5,0,0.6c-0.4,0.5-2,0.1-2.6,0.3c-0.2,0.1-0.8,0.5-0.8,0.5s0.2,0.5,0.3,0.6c0.1,0.1,0.5,0.2,0.6,0.3
		c0.1,0.2-0.1,0.8,0.1,1c0.1,0.1,0.5,0,0.7,0.1c0.2,0.1,0.5,0.8,0.5,0.8l0.9-0.1C20.6,29.5,20.8,29.6,20.9,29.5z"/>
	<path class="st0" d="M1.5,27.7c0,0,1,0.1,1.3,0c0.1,0,0.4-0.2,0.5-0.2c0.3,0,1-0.1,1.2,0.2c0.1,0.1,0.1,0.5,0,0.6
		c-0.1,0.1-0.4-0.1-0.6-0.1c-0.1,0-0.4-0.2-0.6-0.2c-0.3,0-0.7,0.5-1,0.5c-0.3,0-1,0.1-1-0.2c0.1-0.1,0.6-0.2,0.6-0.4
		C1.9,28,1.5,27.7,1.5,27.7z"/>
	<path class="st0" d="M4.1,29.3c0,0-1.1-0.4-1.4-0.4c-0.4,0-1.5,0.3-1.5,0.3s-0.1,0.6,0,0.7c0.2,0.1,0.7-0.1,0.9,0
		c0.1,0.1,0.4,0.5,0.4,0.5s0.3-0.6,0.5-0.7C3.2,29.5,4.1,29.3,4.1,29.3z"/>
	<path class="st0" d="M9.3,11.5c0,0,0.2-0.4,0.1-0.5c-0.1-0.1-0.5,0-0.7,0c-0.6,0-2.6,0-2.6,0s-0.2,0.5-0.3,0.6
		c-0.3,0.1-1-0.4-1.2-0.2c-0.3,0.2-0.1,1-0.2,1.3c-0.1,0.2-0.3,0.6-0.4,0.7c-0.2,0.1-0.7,0.2-0.9,0.3c-0.1,0.1-0.4,0.3-0.4,0.4
		c-0.1,0.3,0.3,1.2,0.1,1.5c-0.1,0.1-0.5,0-0.6,0.2c-0.1,0.2,0.2,0.5,0.2,0.7c0,0.1-0.3,0.2-0.4,0.3c-0.2,0.2-0.3,0.8-0.3,1
		c0,0.3,0.1,1.4,0.1,1.4s0.3,0.1,0.3,0.2c0.4,0.1,1.1,0.1,1.5,0.2c0.2,0,0.7,0.1,0.9,0c0.3-0.2,0-1.1,0.1-1.5c0-0.2,0.1-0.7,0.3-0.9
		c0.1-0.2,0.4-0.5,0.6-0.5c0.2,0,0.7,0.4,0.9,0.3c0.7-0.5-0.6-2.7,0-3.3c0.4-0.4,1.9,0.1,2.4-0.2c0.2-0.1,0.3-0.4,0.4-0.6
		C9.1,12.6,9.3,11.5,9.3,11.5z"/>
	<path class="st0" d="M41.3,7.4l0,12c0,0,0.5-0.3,0.6-0.3c0.2-0.1,0.5-0.4,0.8-0.5c1.5-0.5,4.9-0.6,6.4,0c0.2,0.1,0.4,0.5,0.6,0.5
		c0.5,0,1.7-1.4,1.7-1.4s-0.2-1.1,0-1.4c0-0.1,0.3-0.2,0.3-0.3c0.2-1.1-1.7-2.7-2.3-3.7c-0.3-0.5-1.1-1.6-1.3-2.2
		c-0.1-0.2-0.2-0.9,0-1c0.3-0.1,0.5,0.6,0.7,0.9c0.3,0.3,0.7,1.3,1.1,1.2c0.3,0,0.5-1,0.5-1V8.9l-0.9-1.5c0,0-1-0.1-1.4-0.1
		c-0.6-0.1-2-0.6-2.5-0.3c-0.3,0.2-0.1,1.1-0.3,1.2c-0.2,0.1-0.5-0.2-0.7-0.3c-0.2-0.2-0.4-0.7-0.7-0.8C43.4,6.9,41.3,7.4,41.3,7.4z
		"/>
	<path class="st0" d="M15.3,3.1c0,0,0.7,0.5,0.8,0.8c0,0.3-0.6,0.7-0.5,0.9c0,0.2,0.5,0.2,0.6,0.3c0.2,0.4-0.1,1.4-0.4,1.7
		c-0.2,0.2-0.9-0.1-1.1,0.1c-0.1,0.1-0.2,0.5-0.2,0.7c0,0.2,0.5,0.3,0.5,0.5c0,0.4-1,0.8-1.3,1.1c-0.2,0.2-0.6,0.7-0.9,0.9
		c-0.2,0.1-0.6,0.4-0.8,0.4c-0.2,0-0.5-0.1-0.7,0c-0.1,0.1-0.1,0.4-0.3,0.5c-0.2,0.1-0.6-0.2-0.8-0.1c-0.1,0.1,0,0.5-0.1,0.6
		c-0.2,0.2-1,0-1,0l2.1,2.5c0,0,0.8,0.5,1,0.7c1.8,1.3,5,4.3,6.8,5.5c0.2,0.1,0.8,0.2,0.9,0.4c0.2,0.3-0.1,1.4,0.3,1.6
		c0.2,0.1,0.9-0.2,0.9-0.2s0-0.4,0.1-0.5c0.3-0.3,1.3,0.1,1.6-0.1c0.2-0.1,0.5-0.6,0.7-0.8c0.1-0.1,0.5-0.2,0.6-0.3
		c0.1-0.1,0.1-0.6,0.2-0.7c0.3-0.3,1.3-0.3,1.6-0.5c0.2-0.1,0.3-0.5,0.4-0.7c0.2-0.2,0.6-0.5,0.9-0.7c0.2-0.1,0.8-0.3,1-0.4
		c0.1-0.1,0.3-0.4,0.3-0.4s0-0.8-0.2-1c-0.3-0.3-1.2-0.1-1.5-0.3c-0.2-0.1-0.4-0.3-0.5-0.5c-0.1-0.3-0.1-0.9-0.1-1.2
		c0-1.7,0.2-6.7,0.2-6.7s-0.5,0.1-0.6,0c-0.2-0.2-0.1-0.9-0.3-1.1C25.6,6,25.1,6,24.9,5.8c-0.2-0.2-0.4-0.8-0.4-1.1
		c0-0.3,0.1-0.8,0.3-1c0.2-0.2,0.9-0.1,0.9-0.3c0.1-0.2-0.5-0.5-0.5-0.8c0-0.2,0-0.6,0.2-0.8c0.1-0.1,0.4,0.1,0.4,0
		c0.2-0.2-0.2-1.3-0.2-1.3s-2.2-0.2-3-0.2c-0.3,0-1,0.1-1.4,0.2c-0.3,0.1-0.8,0.4-1.1,0.4c-0.5,0.1-1.6,0-2.1,0.2
		c-0.2,0.1-0.5,0.6-0.8,0.7c-0.3,0.2-1.2,0-1.5,0.3C15.6,2.2,15.3,3.1,15.3,3.1z"/>
	<path class="st0" d="M28.3,5.1c0,0,0.6,0.4,0.8,0.5c0.1,0.1,0.4,0.1,0.6,0.1c0.6,0.1,1.8,0,2.2,0.3c0.2,0.1,0.1,0.7,0.3,0.9
		c0.3,0.3,1.3-0.1,1.6,0.2c0.1,0.1,0,0.4,0,0.5c0.2,0.3,1,0.2,1.4,0.3c0.2,0.1,0.7,0.4,0.9,0.3c0.1,0,0.2-0.3,0.3-0.5
		c0.1-0.3-0.1-1.1,0-1.4c0.1-0.1,0.3-0.3,0.4-0.4c0.1-0.1,0.3-0.5,0.4-0.6c0.1-0.1,0.3-0.3,0.4-0.3c0.2-0.1,0.8-0.1,1,0
		c0.2,0.1,0.4,0.5,0.6,0.6c0.1,0.1,0.3,0.4,0.5,0.5c0.2,0.1,0.7-0.1,0.9,0c0.2,0,0.7,0.1,0.9,0.3c0.1,0.2-0.1,1-0.1,1l0,12
		c0,0,0.2,1.4-0.1,1.7c-0.1,0.1-0.6,0-0.7,0.2c-0.3,0.4,0.2,1.8,0.2,1.8s-0.5,0-0.7-0.1c-0.5-0.2-1.2-1-1.6-1.3
		c-0.2-0.1-0.5-0.3-0.7-0.4c-0.4-0.2-1.2-0.4-1.5-0.7c-0.2-0.2-0.3-0.8-0.5-0.9c-0.4-0.2-1.4,0-1.7-0.3c-0.2-0.1-0.2-0.7-0.3-0.9
		c-0.2-0.2-0.7-0.1-0.9-0.3c-0.1-0.1,0-0.3-0.1-0.4c-0.2-0.2-0.9-0.1-0.9-0.1s-0.5-0.2-0.6-0.2c-0.3-0.1-0.9,0.1-1.2-0.1
		C30,17.3,30,17,30,16.9c-0.3-0.2-1.3,0-1.3,0s0-0.8-0.2-1c-0.3-0.3-1.2-0.1-1.5-0.3c-0.2-0.1-0.4-0.3-0.5-0.5
		c-0.1-0.3-0.1-0.9-0.1-1.2c0-1.7,0.2-6.7,0.2-6.7s0.7-0.4,1-0.5c0.1,0,0.4,0,0.5-0.1C28.3,6.4,28.3,5.1,28.3,5.1"/>
	<path class="st0" d="M40.8,23c0,0,0.3,2.3-0.1,2.9C40.6,26,40.2,26,40,26.1c-0.2,0.2-0.5,0.8-0.6,1.1c-0.1,0.2-0.1,0.9-0.3,1
		c-0.1,0.1-0.6-0.1-0.7,0c-0.1,0.1-0.2,0.5-0.1,0.6c0.1,0.2,0.6,0.1,0.7,0.3c0.1,0.2,0,0.6,0.2,0.8c0.1,0.1,0.4,0.1,0.4,0.2
		c0.1,0.1,0.1,0.4,0,0.5c0,0.1-0.2,0.2-0.2,0.3c0,0.2,0.4,0.5,0.5,0.7c0.1,0.2,0.4,0.7,0.5,1c0,0.2-0.2,0.7-0.1,0.9
		c0.1,0.1,0.4,0.1,0.4,0.2c0.1,0.1,0,0.5,0.1,0.6c0.1,0.1,0.5-0.2,0.7-0.1c0.2,0.1,0.1,0.8,0.3,0.9c0.2,0.2,0.7,0,0.9,0.2
		c0.2,0.2,0,0.9,0.2,1.1c0.1,0.1,0.4,0.1,0.6,0.2c0.1,0.1,0.2,0.3,0.3,0.4c0,0.1,0.2,0.2,0.2,0.3c0,0.1-0.1,0.3-0.1,0.5
		c0,0.2,0.2,0.5,0.4,0.6c0.5,0.3,1.8-0.1,2.3,0.2c0.1,0.1,0.2,0.4,0.3,0.5c0.1,0.1,0.5,0.1,0.6,0.2c0,0,0,0.2,0,0.2s0.8,0,1,0
		c0.2,0,0.7,0.1,1,0c0.3,0,1.1-0.4,1.1-0.4l1.3-1c0,0,0.1-0.5,0.1-0.6c0-0.2-0.3-0.6-0.5-0.8c-0.1-0.1-0.3-0.2-0.3-0.3
		c-0.1-0.1-0.4-0.2-0.5-0.4c-0.1-0.2,0.1-0.6,0-0.8c-0.1-0.1-0.4,0-0.5-0.1c-0.2-0.2-0.7-0.7-0.6-1c0.1-0.2,0.8,0.1,1-0.1
		c0.4-0.4-0.2-1.8,0.3-2.2c0.1-0.1,0.7,0.1,0.8,0c0.4-0.4-0.2-1.8,0.2-2.3c0.2-0.2,1,0,1.2-0.2c0.4-0.5,0.3-2.2-0.1-2.7
		c-0.1-0.1-0.6,0-0.7-0.2c-0.1-0.2-0.1-0.6,0-0.8c0.2-0.2,0.7,0.2,0.9,0c0.1-0.1,0-0.6-0.1-0.8c-0.1-0.3-0.3-0.7-0.4-1
		c-0.1-0.3-0.1-1-0.1-1.3c0.1-0.5,0.7-1.9,0.7-1.9s0-0.7-0.1-0.9c-0.1-0.3-0.3-0.9-0.5-1.2c-0.2-0.3-1.3-1-1.3-1S50.3,19,49.7,19
		c-0.2,0-0.4-0.4-0.6-0.5c-1.5-0.6-4.9-0.5-6.4,0c-0.2,0.1-0.6,0.4-0.8,0.5c-0.1,0.1-0.6,0.3-0.6,0.3s0.2,1.4-0.1,1.7
		c-0.1,0.1-0.6,0-0.7,0.2C40.3,21.6,40.8,23,40.8,23z"/>
	<path class="st0" d="M26.6,7.3c0,0-0.5,0.1-0.6,0c-0.2-0.2-0.1-0.9-0.3-1.1C25.6,6,25.1,6,24.9,5.8c-0.2-0.2-0.4-0.8-0.4-1.1
		c0-0.3,0.1-0.8,0.3-1c0.2-0.2,0.9-0.1,0.9-0.3c0.1-0.2-0.5-0.5-0.5-0.8c0-0.2,0-0.6,0.2-0.8c0.1-0.1,0.4,0.1,0.4,0
		c0.2-0.2-0.2-1.3-0.2-1.3s0.5-0.4,0.7-0.4c0.1,0,0.4-0.1,0.5,0c0.1,0,0.3,0.3,0.5,0.3C27.4,0.5,28,0.5,28,0.7
		c0.1,0.2-0.3,0.6-0.3,0.8c0,0.2,0.3,0.4,0.4,0.6c0.1,0.3,0.1,1-0.1,1.2c-0.1,0.1-0.6,0.1-0.7,0.2c-0.1,0.2-0.2,0.7-0.1,0.9
		c0.1,0.1,0.5,0.1,0.6,0.2c0.1,0.1,0.4,0.5,0.4,0.5s0.1,1.3-0.2,1.6c-0.1,0.1-0.4,0.1-0.5,0.1C27.3,6.9,26.6,7.3,26.6,7.3z"/>
	<path class="st0" d="M14.2,3.3c0-0.3,1.1-0.2,1.1-0.2s0.7,0.5,0.8,0.8c0,0.3-0.6,0.7-0.5,0.9c0,0.2,0.5,0.2,0.6,0.3
		c0.2,0.4-0.1,1.4-0.4,1.7c-0.2,0.2-0.9-0.1-1.1,0.1c-0.1,0.1-0.2,0.5-0.2,0.7c0,0.2,0.5,0.3,0.5,0.5c0,0.4-1,0.8-1.3,1.1
		c-0.2,0.2-0.6,0.7-0.9,0.9c-0.2,0.1-0.6,0.4-0.8,0.4c-0.2,0-0.5-0.1-0.7,0c-0.1,0.1-0.1,0.4-0.3,0.5c-0.2,0.1-0.6-0.2-0.8-0.1
		c-0.1,0.1,0,0.5-0.1,0.6c-0.2,0.2-1,0-1,0s0.2-0.4,0.1-0.5c-0.1-0.1-0.5,0-0.7,0c-0.6,0-2.6,0-2.6,0s0.5-0.7,0.7-0.9
		c0.1-0.1,0.4-0.2,0.5-0.3c0.2-0.1,0.4-0.4,0.5-0.6c0.3-0.7,0.2-2.3,0.4-3c0.1-0.2,0.1-0.8,0.3-0.9C8.7,5.3,8.9,5.5,9,5.5
		c0.1-0.1,0-0.6,0.1-0.7c0.3-0.3,1.3,0.2,1.6-0.1c0.1-0.1-0.1-0.6,0-0.8c0.1-0.2,0.5-0.5,0.6-0.7c0.1-0.1,0.3-0.4,0.3-0.6
		C11.7,2.5,11.7,2,11.9,2c0.2-0.1,0.6,0.4,0.8,0.5c0.2,0.1,0.7,0,0.9,0.1C13.7,2.7,14.2,3,14.2,3.3"/>
	<path class="st0" d="M24,38.7c0,0,1.4-1.1,1.8-1.5c0.2-0.2,0.4-0.6,0.6-0.8c0.2-0.2,0.6-0.6,0.8-0.8c0.3-0.2,0.8-0.5,1.1-0.8
		c0.2-0.2,0.5-0.8,0.7-1.1c0.2-0.5,0.3-1.5,0.5-1.9c0.1-0.1,0.2-0.4,0.3-0.5c0.1-0.1,0.5-0.3,0.6-0.4c0.2-0.3,0.2-1,0.2-1.3
		c0-0.4-0.2-1.7-0.2-1.7l0,0c0,0,0.3-0.1,0.4,0c0.1,0.1,0.1,0.5,0.2,0.6c0.1,0.1,0.2,0.4,0.3,0.6c0.1,0.2,0.4,0.7,0.5,0.9
		c0,0.1,0.1,0.4,0,0.6c-0.1,0.1-0.4,0.1-0.4,0.2c0,0.1,0.2,0.1,0.2,0.2c0.1,0.1,0.1,0.5,0.2,0.6c0.1,0.1,0.3,0.3,0.3,0.5
		c0,0.1,0,0.4-0.1,0.5c-0.1,0.1-0.4,0.2-0.5,0.3c-0.1,0.1,0,0.4,0.1,0.6c0.1,0.3,0.6,0.7,0.7,0.9c0.2,0.3,0.5,1.1,0.5,1.1
		s-0.4,0.5-0.5,0.6c-0.2,0.3-0.5,0.9-0.4,1.3c0,0.3,0.6,0.8,0.7,1.2c0.2,0.3,0.3,1.1,0.5,1.4c0.1,0.2,0.3,0.6,0.3,0.6l-3.1,0.4
		c0,0-1.2,0-1.6,0.1c-0.2,0.1-0.5,0.3-0.6,0.5c-0.1,0.1,0,0.5,0,0.5l-1.4,0.1c0,0-0.2-0.8-0.2-1.1c0-0.3,0.5-0.7,0.5-1
		c0-0.2-0.3-0.5-0.5-0.6c-0.2-0.2-0.8-0.3-1-0.4C25.2,39,24,38.7,24,38.7z"/>
	<path class="st0" d="M28.6,48.4c0,0,0.3-0.4,0.3-0.5c0.1-0.2,0.4-0.6,0.3-0.8c0-0.1-0.4-0.2-0.5-0.3c-0.1-0.1-0.2-0.4-0.1-0.6
		c0.1-0.2,0.5-0.2,0.7-0.3c0.1,0,0.4-0.2,0.5-0.1c0.2,0.1,0.3,0.6,0.5,0.7c0.2,0.1,0.6-0.2,0.8-0.3c0.2-0.2,0.6-0.7,0.6-0.9
		c0-0.2-0.1-0.7-0.2-0.9c-0.1-0.2-0.4-0.3-0.5-0.5c-0.1-0.2-0.3-0.5-0.3-0.7c0-0.1,0.2-0.4,0.3-0.5c0-0.2-0.1-0.5-0.2-0.6
		c-0.1-0.1-0.6,0.1-0.7,0c-0.2-0.2,0-0.9,0-0.9l3.1-0.4c0,0,0.3-0.5,0.4-0.6c0.1-0.1,0.3-0.5,0.5-0.6c0.2-0.1,0.7-0.1,0.7-0.1
		s0.6,0.1,0.6,0.2c0.2,0.3-0.1,1-0.3,1.3c0,0.1-0.3,0.2-0.3,0.3c-0.3,0.7,0.1,2.4-0.1,3.1c0,0.1-0.1,0.3-0.2,0.4
		c-0.1,0.1-0.4,0.3-0.4,0.5c-0.1,0.3,0.1,1.1-0.1,1.3c-0.1,0.1-0.6-0.1-0.8,0.1c-0.3,0.3,0.1,1.3-0.1,1.6c-0.2,0.2-0.8,0.2-1.1,0.4
		c-0.1,0.1-0.1,0.3-0.2,0.3c-0.2,0.1-0.6,0.1-0.8,0c-0.1,0-0.3-0.3-0.5-0.3c-0.2,0-0.5,0.2-0.6,0.3C30,48.8,29.8,49,29.6,49
		c-0.1,0-0.4,0.1-0.4,0.1s0.1-0.4,0-0.5C29.1,48.5,28.6,48.4,28.6,48.4z"/>
	<path class="st0" d="M29.5,49.5c0.1,0.1-0.3,0.1-0.3,0.2c-0.1,0.1-0.1,0.4-0.1,0.4s0.3,0.1,0.5,0.1c0.3,0.1,1.1,0.1,1.4,0.1
		c0.3,0,0.8-0.4,1-0.4c0.5-0.1,1.5-0.1,1.8,0.2c0.3,0.3,0.1,1.3,0.4,1.7c0.1,0.1,0.4,0.1,0.4,0.2c0.1,0.1,0,0.5,0.1,0.6
		c0.3,0.3,1.4,0.3,1.8,0c0.2-0.2,0-0.9,0.1-1.1c0.1-0.1,0.3-0.4,0.5-0.4c0.3,0.1,0.2,1.1,0.5,1.2c0.1,0,0.3-0.2,0.4-0.3
		c0.2-0.1,0.5-0.2,0.6-0.1c0.2,0.1,0.3,0.4,0.4,0.6c0.2,0.5,0.1,1.7,0.1,2.2c0,0.2-0.1,0.6,0,0.8c0.1,0.2,0.4,0.4,0.6,0.5
		c0.3,0.1,1.2,0,1.2,0s0.9,0,1.1,0.1c0.2,0.2,0.1,0.8,0.3,1c0.1,0.1,0.4,0.2,0.5,0.2c0.2-0.1,0.2-0.5,0.3-0.6
		c0.2-0.1,0.6-0.3,0.8-0.2c0.1,0,0.1,0.3,0.1,0.4c0.1,0.2,0.6,0.2,0.8,0.4c0.2,0.2,0.1,0.8,0.2,1.1c0.1,0.2,0.3,0.4,0.4,0.5
		c0.2,0.1,0.8,0.1,1.1,0c0.1-0.1,0.2-0.5,0.3-0.6c0-0.3,0-1-0.2-1.2c-0.1-0.1-0.5,0-0.7-0.1c-0.1-0.1-0.4-0.3-0.4-0.4
		c-0.3-0.7,0-2.3,0.3-3c0.1-0.2,0.2-0.6,0.4-0.7c0.2-0.1,0.6-0.2,0.8-0.3c0.1-0.1,0.2-0.6,0.2-0.6s0.1-0.4,0.1-0.5
		c0-0.2,0-0.5-0.1-0.7c0-0.2-0.2-0.5-0.2-0.6c0-0.1-0.2-0.4-0.2-0.5c0-0.2,0.1-0.7,0.1-0.9c0-0.2-0.3-0.7-0.3-0.7S46,47.8,46,47.7
		c-0.1-0.3,0.2-1.1,0.2-1.1s-0.5,0.2-0.6,0.1c-0.1-0.1-0.1-0.5,0-0.6c0-0.1,0.3-0.2,0.4-0.3c0.1-0.2-0.2-0.5-0.1-0.6
		c0.1-0.2,0.6-0.3,0.6-0.3s-0.1-1.9,0.3-2.4c0.2-0.2,0.8-0.3,1-0.4c0.2-0.1,0.5-0.2,0.6-0.3c0.1-0.1,0.1-0.5,0-0.6
		c-0.1-0.1-0.5,0-0.6-0.1c-0.1-0.1,0-0.4,0-0.5c0-0.3-0.2-1.2-0.2-1.2s0-0.1,0-0.2c-0.1-0.1-0.5-0.1-0.6-0.2
		c-0.1-0.1-0.2-0.4-0.3-0.5c-0.5-0.3-1.8,0.1-2.3-0.2c-0.1-0.1-0.2-0.5-0.4-0.6c-0.1-0.1-0.4-0.1-0.6,0c-0.3,0-0.9,0.2-1.2,0.3
		c-0.2,0-0.7-0.3-0.9-0.1c-0.1,0.1,0,0.3-0.1,0.4c-0.4,0.3-1.7-0.1-2.1,0.2c-0.1,0.1,0,0.4-0.1,0.4c-0.3,0.3-1.3,0.4-1.7,0.2
		c-0.2-0.1-0.2-0.6-0.3-0.7c-0.1-0.1-0.5-0.3-0.6-0.3c-0.2,0-0.3,0.4-0.4,0.6c-0.1,0.1-0.4,0.2-0.5,0.3C35.2,39,35,39.3,35,39.3
		s0.6,0.1,0.6,0.2c0.2,0.3-0.1,1-0.3,1.3c0,0.1-0.3,0.2-0.3,0.3c-0.3,0.7,0.1,2.4-0.1,3.1c0,0.1-0.1,0.3-0.2,0.4
		c-0.1,0.1-0.4,0.3-0.4,0.5c-0.1,0.3,0.1,1.1-0.1,1.3c-0.1,0.1-0.6-0.1-0.8,0.1c-0.3,0.3,0.1,1.3-0.1,1.6c-0.2,0.2-0.8,0.2-1.1,0.4
		c-0.1,0.1-0.1,0.3-0.2,0.3c-0.2,0.1-0.6,0.1-0.8,0c-0.1,0-0.3-0.3-0.5-0.3c-0.2,0-0.5,0.2-0.6,0.3C30,48.8,29.8,49,29.6,49
		c-0.1,0-0.4,0.1-0.4,0.1s0.2,0.3,0.2,0.3C29.5,49.5,29.5,49.5,29.5,49.5z"/>
	<path class="st0" d="M29.1,50.2c0,0,0.3,0.1,0.5,0.1c0.3,0.1,1.1,0.1,1.4,0.1c0.3,0,0.8-0.4,1-0.4c0.5-0.1,1.5-0.1,1.8,0.2
		c0.3,0.3,0.1,1.3,0.4,1.7c0.1,0.1,0.4,0.1,0.4,0.2c0.1,0.1,0,0.5,0.1,0.6c0.3,0.3,1.4,0.3,1.8,0c0.2-0.2,0-0.9,0.1-1.1
		c0.1-0.1,0.3-0.4,0.5-0.4c0.3,0.1,0.2,1.1,0.5,1.2c0.1,0,0.3-0.2,0.4-0.3c0.2-0.1,0.5-0.2,0.6-0.1c0.2,0.1,0.3,0.4,0.4,0.6
		c0.2,0.5,0.1,1.7,0.1,2.2c0,0.2-0.1,0.6,0,0.8c0.1,0.2,0.4,0.4,0.6,0.5c0.3,0.1,1.2,0,1.2,0s0.3,1.9-0.1,2.3
		c-0.2,0.2-0.7,0.1-0.9,0c-0.1-0.1-0.2-0.5-0.3-0.6c-0.1,0-0.3,0-0.4,0c-0.1,0.1,0.1,0.5,0,0.6c-0.1,0.1-0.5,0-0.6,0.1
		c-0.4,0.5-0.1,2,0,2.6c0,0.2,0,0.7,0.1,0.9c0.1,0.3,0.7,0.7,0.8,1c0,0.1,0,0.5,0,0.5l-1.1,0.5c0,0-0.6-0.1-0.8-0.1
		c-0.5-0.1-1.6,0-2.1-0.3c-0.1-0.1-0.2-0.5-0.3-0.6c-0.6-0.3-1.9,0.1-2.5,0.1c-0.4,0-1.3-0.1-1.8-0.2c-0.3-0.1-0.7-0.5-1-0.5
		c-0.3,0-1,0.4-1,0.4s-0.1-1.3,0-1.7c0.1-0.5,0.9-1.4,1.1-1.9c0.2-0.3,0.4-1,0.6-1.3c0-0.1,0-0.3,0.1-0.3c0.1-0.1,0.4,0,0.5-0.1
		c0.2-0.2,0.3-0.7,0.2-1c-0.1-0.3-0.5-0.8-0.6-1.1c-0.1-0.3-0.2-1-0.2-1.3c-0.1-0.4,0-1.1-0.2-1.5c-0.1-0.1-0.4-0.2-0.5-0.3
		c-0.2-0.3,0.3-1.3,0-1.5c-0.1-0.1-0.5,0.1-0.6,0C28.8,50.6,29.1,50.2,29.1,50.2z"/>
	<path class="st0" d="M30.3,40.9c0,0-1.2,0-1.6,0.1c-0.2,0.1-0.5,0.3-0.6,0.5c-0.1,0.1,0,0.5,0,0.5s-0.1,0.6-0.3,0.7
		c-0.2,0.2-0.8,0.2-1,0.1c-0.1,0-0.3-0.3-0.3-0.3s0.2,1,0,1.3c-0.1,0.2-0.6,0.2-0.8,0.3c-0.1,0.1-0.2,0.2-0.2,0.3
		c0,0.1,0.4,0.1,0.5,0.2c0.1,0.2-0.1,0.7,0,0.9c0.2,0.4,0.9,0.8,1.2,1.2c0.3,0.3,0.7,0.8,0.9,1.1c0.1,0.1,0.4,0.4,0.4,0.4
		s0.3-0.4,0.3-0.5c0.1-0.2,0.4-0.6,0.3-0.8c0-0.1-0.4-0.2-0.5-0.3c-0.1-0.1-0.2-0.4-0.1-0.6c0.1-0.2,0.5-0.2,0.7-0.3
		c0.1,0,0.4-0.2,0.5-0.1c0.2,0.1,0.3,0.6,0.5,0.7c0.2,0.1,0.6-0.2,0.8-0.3c0.2-0.2,0.6-0.7,0.6-0.9c0-0.2-0.1-0.7-0.2-0.9
		c-0.1-0.2-0.4-0.3-0.5-0.5c-0.1-0.2-0.3-0.5-0.3-0.7c0-0.1,0.2-0.4,0.3-0.5c0-0.2-0.1-0.5-0.2-0.6c-0.1-0.1-0.6,0.1-0.7,0
		C30.1,41.7,30.3,40.9,30.3,40.9z"/>
	<path class="st0" d="M28.1,42l-1.4,0.1l-0.1,0.4c0,0,0.2,0.3,0.3,0.3c0.2,0.1,0.8,0.1,1-0.1C28,42.7,28.1,42,28.1,42z"/>
	<path class="st0" d="M31.9,17.7c0,0,0.1,0.4,0.1,0.6c0,0.1,0.2,0.3,0.2,0.4c0.1,0.3,0.4,0.8,0.4,1.1c0.2,1.3,0.5,4.3-0.3,5.4
		c-0.1,0.1-0.5,0.1-0.7,0.2c-0.2,0.1-0.3,0.5-0.4,0.6c-0.1,0.1-0.5,0.3-0.6,0.4c-0.1,0.1-0.3,0.4-0.4,0.5c-0.1,0.2,0,1,0,1
		s0.3-0.1,0.4,0c0.1,0.1,0.1,0.5,0.2,0.6c0.1,0.1,0.2,0.4,0.3,0.6c0.1,0.2,0.4,0.7,0.5,0.9c0,0.1,0.1,0.4,0,0.6
		c-0.1,0.1-0.4,0.1-0.4,0.2c0,0.1,0.2,0.1,0.2,0.2c0.1,0.1,0.1,0.5,0.2,0.6c0.1,0.1,0.3,0.3,0.3,0.5c0,0.1,0,0.4-0.1,0.5
		c-0.1,0.1-0.4,0.2-0.5,0.3c-0.1,0.1,0,0.4,0.1,0.6c0.1,0.3,0.6,0.7,0.7,0.9c0.2,0.3,0.5,1.1,0.5,1.1s0.4-0.3,0.6-0.3
		c0.2,0,0.7,0.2,0.9,0.1c0.2-0.1,0.2-0.5,0.3-0.6c0.2-0.2,0.8,0,1.1-0.1c0.2-0.1,0.3-0.6,0.5-0.7c0.2-0.1,0.8-0.1,0.9-0.2
		c0.2-0.1,0.2-0.6,0.3-0.7c0.1-0.1,0.5-0.2,0.6-0.3c0.2-0.2,0.3-0.6,0.4-0.8c0.1-0.2,0.5-0.5,0.6-0.6c0.1-0.1,0.4-0.1,0.5-0.2
		c0.1-0.1,0.2-0.2,0.2-0.3c0-0.1,0-0.4,0-0.5c-0.1-0.1-0.4-0.1-0.4-0.2c-0.1-0.2,0-0.6-0.2-0.8c-0.1-0.2-0.6-0.1-0.7-0.3
		c-0.1-0.1,0-0.5,0.1-0.6c0.1-0.1,0.6,0.1,0.7,0c0.2-0.2,0.2-0.8,0.3-1c0.1-0.3,0.4-0.9,0.6-1.1c0.1-0.1,0.5-0.1,0.6-0.2
		c0.4-0.6,0.1-2.9,0.1-2.9s-0.5,0-0.7-0.1c-0.5-0.2-1.2-1-1.6-1.3c-0.2-0.1-0.5-0.3-0.7-0.4c-0.4-0.2-1.2-0.4-1.5-0.7
		c-0.2-0.2-0.3-0.8-0.5-0.9c-0.4-0.2-1.4,0-1.7-0.3c-0.2-0.1-0.2-0.7-0.3-0.9c-0.2-0.2-0.7-0.1-0.9-0.3c-0.1-0.1,0-0.3-0.1-0.4
		C32.6,17.7,31.9,17.7,31.9,17.7z"/>
	<path class="st0" d="M43.8,37.8c-0.1,0.1-0.4-0.1-0.6,0c-0.3,0-0.9,0.2-1.2,0.3c-0.2,0-0.7-0.3-0.9-0.1c-0.1,0.1,0,0.3-0.1,0.4
		c-0.4,0.3-1.7-0.1-2.1,0.2c-0.1,0.1,0,0.4-0.1,0.4c-0.3,0.3-1.3,0.4-1.7,0.2c-0.2-0.1-0.2-0.6-0.3-0.7c-0.1-0.1-0.5-0.3-0.6-0.3
		c-0.2,0-0.3,0.4-0.4,0.6c-0.1,0.1-0.4,0.2-0.5,0.3C35.2,39,35,39.3,35,39.3s-0.6,0-0.7,0.1c-0.2,0.1-0.4,0.4-0.5,0.6
		c-0.1,0.1-0.4,0.6-0.4,0.6S33.1,40.1,33,40c-0.2-0.3-0.3-1.1-0.5-1.4c-0.1-0.3-0.7-0.8-0.7-1.2c0-0.3,0.3-1,0.4-1.3
		c0.1-0.2,0.5-0.6,0.5-0.6s0.4-0.3,0.6-0.3c0.2,0,0.7,0.2,0.9,0.1c0.2-0.1,0.2-0.5,0.3-0.6c0.2-0.2,0.8,0,1.1-0.1
		c0.2-0.1,0.3-0.6,0.5-0.7c0.2-0.1,0.8-0.1,0.9-0.2c0.2-0.1,0.2-0.6,0.3-0.7c0.1-0.1,0.5-0.2,0.6-0.3c0.2-0.2,0.3-0.6,0.4-0.8
		c0.1-0.2,0.5-0.5,0.6-0.6c0.1-0.1,0.4-0.2,0.5-0.2c0.2,0.1,0.4,0.5,0.5,0.7c0.1,0.2,0.4,0.7,0.5,1c0,0.2-0.2,0.7-0.1,0.9
		c0.1,0.1,0.4,0.1,0.4,0.2c0.1,0.1,0,0.5,0.1,0.6c0.1,0.1,0.5-0.2,0.7-0.1c0.2,0.1,0.1,0.8,0.3,0.9c0.2,0.2,0.7,0,0.9,0.2
		c0.2,0.2,0,0.9,0.2,1.1c0.1,0.1,0.4,0.1,0.6,0.2c0.1,0.1,0.2,0.3,0.3,0.4c0,0.1,0.2,0.2,0.2,0.3C43.9,37.5,43.9,37.7,43.8,37.8z"/>
	<path class="st0" d="M46.8,60.8c0,0-0.2,0.5-0.4,0.6c-0.2,0.1-0.7,0-0.9,0.1c-0.1,0.1,0,0.5-0.1,0.7c-0.1,0.1-0.3,0.2-0.4,0.3
		c-0.1,0.1-0.4,0-0.5,0.1c-0.1,0.1,0,0.6-0.1,0.7c-0.1,0.1-0.4,0.2-0.6,0.2c-0.2,0-0.7,0-0.9,0c-0.2,0-0.6,0.2-0.6,0.2
		s0.3,1.1,0.4,1.5c0,0.2,0,0.6,0.1,0.8c0.1,0.1,0.5,0.1,0.6,0.3c0.1,0.2,0.1,0.7,0.2,0.8c0.1,0.1,0.5-0.1,0.6,0
		c0.2,0.2,0.1,0.9,0.3,1.1c0.1,0.1,0.3,0.1,0.4,0.1c0.3,0.1,1,0.4,1,0.4s0.5,0.2,0.6,0.3c0.1,0.1,0.2,0.3,0.3,0.3
		c0.2,0.1,1.1,0,1.1,0s0.1-0.6,0.2-0.8c0.1-0.1,0.5-0.2,0.6-0.3c0.2-0.3-0.2-1,0-1.3c0.1-0.2,0.5-0.3,0.6-0.4
		c0.1-0.1,0.3-0.4,0.3-0.5c0-0.2-0.3-0.7-0.4-0.9c0-0.2-0.1-0.5,0-0.7c0-0.4,0.4-1,0.3-1.4c0-0.3-0.3-0.8-0.5-1
		c-0.3-0.2-1.1,0-1.4-0.3c-0.2-0.1-0.3-0.6-0.4-0.8C47.1,60.9,46.8,60.8,46.8,60.8z"/>
	<path class="st0" d="M56,48.4c0,0-1.2-0.5-1.5-0.9c-0.1-0.2,0-0.7-0.1-0.8c-0.2-0.2-0.8-0.2-1-0.3c-0.6-0.3-1.4-1.4-2-1.7
		c-0.2-0.1-0.6,0.1-0.8,0c-0.1-0.1-0.2-0.5-0.3-0.6c0-0.3,0.1-0.8,0.2-1.1c0.1-0.3,0.5-0.8,0.6-1.2c0.1-0.5,0.1-1.4,0-1.9
		c-0.1-0.3-0.6-1-0.6-1l1.3-1c0,0,0.8,0.1,1,0.2c0.3,0.1,0.7,0.4,0.9,0.7c0.1,0.1,0,0.6,0.1,0.7c0.4,0.3,1.8,0.2,2.1-0.2
		c0.1-0.1-0.1-0.3,0-0.4c0.2-0.2,1-0.2,1.3-0.1c0.1,0,0.2,0.3,0.3,0.4c0.1,0.1,0.4,0.3,0.4,0.3s-0.4,0.3-0.5,0.5
		c-0.1,0.1-0.3,0.5-0.3,0.6c-0.2,1.1-0.3,3.4,0.2,4.3c0.1,0.1,0.4,0.3,0.4,0.3s-0.3,0.3-0.4,0.4c-0.1,0.2-0.2,0.5-0.3,0.7
		c-0.1,0.2-0.6,0.4-0.7,0.6c-0.1,0.1-0.1,0.5-0.2,0.7C56.3,47.9,56,48.4,56,48.4z"/>
	<path class="st0" d="M58.2,39.7c0,0-0.3-0.2-0.4-0.3c-0.1-0.1-0.2-0.3-0.3-0.4c-0.3-0.1-1.1-0.2-1.3,0.1c-0.1,0.1,0.1,0.3,0,0.4
		c-0.4,0.4-1.7,0.5-2.1,0.2c-0.1-0.1,0-0.5-0.1-0.7c-0.1-0.2-0.6-0.6-0.9-0.7c-0.2-0.1-1-0.2-1-0.2s0.1-0.5,0.1-0.6
		c0-0.2-0.3-0.6-0.5-0.8c-0.1-0.1-0.3-0.2-0.3-0.3c-0.1-0.1-0.4-0.2-0.5-0.4c-0.1-0.2,0.1-0.6,0-0.8c-0.1-0.1-0.4,0-0.5-0.1
		c-0.2-0.2-0.7-0.7-0.6-1c0.1-0.2,0.8,0.1,1-0.1c0.4-0.4-0.2-1.8,0.3-2.2c0.1-0.1,0.7,0.1,0.8,0c0.4-0.4-0.2-1.8,0.2-2.3
		c0.2-0.2,1,0,1.2-0.2c0.4-0.5,0.3-2.2-0.1-2.7c-0.1-0.1-0.6,0-0.7-0.2c-0.1-0.2-0.1-0.6,0-0.8c0.2-0.2,0.7,0.2,0.9,0
		c0.1-0.1,0-0.6-0.1-0.8c-0.1-0.3-0.3-0.7-0.4-1c-0.1-0.3-0.1-1-0.1-1.3c0.1-0.5,0.7-1.9,0.7-1.9s0.3,0.6,0.4,0.8
		c0.1,0.2,0.4,0.7,0.5,0.9c0.1,0.2,0.4,0.4,0.5,0.6c0.2,0.3,0.4,0.9,0.6,1.2c0.1,0.2,0.3,0.6,0.4,0.8c0.1,0.2-0.1,0.7,0.1,0.9
		c0.2,0.2,1,0.1,1.2,0.3c0.3,0.2,0.4,0.9,0.5,1.2c0.2,0.4,0.7,1.1,0.8,1.5c0,0.2-0.3,0.7-0.3,0.7s-0.5,1.5-0.2,1.9
		c0.2,0.2,1.1,0.2,1.1,0.2s0.6,0.5,0.8,0.7c0.4,0.4,1.1,1.4,1.6,1.6c0.3,0.1,0.9-0.2,1.2-0.1c0.3,0.1,1,0.6,0.9,0.9
		c0,0.3-0.9,0.6-1,0.9c-0.2,0.3,0,1.1-0.2,1.4c-0.2,0.3-0.7,0.8-1,1c-0.3,0.2-1,0.3-1.3,0.3c-0.3,0-0.8-0.1-1,0
		C58.7,38.8,58.2,39.7,58.2,39.7"/>
	<path class="st0" d="M59,31.9c0,0,0.6,0.5,0.8,0.7c0.4,0.4,1.1,1.4,1.6,1.6c0.3,0.1,0.9-0.2,1.2-0.1c0.3,0.1,1,0.6,0.9,0.9
		c0,0.3-0.9,0.6-1,0.9c-0.2,0.3,0,1.1-0.2,1.4c-0.2,0.3-0.7,0.8-1,1c-0.3,0.2-1,0.3-1.3,0.3c-0.3,0-0.8-0.1-1,0
		c-0.3,0.1-0.8,1-0.8,1s-0.4,0.3-0.5,0.5c-0.1,0.1-0.3,0.5-0.3,0.6c-0.2,1.1-0.3,3.4,0.2,4.3c0.1,0.1,0.4,0.3,0.4,0.3s0.6-0.7,0.7-1
		c0.2-0.2,0.4-0.8,0.6-1c0.2-0.2,0.9-0.6,1.1-0.8c0.5-0.4,1.4-1.3,1.9-1.7c0.5-0.4,1.4-1.3,1.8-1.8c0.3-0.4,0.9-1.1,1.1-1.5
		c0.2-0.4,0.3-1.4,0.4-1.9c0.1-0.4,0.4-1.1,0.6-1.5c0.2-0.3,0.7-0.8,0.9-1.1c0.1-0.3,0.2-0.9,0.3-1.2c0.1-0.2,0.5-0.4,0.5-0.6
		c0-0.2-0.5-0.4-0.6-0.6c-0.2-0.2-0.4-1-0.8-1c-0.3,0-0.7,0.8-1,0.9c-0.3,0.1-0.8,0.1-1.1,0.2c-0.2,0.1-0.5,0.3-0.6,0.4
		c-0.2,0.1-0.5,0.4-0.7,0.4c-0.5,0.1-1.5,0-2-0.1c-0.3-0.1-1.2-0.4-1.2-0.4L59,31.9z"/>
	<path class="st0" d="M46.4,44.8c0,0-0.5,0.1-0.6,0.3c-0.1,0.1,0.2,0.5,0.1,0.6c0,0.1-0.3,0.2-0.4,0.3c-0.1,0.1-0.1,0.5,0,0.6
		c0.1,0.1,0.6-0.1,0.6-0.1s0.6,0.1,0.8,0c0.1-0.1,0.3-0.4,0.3-0.4l-0.2-1.1L46.4,44.8z"/>
	<path class="st0" d="M46.9,47.9c0.2,0,0.7,0.1,0.8-0.1c0.2-0.2,0-0.8-0.1-1.1c0-0.1-0.3-0.5-0.3-0.5s-0.2,0.4-0.3,0.4
		c-0.2,0.1-0.8,0-0.8,0s-0.3,0.8-0.2,1.1c0,0.1,0.4,0.3,0.4,0.3S46.7,47.9,46.9,47.9z"/>
	<path class="st0" d="M49.3,75l-0.8-0.3c0,0-0.1-0.6-0.2-0.8c-0.1-0.2-0.4-0.7-0.4-0.7s0-0.7,0-1c0-0.3,0-0.9,0-1.2
		c0-0.4,0-1.7,0-1.7s0.1-0.6,0.2-0.8c0.1-0.1,0.5-0.2,0.6-0.3c0.2-0.3-0.2-1,0-1.3c0.1-0.2,0.5-0.3,0.6-0.4c0.1-0.1,0.3-0.4,0.3-0.5
		c0-0.2-0.3-0.7-0.4-0.9c0-0.2-0.1-0.5,0-0.7c0-0.4,0.4-1,0.3-1.4c0-0.3-0.3-0.8-0.5-1c-0.3-0.2-1.1,0-1.4-0.3
		c-0.2-0.1-0.3-0.6-0.4-0.8c-0.1-0.1-0.4-0.1-0.4-0.1s1.3-0.1,1.6-0.3c0.1-0.1,0.1-0.5,0.3-0.6c0.2-0.2,0.8-0.4,0.8-0.4
		s0.5,0.3,0.7,0.3c0.2,0.1,0.7,0.1,0.8,0.2c0.1,0.2,0,0.6,0,0.8c-0.1,0.3-0.4,0.7-0.3,1c0,0.2,0.3,0.4,0.4,0.5
		c0.2,0.1,0.5,0,0.7-0.1c0.2-0.1,0.2-0.6,0.3-0.7c0.1-0.2,0.6-0.3,0.6-0.5c0.1-0.2-0.1-0.7-0.2-0.9c0-0.2-0.2-0.5-0.3-0.7
		c-0.1-0.2-0.3-0.4-0.4-0.6c-0.1-0.1-0.2-0.3-0.3-0.3c-0.1-0.1-0.4-0.4-0.4-0.5c0-0.2,0.1-0.5,0.1-0.7c0-0.2,0.2-0.6,0.2-0.9
		c0-0.2-0.2-1-0.2-1s0.7,0.5,0.8,0.7c0.1,0.1,0.1,0.5,0.2,0.6c0.4,0.3,1.6,0.4,2,0.2c0.1-0.1,0.1-0.5,0.2-0.6c0.2-0.2,0.9,0.1,1.1,0
		c0.1-0.1,0.2-0.4,0.3-0.4c0.2-0.2,1.2-0.3,1.2-0.3s0,1.5,0,2c0,0.9,0.3,2.8,0,3.7c-0.1,0.2-0.5,0.5-0.6,0.7
		c-0.1,0.1-0.1,0.5-0.2,0.6c-0.3,0.3-1.3,0-1.6,0.3c-0.1,0.1,0,0.4-0.1,0.5c-0.1,0.1-0.6,0.2-0.7,0.3c-0.1,0.1-0.3,0.2-0.3,0.3
		c-0.1,0.3,0,1-0.2,1.2c-0.1,0.2-0.7,0.1-0.9,0.2c-0.2,0.1-0.4,0.3-0.6,0.4c-0.1,0.1-0.2,0.4-0.3,0.6c-0.1,0.5-0.3,1.7-0.1,2.1
		c0,0.1,0.2,0.1,0.3,0.2c0.2,0.4,0,1.5,0,2c0,0.2,0.2,0.7,0.1,0.9c0,0.1-0.3,0.1-0.3,0.1c-0.1,0.1,0,0.4-0.1,0.5
		c-0.1,0.1-0.6-0.1-0.8,0c-0.1,0-0.1,0.3-0.2,0.3c-0.2,0.1-0.8-0.1-0.9,0.1c-0.1,0.1-0.1,0.6-0.1,0.8c0,0.2,0,0.5,0,0.7
		c0,0.2,0,0.5,0,0.7C49.4,74.6,49.3,75,49.3,75z"/>
	<path class="st0" d="M57,55.4c0,0-0.9,0.1-1.2,0.3c-0.1,0.1-0.1,0.4-0.3,0.4c-0.2,0.1-0.9-0.2-1.1,0c-0.1,0.1-0.1,0.5-0.2,0.6
		c-0.4,0.3-1.6,0.1-2-0.2c-0.1-0.1-0.1-0.4-0.2-0.6c-0.2-0.2-0.8-0.7-0.8-0.7s-0.6-0.4-0.8-0.5c-0.1-0.1-0.5-0.2-0.5-0.2
		s-0.4-0.8-0.6-0.9c-0.2-0.2-0.7-0.3-0.9-0.5c-0.2-0.1-0.5-0.5-0.6-0.7c-0.1-0.1-0.1-0.5-0.2-0.6c-0.1-0.1-0.7,0-0.7,0
		s0.1-0.4,0.1-0.5c0-0.2,0-0.5-0.1-0.7c0-0.2-0.2-0.5-0.2-0.6c0-0.1-0.2-0.4-0.2-0.5c0-0.2,0.1-0.7,0.1-0.9c0-0.2-0.3-0.7-0.3-0.7
		s0.4-0.1,0.5-0.2c0.2,0,0.7,0.1,0.8-0.1c0.2-0.2,0-0.8-0.1-1.1c0-0.1-0.3-0.5-0.3-0.5l-0.2-1.1c0,0,0.4-0.3,0.5-0.3
		c0.3-0.1,0.8,0.1,1.1,0.1c0.5,0,1.5-0.1,2-0.1c0.2,0,0.6-0.1,0.8,0c0.6,0.2,1.4,1.4,2,1.7c0.2,0.1,0.8,0.1,1,0.3
		c0.1,0.2,0,0.6,0.1,0.8c0.2,0.4,1.5,0.9,1.5,0.9s0,0.4,0,0.6c0,0.2,0.1,0.6,0,0.7c-0.1,0.1-0.4,0.3-0.4,0.4
		c-0.1,0.2-0.2,0.6-0.1,0.7c0.1,0.1,0.5,0,0.6,0.1c0.2,0.2-0.1,0.8-0.1,1.1c0,0.3,0.2,0.9,0.3,1.2c0,0.3-0.1,1,0,1.2
		c0.1,0.1,0.3,0.3,0.4,0.4C56.9,55,57,55.4,57,55.4z"/>
	<path class="st0" d="M50.6,39.1c0,0,0.5,0.7,0.6,1c0.1,0.4,0.1,1.4,0,1.9c-0.1,0.3-0.5,0.8-0.6,1.2c-0.1,0.3-0.2,0.8-0.2,1.1
		c0,0.2,0.3,0.6,0.3,0.6s-1.5,0.1-2,0.1c-0.3,0-0.8-0.1-1.1-0.1c-0.1,0-0.5,0.3-0.5,0.3l-0.7-0.3c0,0-0.1-1.9,0.3-2.4
		c0.2-0.2,0.8-0.3,1-0.4c0.2-0.1,0.5-0.2,0.6-0.3c0.1-0.1,0.1-0.5,0-0.6c-0.1-0.1-0.5,0-0.6-0.1c-0.1-0.1,0-0.4,0-0.5
		c0-0.3-0.2-1.2-0.2-1.2s0.8,0,1,0c0.2,0,0.7,0.1,1,0C49.7,39.4,50.6,39.1,50.6,39.1z"/>
	<path class="st0" d="M42.4,63.7c0,0,0.4-0.2,0.6-0.2c0.2,0,0.7,0,0.9,0c0.1,0,0.5-0.1,0.6-0.2c0.1-0.1,0-0.6,0.1-0.7
		c0.1-0.1,0.4-0.1,0.5-0.1c0.1,0,0.3-0.2,0.4-0.3c0.1-0.1,0-0.6,0.1-0.7c0.2-0.2,0.7,0,0.9-0.1c0.1-0.1,0.4-0.6,0.4-0.6
		s1.3-0.1,1.6-0.3c0.1-0.1,0.1-0.5,0.3-0.6c0.2-0.2,0.8-0.4,0.8-0.4s-0.1-1.4,0.1-1.8c0.1-0.2,0.5-0.3,0.6-0.5
		c0.1-0.3-0.2-0.9-0.3-1.2c0-0.3,0.1-1.4,0.1-1.4s-0.4-0.8-0.6-0.9c-0.2-0.2-0.7-0.3-0.9-0.5c-0.2-0.1-0.5-0.5-0.6-0.7
		c-0.1-0.1-0.1-0.5-0.2-0.6c-0.1-0.1-0.7,0-0.7,0s-0.1,0.5-0.2,0.6c-0.1,0.2-0.6,0.2-0.8,0.3c-0.1,0.1-0.3,0.5-0.4,0.7
		c-0.2,0.7-0.5,2.3-0.3,3c0.1,0.1,0.3,0.4,0.4,0.4c0.2,0.1,0.6,0,0.7,0.1c0.2,0.2,0.2,0.9,0.2,1.2c0,0.2-0.1,0.5-0.3,0.6
		c-0.2,0.2-0.8,0.2-1.1,0c-0.2-0.1-0.4-0.4-0.4-0.5c-0.1-0.2-0.1-0.8-0.2-1.1c-0.1-0.2-0.6-0.3-0.8-0.4c-0.1-0.1,0-0.3-0.1-0.4
		c-0.2-0.1-0.6,0-0.8,0.2c-0.1,0.1-0.1,0.5-0.3,0.6c-0.1,0-0.4-0.1-0.5-0.2c-0.2-0.2-0.1-0.9-0.3-1c-0.2-0.2-1.1-0.1-1.1-0.1
		s0.3,1.9-0.1,2.3c-0.2,0.2-0.7,0.1-0.9,0c-0.1-0.1-0.2-0.5-0.3-0.6c-0.1,0-0.3,0-0.4,0c-0.1,0.1,0.1,0.5,0,0.6
		c-0.1,0.1-0.5,0-0.6,0.1c-0.4,0.5-0.1,2,0,2.6c0,0.2,0,0.7,0.1,0.9c0.1,0.3,0.7,0.7,0.8,1c0,0.1,0,0.5,0,0.5s0.4,0.1,0.5,0.1
		C40.4,63.7,42.4,63.7,42.4,63.7z"/>
	<path class="st0" d="M64.9,56.8c-0.2,0.3,0.2,1.1,0,1.4c-0.1,0.1-0.3,0.1-0.4,0.2c-0.2,0.2,0.1,0.9-0.1,1.1c-0.1,0.1-0.5-0.1-0.6,0
		c-0.1,0-0.2,0.2-0.2,0.3c-0.1,0.2-0.1,0.5-0.2,0.6c-0.1,0.1-0.5,0.3-0.6,0.4c-0.1,0.1-0.1,0.5-0.2,0.6c-0.1,0.1-0.3,0-0.4-0.1
		c-0.1-0.1,0-0.5-0.1-0.6c-0.1-0.1-0.5-0.1-0.6,0c-0.1,0.1,0,0.4-0.1,0.5c-0.1,0.1-0.5,0.1-0.6,0.2c-0.1,0.2,0,0.7-0.2,0.9
		c-0.1,0.1-0.3,0-0.4,0.1c-0.4,0.6-0.3,2.3,0.2,2.8c0.1,0.1,0.2,0,0.3,0c0.1,0.1,0.1,0.6,0.1,0.8c0,0.1-0.3,0.2-0.3,0.3
		c-0.1,0.2-0.1,0.7-0.2,0.9c-0.1,0.1-0.4,0.1-0.5,0.2c-0.1,0.1,0,0.4-0.1,0.5c-0.1,0.1-0.5,0.1-0.6,0.2c-0.2,0.3-0.2,1.1,0,1.3
		c0.1,0.1,0.6-0.2,0.7,0c0.5,0.5-0.5,2.1,0,2.6c0.1,0.1,0.5-0.1,0.6,0c0.1,0.1,0.2,0.3,0.3,0.4c0.1,0.1,0.4,0.2,0.5,0.2
		c0.2,0,0.4-0.5,0.6-0.6c0.2-0.1,0.5,0,0.7-0.1c0.1-0.1,0.3-0.3,0.5-0.3c0.1-0.1,0.5-0.2,0.6-0.3c0.2-0.3,0-1,0.2-1.3
		c0.1-0.1,0.4-0.1,0.5-0.2c0.2-0.3-0.1-1.3,0.1-1.7c0-0.1,0.3-0.1,0.3-0.2c0.3-0.5-0.3-1.9,0-2.4c0.1-0.2,0.6-0.3,0.7-0.4
		c0.1-0.1,0.3-0.3,0.4-0.4c0.2-0.4-0.2-1.5,0-1.9c0.1-0.1,0.4-0.2,0.5-0.3c0.2-0.3-0.1-1.2,0.1-1.5c0.1-0.1,0.4,0.1,0.4,0
		c0.4-0.4,0.4-1.9,0.1-2.4c-0.1-0.2-0.5-0.2-0.6-0.3c-0.2-0.3,0.1-0.9,0-1.2c-0.1-0.2-0.4-0.4-0.6-0.4C65.3,56.6,65,56.7,64.9,56.8z
		"/>
	<path class="st0" d="M59,31.9c0,0-0.9,0.1-1.1-0.2c-0.3-0.4,0.2-1.9,0.2-1.9l1.9,1.2L59,31.9z"/>
	<path class="st0" d="M49.5,59.5c0,0-0.1-1.4,0.1-1.8c0.1-0.2,0.5-0.3,0.6-0.5c0.1-0.3-0.2-0.9-0.3-1.2c0-0.3,0.1-1.4,0.1-1.4
		s0.4,0.2,0.5,0.2c0.2,0.1,0.8,0.5,0.8,0.5s0.2,0.7,0.2,1c0,0.2-0.2,0.6-0.2,0.9c0,0.2-0.2,0.5-0.1,0.7c0,0.2,0.3,0.4,0.4,0.5
		c0.1,0.1,0.2,0.3,0.3,0.3c0.1,0.1,0.3,0.4,0.4,0.6c0.1,0.2,0.2,0.5,0.3,0.7c0.1,0.2,0.3,0.7,0.2,0.9c-0.1,0.2-0.5,0.3-0.6,0.5
		c-0.1,0.2-0.1,0.6-0.3,0.7c-0.1,0.1-0.5,0.2-0.7,0.1c-0.2-0.1-0.4-0.3-0.4-0.5c-0.1-0.3,0.3-0.7,0.3-1c0-0.2,0.2-0.6,0-0.8
		c-0.1-0.2-0.6-0.1-0.8-0.2C50,59.7,49.5,59.5,49.5,59.5z"/>
	<path class="st0" d="M28.6,62.8c0,0,0.7-0.4,1-0.4c0.3,0,0.8,0.4,1,0.5c0.4,0.1,1.3,0.2,1.8,0.2c0.6,0,2-0.4,2.5-0.1
		c0.1,0.1,0.2,0.5,0.3,0.6c0.4,0.3,1.6,0.2,2.1,0.3c0.2,0,0.8,0.1,0.8,0.1s-0.4,0.7-0.5,0.9c-0.2,0.8,0.4,2.7,0,3.5
		c-0.1,0.1-0.4,0.3-0.5,0.3c-0.1,0.1-0.4,0.1-0.5,0.2c-0.5,0.7,0.1,3.6,0.1,3.6s0.1,3-0.2,3.8c-0.1,0.2-0.4,0.5-0.6,0.6
		c-0.3,0.1-1,0-1.3-0.1c-0.2-0.1-0.2-0.8-0.5-0.8c-0.1,0-0.1,0.3-0.2,0.3c-0.2,0.1-0.7,0.1-0.7,0.1s-0.2-0.7-0.3-0.9
		c-0.1-0.2-0.3-0.5-0.5-0.6c-0.2-0.1-0.6,0-0.7-0.1c-0.2-0.3,0.1-1,0-1.4c0-0.4-0.3-1.1-0.3-1.5c0-0.3,0-0.8,0-1.1
		c0-0.3,0-1-0.1-1.4c-0.1-0.3-0.2-0.7-0.3-1c-0.1-0.2-0.3-0.5-0.3-0.7c-0.1-0.2-0.2-0.5-0.3-0.7c-0.1-0.3-0.5-0.9-0.6-1.2
		c-0.1-0.2-0.2-0.5-0.3-0.6c-0.2-0.3-0.7-0.7-0.8-1C28.5,63.8,28.6,62.8,28.6,62.8z"/>
	<path class="st0" d="M39.8,63.6c0.6,0.1,2.6,0.2,2.6,0.2s0.3,1.1,0.4,1.5c0,0.2,0,0.6,0.1,0.8c0.1,0.1,0.5,0.1,0.6,0.3
		c0.1,0.2,0.1,0.7,0.2,0.8c0.1,0.1,0.5-0.1,0.6,0c0.2,0.2,0.1,0.9,0.3,1.1c0.1,0.1,0.3,0.1,0.4,0.1c0.3,0.1,1,0.4,1,0.4
		s-0.2,0.5-0.3,0.6c-0.1,0.2-0.5,0.3-0.6,0.5c-0.2,0.1-0.4,0.5-0.6,0.6c-0.2,0.1-0.6,0.2-0.8,0.4c-0.2,0.2-0.1,0.8-0.3,1
		c-0.1,0.1-0.5,0-0.6,0.1c-0.2,0.1-0.3,0.5-0.4,0.6c-0.1,0.2-0.4,0.5-0.6,0.6c-0.2,0.1-0.7,0.1-0.9,0c-0.2,0-0.5-0.3-0.6-0.4
		c-0.1,0-0.4-0.1-0.6,0c-0.1,0.1-0.3,0.4-0.4,0.5c-0.1,0.1-0.1,0.5-0.2,0.6c-0.1,0.1-0.4,0.3-0.6,0.3c-0.3,0.1-1.1-0.1-1.3-0.3
		c-0.2-0.2-0.1-0.8-0.3-1c-0.1-0.1-0.4-0.4-0.4-0.4s-0.6-2.8-0.1-3.6c0.1-0.1,0.4-0.1,0.5-0.2c0.1-0.1,0.4-0.2,0.5-0.3
		c0.4-0.8-0.2-2.7,0-3.5c0.1-0.3,0.5-0.9,0.5-0.9l1.1-0.5C39.3,63.4,39.7,63.6,39.8,63.6z"/>
	<path class="st0" d="M47.9,69.3c0,0-0.8,0.1-1.1,0c-0.1,0-0.2-0.3-0.3-0.3c-0.1-0.1-0.6-0.3-0.6-0.3s-0.2,0.5-0.3,0.6
		c-0.1,0.2-0.5,0.3-0.6,0.5c-0.2,0.1-0.4,0.5-0.6,0.6c-0.2,0.1-0.6,0.2-0.8,0.4c-0.2,0.2-0.1,0.8-0.3,1c-0.1,0.1-0.5,0-0.6,0.1
		c-0.2,0.1-0.3,0.5-0.4,0.6c-0.1,0.2-0.4,0.5-0.6,0.6c-0.2,0.1-0.7,0.1-0.9,0c-0.2,0-0.5-0.3-0.6-0.4c-0.1,0-0.4-0.1-0.6,0
		c-0.1,0.1-0.3,0.4-0.4,0.5c-0.1,0.1-0.1,0.5-0.2,0.6c-0.1,0.1-0.4,0.3-0.6,0.3c-0.3,0.1-1.1-0.1-1.3-0.3c-0.2-0.2-0.1-0.8-0.3-1
		c-0.1-0.1-0.4-0.4-0.4-0.4s0.1,3-0.2,3.8c-0.1,0.2-0.4,0.5-0.6,0.6c-0.3,0.1-1,0-1.3-0.1c-0.2-0.1-0.2-0.8-0.5-0.8
		c-0.1,0-0.1,0.3-0.2,0.3c-0.2,0.1-0.7,0.1-0.7,0.1s0.1,0.3,0.1,0.5c0,0.3-0.2,0.8,0,1.1c0.1,0.2,0.6,0.1,0.7,0.3
		c0.2,0.3-0.2,1.1,0,1.4c0.1,0.1,0.4,0.1,0.5,0.2c0.1,0.1-0.1,0.3,0,0.4c0.1,0.1,0.4-0.1,0.5,0c0.1,0.2-0.1,0.7-0.2,0.9
		c-0.1,0.1-0.5,0.2-0.5,0.4c-0.1,0.7,1.2,1.9,1.8,2.3c0.3,0.1,0.9,0.2,1.2,0.1c0.2,0,0.5-0.3,0.7-0.4c0.2-0.2,0.3-0.7,0.5-0.8
		c0.5-0.2,1.6-0.2,2.1,0.1c0.1,0.1,0.1,0.3,0.2,0.4c0.3,0.1,0.8-0.4,1.1-0.5c0.1-0.1,0.4-0.3,0.5-0.4c0.3-0.1,1.1-0.1,1.5-0.2
		c0.2-0.1,0.6-0.3,0.8-0.5c0.3-0.3,0.4-1,0.7-1.3c0.2-0.2,0.7-0.4,0.9-0.6c0.3-0.3,1-0.8,1.2-1.2c0.1-0.2,0.1-0.8,0.2-1.1
		c0.1-0.2,0.1-0.8,0.3-1c0.1-0.1,0.6,0,0.8-0.1c0.2-0.2,0.6-1.1,0.6-1.1l-0.8-0.3c0,0-0.1-0.6-0.2-0.8c-0.1-0.2-0.4-0.7-0.4-0.7
		s0-0.7,0-1c0-0.3,0-0.9,0-1.2C47.9,70.6,47.9,69.3,47.9,69.3z"/>
	<path class="st0" d="M48.5,74.8c0,0-0.1-0.6-0.2-0.8c-0.1-0.2-0.4-0.7-0.4-0.7s-0.6,0.2-0.8,0.3C47,73.7,47,74,47,74.2
		c0,0.1,0,0.4,0.1,0.5c0.1,0.1,0.3,0.1,0.4,0.2c0.2,0.1,0.5,0.2,0.6,0.2C48.3,75,48.5,74.8,48.5,74.8z"/>
	<path class="st0" d="M43.9,76.6c-0.1,0.1-0.1,0.5-0.2,0.6c-0.1,0.1-0.5,0-0.6,0.1c-0.2,0.3-0.2,1.3,0,1.5c0.2,0.1,0.7-0.2,0.9-0.1
		c0.1,0,0.1,0.3,0.2,0.3c0.1,0,0.3,0,0.4,0c0.1-0.1,0.3-0.3,0.3-0.4c0.1-0.1,0.1-0.4,0.2-0.5c0.1-0.1,0.4,0.1,0.4,0
		c0.3-0.3,0.3-1.2,0-1.5c-0.2-0.2-0.7-0.1-0.9,0C44.5,76.5,44.1,76.5,43.9,76.6z"/>
</g>
</svg>
