<?xml version="1.0" encoding="utf-8"?>
<!-- Generator: Adobe Illustrator 22.0.1, SVG Export Plug-In . SVG Version: 6.00 Build 0)  -->
<svg version="1.1" id="Layer_1" xmlns="http://www.w3.org/2000/svg" xmlns:xlink="http://www.w3.org/1999/xlink" x="0px" y="0px"
	 viewBox="0 0 134.1 121.8" style="enable-background:new 0 0 134.1 121.8;" xml:space="preserve">
<style type="text/css">
	.st0{fill:rgba(0,59,77,1);}
</style>
<path class="st0" d="M125,89c-0.2,0-0.7,0.1-0.8,0.3c0,0.2,0.4,0.5,0.5,0.6c0.2,0.2,0.6,0.5,0.8,0.6c0.2,0.1,0.7,0.5,0.9,0.4
	c0.2-0.1,0.3-0.4,0.3-0.6c0-0.3-0.4-0.8-0.7-1C125.8,89.2,125.2,89,125,89z"/>
<path class="st0" d="M112.9,67.4c-0.3,0.3,0.5,1,0.7,1.4c0.2,0.4,0.5,1.4,0.9,1.4c0.4-0.1,0.5-1.3,0.3-1.7
	C114.6,67.9,113.3,67,112.9,67.4z"/>
<path class="st0" d="M105.2,74l-1.2-5c0,0,0.8,0.4,1.1,0.4c0.4,0.1,1.3-0.4,1.6-0.1c0.2,0.2-0.2,1.1,0,1.4c0.2,0.2,0.8,0.2,1,0.3
	c0.1,0.1,0.2,0.5,0.3,0.7c0.2,0.2,0.6,0.6,0.9,0.8c0.1,0.1,0.5,0.3,0.5,0.5c0.1,0.3-0.2,0.9-0.2,1.2c0.1,0.3,0.5,1,0.8,1.2
	c0.3,0.2,1.1,0.2,1.4,0.4c0.3,0.2,0.9,0.9,0.8,1.3c-0.1,0.4-1.3,0.4-1.5,0.3c-0.3-0.2-1.2-0.2-1.5-0.4c-0.4-0.2-1-1-1.3-1.4
	c-0.3-0.3-0.6-1.1-0.9-1.3C106.4,74.1,105.2,74,105.2,74z"/>
<path class="st0" d="M110.8,71.5c-0.1,0.1-0.3,0.6-0.2,0.8c0.2,0.2,0.8,0.3,1.1,0.3c0.3,0,0.9-0.4,1.1-0.6c0.2-0.2,0.5-0.5,0.5-0.8
	c0-0.2,0.1-0.6-0.1-0.8c-0.2-0.1-0.7-0.1-0.9,0.1c-0.1,0.1,0,0.6-0.2,0.7C112,71.4,111,71.3,110.8,71.5z"/>
<path class="st0" d="M115.9,72.1c0.4,0,0.7-0.2,0.7-0.5c0-0.3-0.3-0.5-0.7-0.5c-0.4,0-0.7,0.2-0.7,0.5
	C115.1,71.9,115.5,72.1,115.9,72.1z"/>
<path class="st0" d="M93.4,78.8c0.1,0.2,0.4,0.7,0.3,0.9c-0.3,0.4-1.5,0-1.9,0.3c-0.3,0.1-0.6,0.7-0.8,0.9C91,81,91,81.3,91,81.4
	c0,0.3,0,0.8-0.2,1c-0.2,0.2-0.9,0.4-1.2,0.3c-0.2-0.1-0.3-0.7-0.4-0.9c-0.1-0.2-0.4-0.6-0.6-0.7c-0.4-0.1-1.3,0.1-1.5,0.3
	c-0.2,0.2-0.1,0.7-0.3,0.9c-0.1,0.2-0.6,0.5-0.8,0.7c-0.2,0.1-0.7,0.3-0.9,0.4c-0.2,0.2-0.4,0.5-0.5,0.8c-0.1,0.2,0.1,0.6,0,0.8
	c-0.1,0.1-0.4,0.1-0.5,0c-0.2-0.1-0.3-0.8-0.5-0.8c-0.4,0.1-0.1,1.3-0.3,1.7c-0.2,0.5-1,1.4-1.5,1.8c-0.3,0.2-1,0.5-1.4,0.6
	c-0.9,0.3-2.7,0.6-3.5,1c-0.5,0.3-1,1.3-1.5,1.5c-0.4,0.2-1.4-0.2-1.7,0.2c-0.5,0.6-0.1,2.5,0.3,3.2c0.1,0.2,0.6,0.3,0.7,0.5
	c0.1,0.2,0,0.6-0.2,0.7c-0.3,0.1-0.7-0.8-1-0.7c-0.2,0.1-0.1,0.8-0.1,1c0,0.5,0.3,1.4,0.5,1.8c0.1,0.3,0.5,0.8,0.6,1.1
	c0.1,0.3,0,1,0,1.3c0,0.2-0.1,0.7,0,0.9c0.1,0.1,0.4,0.1,0.5,0.3c0.3,0.4,0.4,1.6,0.1,2c-0.1,0.1-0.5,0-0.6,0.1
	c-0.2,0.1-0.2,0.6-0.3,0.8c-0.1,0.2-0.4,0.4-0.4,0.6c0.1,0.7,1.4,1.5,2.1,1.8c0.2,0.1,0.7,0.3,0.9,0.2c0.1-0.1,0.3-0.4,0.3-0.5
	c0.1-0.2,0.2-0.6,0.4-0.7c0.4-0.2,1.2,0.2,1.6,0.2c0.9,0,2.7-0.1,3.4-0.5c0.2-0.2,0.5-0.7,0.7-0.9c0.2-0.2,0.7-0.7,1-0.8
	c0.7-0.3,2.4,0,3.2-0.3c0.2-0.1,0.4-0.5,0.6-0.6c0.3-0.1,1,0,1.3-0.1c0.2,0,0.7-0.3,0.9-0.2c0.1,0.1,0,0.4,0.1,0.5
	c0.3,0.2,1.1-0.1,1.5,0.1c0.2,0.1,0.6,0.6,0.8,0.8c0.2,0.3,0.7,0.9,0.8,1.2c0.1,0.3-0.2,1.1,0.1,1.3c0.1,0.1,0.5,0,0.6-0.1
	c0.2-0.1,0.6-0.4,0.8-0.5c0.2-0.2,0.6-0.6,0.8-0.9c0.2-0.2,0.3-1.1,0.6-1c0.2,0,0.1,0.6,0.1,0.9c0,0.2-0.2,0.7-0.3,0.9
	c-0.1,0.2-0.7,0.5-0.6,0.8c0.1,0.2,0.5,0.3,0.7,0.2c0.2-0.1,0.2-0.5,0.3-0.7c0.1-0.1,0.2-0.5,0.3-0.4c0.1,0,0,0.3,0,0.4
	c0,0.2,0.1,0.5,0.2,0.7c0.1,0.2,0.5,0.4,0.6,0.6c0.1,0.2,0.1,0.6,0.1,0.8c0,0.3-0.4,0.8-0.3,1c0.1,0.3,0.7,0.8,0.9,0.9
	c0.5,0.3,1.6,0.7,2.1,0.9c0.6,0.2,1.8,0.6,2.5,0.5c0.5,0,1.3-0.5,1.7-0.7c0.7-0.3,2.3-0.8,2.8-1.4c0.4-0.4,0.4-1.7,0.8-2.1
	c0.2-0.3,1-0.7,1.3-1c0.3-0.4,0.6-1.4,0.9-1.8c0.3-0.5,1.3-1.1,1.6-1.5c0.1-0.2,0.4-0.5,0.5-0.7c0.2-0.6-0.1-2.1,0-2.7
	c0.1-0.9,0.6-2.7,0.6-3.6c0-0.2,0-0.7-0.1-0.9c-0.2-0.5-1-1.2-1.2-1.6c-0.2-0.4-0.3-1.5-0.6-1.9c-0.2-0.3-1.1-0.3-1.3-0.6
	c-0.3-0.4-0.1-1.4-0.3-1.8c-0.3-0.4-1.7-0.6-2-1c-0.3-0.5,0-1.7-0.1-2.3c-0.1-0.6-0.4-1.9-0.7-2.5c-0.2-0.4-1-1-1.2-1.4
	c-0.3-0.4-0.7-1.4-0.7-1.9c0-0.3,0.5-0.7,0.5-1c0-0.4-0.6-1.2-1-1.2c-0.3,0-0.5,0.9-0.7,1.2c-0.1,0.2-0.5,0.5-0.6,0.8
	c-0.3,1,0.3,3.1,0.1,4.1c-0.1,0.3-0.5,0.8-0.6,1c-0.1,0.2-0.2,0.6-0.3,0.7c-0.3,0.2-0.9,0.1-1.2,0c-0.3-0.1-0.7-0.8-1-0.9
	c-0.3-0.2-1-0.3-1.3-0.5c-0.2-0.2-0.6-0.6-0.9-0.8c-0.2-0.1-0.7-0.1-0.8-0.3c-0.1-0.3,0.3-0.8,0.4-1c0.1-0.2,0.1-0.7,0.3-0.9
	c0.1-0.1,0.5-0.1,0.6-0.3c0.2-0.2,0.6-0.9,0.4-1.2c-0.2-0.3-1-0.2-1.4-0.3c-0.3,0-1,0-1.3-0.1c-0.4-0.1-1.1-0.6-1.5-0.8
	c-0.4-0.1-1.2-0.4-1.5-0.2c-0.1,0.1-0.1,0.3-0.1,0.4C92.8,78.6,93.3,78.6,93.4,78.8z"/>
<path class="st0" d="M101.2,113.7c0.3-0.2,1,0.2,1.3,0.3c0.5,0,1.6-0.3,1.9,0c0.2,0.2,0,0.9-0.1,1.1c-0.1,0.3-0.6,0.6-0.7,0.9
	c-0.1,0.2,0.1,0.7-0.1,0.9c-0.2,0.2-0.8,0.2-1,0.3c-0.2,0-0.6,0.1-0.8,0.1c-0.2,0-0.7-0.2-0.8-0.4
	C100.6,116,100.6,114.2,101.2,113.7z"/>
<path class="st0" d="M130,105.8c-0.2,0.2-0.1,0.8,0,1.1c0.1,0.3,0.4,0.9,0.5,1.2c0.1,0.2,0.5,0.7,0.5,0.9c0,0.3-0.3,1-0.4,1.3
	c-0.2,0.3-0.8,0.8-0.9,1.1c-0.1,0.2,0.1,0.6,0.1,0.8c0.1,0.5,0,1.7,0.3,2.1c0.2,0.2,0.7,0.5,0.9,0.4c0.3-0.2,0.1-1.1,0.3-1.5
	c0.2-0.3,0.7-0.7,0.9-0.9c0.4-0.3,1.3-0.5,1.5-0.9c0.2-0.2,0.3-0.8,0.3-1.1c0-0.2,0.1-0.7-0.1-0.9c-0.3-0.3-1.3,0.3-1.6,0
	c-0.2-0.2,0.1-1.1-0.1-1.3c-0.1-0.1-0.4,0-0.5,0c-0.2,0-0.5-0.1-0.6-0.3c-0.2-0.3,0.1-1,0.1-1.3c0-0.2-0.2-0.6-0.3-0.8
	C130.7,105.8,130.2,105.6,130,105.8z"/>
<path class="st0" d="M127.2,113.2c-0.2,0.2,0,1.1-0.2,1.4c-0.2,0.3-1.1,0.4-1.4,0.7c-0.3,0.3-0.7,1.1-1,1.4
	c-0.5,0.4-1.9,0.7-2.5,1.1c-0.5,0.3-1.5,1-1.6,1.5c-0.1,0.3,0.2,0.8,0.3,1c0.3,0.4,0.9,1.4,1.5,1.5c0.6,0,1.5-1.1,1.9-1.6
	c0.2-0.3,0.4-1.1,0.6-1.5c0.3-0.3,1-0.9,1.4-1c0.2-0.1,0.6,0.1,0.8,0c0.3-0.2,0.3-0.9,0.4-1.2c0.2-0.3,0.6-0.8,0.9-1
	c0.2-0.2,0.8-0.6,0.9-0.9c0.1-0.3-0.1-1.1-0.3-1.1c-0.2,0-0.3,0.7-0.5,0.6c-0.2-0.1,0.1-0.8-0.1-0.9
	C127.9,113,127.3,113,127.2,113.2z"/>
<path class="st0" d="M33,24.3c-0.3,0-0.8,0.2-0.9,0.3c-0.2,0.2-0.2,0.8-0.2,1.1c-0.1,0.3-0.3,0.9-0.4,1.2c-0.1,0.3-0.2,0.8-0.4,1
	c-0.1,0.2-0.6,0.3-0.7,0.4c-0.2,0.3,0,1-0.3,1.2c-0.2,0.1-0.7,0-0.9,0.1c-0.3,0.1-0.8,0.5-1.1,0.7c-0.2,0.1-0.6,0.4-0.8,0.6
	c-0.2,0.2-0.2,0.9-0.4,1c-0.6,0.4-2.2-0.1-2.8,0.3c-0.2,0.1-0.4,0.9-0.4,0.9s0,0.9,0.3,1.1c0.1,0.1,0.6,0,0.8,0.1
	c0.1,0.1,0.4,0.4,0.3,0.6c0,0.2-0.4,0.6-0.6,0.8c-0.2,0.1-0.8,0.3-0.8,0.3s0.6,0.1,0.8,0.3c0.2,0.2,0.2,0.7,0.4,0.9
	c0.4,0.2,1.3,0.1,1.7,0c0.3-0.1,0.8-0.6,1.1-0.4c0.2,0.1,0.1,0.7,0.2,0.9c0.2,0.3,0.8,0.6,1.1,0.8c0.2,0.1,0.9,0.6,0.9,0.6
	s0.4-0.5,0.6-0.6c0.5-0.2,1.6,0.3,2,0c0.2-0.1,0.1-0.6,0.1-0.9c-0.1-0.4-0.7-1-1-1.4c-0.2-0.2-0.8-0.6-0.9-0.9
	c-0.1-0.3,0.2-0.8,0.3-1c0.1-0.2,0.4-0.6,0.6-0.6c0.4-0.1,1.3,0.8,1.7,0.6c0.2-0.1,0.2-0.5,0.3-0.7c0-0.2,0-0.6,0.1-0.8
	c0.2-0.3,0.9-0.6,1.1-0.9c0.1-0.2,0.2-0.7,0.3-0.9c0.1-0.2,0.6-0.5,0.7-0.7c0.1-0.4-0.1-1.5-0.1-1.5s-0.8-0.4-0.9-0.7
	c-0.1-0.3,0.2-1,0.1-1.4c-0.1-0.2-0.5-0.5-0.5-0.7c-0.1-0.2,0.2-0.9,0.2-0.9s-0.6-0.4-0.9-0.4C33.5,24.5,33.2,24.3,33,24.3z"/>
<path class="st0" d="M57.8,34.3c0,0,0,0.5-0.1,0.6c-0.2,0.3-1,0.4-1.3,0.6c-0.2,0.2-0.6,0.7-0.8,1c-0.2,0.3-0.2,1.1-0.4,1.4
	c-0.2,0.3-0.7,0.6-0.9,0.9c-0.2,0.5,0,2,0,2l0,0c0,0-0.5-0.3-0.6-0.5c-0.2-0.4-0.3-1.2-0.4-1.6c-0.1-0.3,0-0.9-0.2-1.2
	c-0.2-0.3-0.9-0.6-1.2-0.7c-0.2-0.1-0.8-0.1-1-0.2c-0.3-0.1-0.8-1-1.2-0.9c-0.5,0.2-1,1.6-0.7,2.1c0.1,0.2,0.6,0,0.7,0.2
	c0.4,0.5,0.1,2.6,0.1,2.6s-0.5,0-0.7,0.1c-0.2,0.1-0.6,0.3-0.7,0.4c-0.2,0.3,0.1,1,0,1.3c0,0.1-0.3,0.2-0.3,0.3
	c-0.2,0.2-0.5,0.9-0.8,1.1c-0.3,0.2-0.9,0.3-1.2,0.5c-0.2,0.2-0.5,0.7-0.7,0.9c-0.2,0.2-0.8,0.2-1,0.4c-0.2,0.2-0.3,1-0.5,1.3
	c-0.2,0.3-0.8,0.6-1,0.8c-0.3,0.2-1.2,0.5-1.4,0.9c-0.4,0.8,0.8,2.8,0.3,3.5c-0.1,0.1-0.4,0.1-0.4,0.2c-0.2,0.4,0.5,1.2,0.4,1.6
	c0,0.3-0.5,0.9-0.7,1.2c-0.2,0.3-0.4,0.9-0.7,1.1c-0.2,0.2-0.8,0.6-1.1,0.6c-0.2,0-0.5-0.3-0.6-0.4c-0.2-0.3-0.1-1-0.2-1.3
	c-0.2-0.7-0.9-2-1.2-2.7c-0.3-0.7-0.7-2.3-1.1-3c-0.2-0.5-1-1.3-1.2-1.8c-0.2-0.6-0.4-1.8-0.5-2.4c-0.1-0.5,0-1.6,0-2.1
	c0-0.4-0.1-1.3-0.3-1.7c-0.1-0.3-0.2-1.1-0.5-1c-0.2,0.1,0.1,0.7,0,0.9c-0.1,0.2-0.5,0.6-0.7,0.7c-0.3,0.1-1.1,0.1-1.5-0.1
	c-0.4-0.2-1.1-1-1.1-1.5c0-0.2,0.7-0.6,0.6-0.8c-0.1-0.2-0.7,0.2-0.9,0.1c-0.2-0.1-0.5-0.9-0.5-0.9s0.4-0.5,0.6-0.6
	c0.5-0.2,1.6,0.3,2,0c0.2-0.1,0.1-0.6,0.1-0.9c-0.1-0.4-0.7-1-1-1.4c-0.2-0.2-0.8-0.6-0.9-0.9c-0.1-0.3,0.2-0.8,0.3-1
	c0.1-0.2,0.4-0.6,0.6-0.6c0.4-0.1,1.3,0.8,1.7,0.6c0.2-0.1,0.2-0.5,0.3-0.7c0-0.2,0-0.6,0.1-0.8c0.2-0.3,0.9-0.6,1.1-0.9
	c0.1-0.2,0.2-0.7,0.3-0.9c0.1-0.2,0.6-0.5,0.7-0.7c0.1-0.4-0.1-1.5-0.1-1.5s1-0.8,1.4-0.9c0.3-0.1,0.9,0,1.1,0.1
	c0.2,0.1,0.6,0.4,0.8,0.6c0.2,0.4-0.3,1.4,0,1.8c0.2,0.3,1.1,0.1,1.5,0.3c0.3,0.1,0.9,0.9,0.9,0.9s0,1.3,0.2,1.7
	c0.1,0.3,0.5,0.8,0.8,0.9c0.3,0.2,0.9,0.2,1.2,0.3c0.4,0.1,1.1,0.5,1.5,0.6c0.3,0.1,0.9,0.1,1.2,0.3c0.2,0.1,0.6,0.5,0.9,0.5
	c0.3,0.1,0.8-0.1,1.1-0.1c0.2,0,0.7,0.1,0.9,0c0.2-0.2,0.5-1,0.5-1l0.5-0.9c0,0,0.8,0.4,1.1,0.5c0.4,0.1,1.6,0,1.6,0
	s0.3-0.6,0.5-0.8c0.3-0.2,0.9-0.6,1.2-0.7c0.4-0.1,1.2-0.1,1.5,0c0.3,0.1,0.9,0.4,1.1,0.6C57.3,33.5,57.8,34.3,57.8,34.3"/>
<path class="st0" d="M54.4,40.8l-0.4,0.9c0,0-0.5-0.1-0.6-0.2c-0.3-0.2-0.7-0.8-0.7-1.1c-0.1-0.2,0.2-0.7,0.1-0.9
	c-0.1-0.3-0.3-0.9-0.6-0.9c-0.2,0-0.1,0.6-0.3,0.8c-0.2,0.2-0.7,0.2-0.9,0.4c-0.2,0.2,0.1,0.9-0.1,1.1c-0.2,0.2-1.1-0.2-1.1-0.2
	s0.3-2.1-0.1-2.6c-0.1-0.1-0.6,0-0.7-0.2c-0.3-0.5,0.2-2,0.7-2.1c0.3-0.1,0.9,0.7,1.2,0.9c0.2,0.1,0.8,0.1,1,0.2
	c0.3,0.1,1,0.4,1.2,0.7c0.2,0.3,0.1,0.9,0.2,1.2c0.1,0.4,0.2,1.3,0.4,1.6C53.9,40.5,54.4,40.8,54.4,40.8"/>
<path class="st0" d="M52.4,35.2c-0.2,0.2-0.9,0-1.1-0.1c-0.2,0-0.7-0.2-0.9-0.3c-0.2-0.2-0.3-1.1-0.3-1.1s0.8,0.4,1.1,0.5
	c0.4,0.1,1.6,0,1.6,0S52.6,35,52.4,35.2z"/>
<path class="st0" d="M34.7,23.3l-2.1-0.1c0,0-0.8-0.2-1-0.4c-0.2-0.2-0.2-1.1-0.5-1.3c-0.1-0.1-0.4-0.1-0.5-0.1
	c-0.2,0.1-0.2,0.7-0.4,0.9c-0.3,0.2-1.2,0.2-1.5,0.3C28.4,22.7,28,23,28,23s-0.6-0.3-0.8-0.3c-0.3-0.1-1.3-0.1-1.3-0.1
	s-0.4,0.4-0.5,0.4c-0.2,0.1-0.6,0-0.8,0.1c-0.1,0.1-0.2,0.4-0.3,0.5c-0.1,0.1-0.6,0.3-0.7,0.4c-0.1,0.2,0,0.7-0.2,0.9
	c-0.2,0.2-0.8,0.1-1,0.3c-0.3,0.1-0.9,0.8-0.9,0.8s0.3,1.2,0.3,1.6c0,0.6-0.7,1.9-0.3,2.4c0.2,0.2,1-0.2,1.2,0
	c0.2,0.2,0.4,0.9,0.3,1.2c0,0.2-0.4,0.5-0.5,0.7c-0.1,0.2-0.2,0.7-0.1,0.9c0.2,0.3,1.1,0.5,1.1,0.5s0.2-0.7,0.4-0.9
	c0.6-0.4,2.2,0.2,2.8-0.3c0.2-0.2,0.3-0.8,0.4-1c0.1-0.2,0.6-0.5,0.8-0.6c0.3-0.2,0.8-0.6,1.1-0.7c0.2-0.1,0.7,0.1,0.9-0.1
	c0.2-0.2,0.1-1,0.3-1.2c0.1-0.2,0.6-0.3,0.7-0.4c0.2-0.2,0.3-0.8,0.4-1c0.1-0.3,0.3-0.9,0.4-1.2c0-0.3,0.1-0.9,0.2-1.1
	c0.2-0.2,0.7-0.3,0.9-0.3l0,0c0.2,0,0.5,0.1,0.6,0.2c0.2,0.1,0.9,0.4,0.9,0.4L34.7,23.3z"/>
<path class="st0" d="M42.6,55.1c-0.3,0.1-0.5,0.9-0.6,1.2c-0.1,0.4-0.2,1.2-0.1,1.5c0.1,0.4,0.3,1.2,0.6,1.4c0.3,0.2,1.1,0,1.4-0.3
	c0.4-0.5,0.2-1.9,0-2.5c-0.1-0.2-0.3-0.5-0.4-0.6C43.2,55.6,42.9,55,42.6,55.1z"/>
<path class="st0" d="M45.9,8.1c0,0-0.4-1.9-0.9-2.4c-0.3-0.3-1.2-0.4-1.6-0.7c-0.2-0.1-0.4-0.6-0.6-0.7c-0.2-0.1-0.8,0.1-1-0.1
	c-0.7-0.4-0.8-2.4-1.5-2.8c-0.3-0.2-1-0.1-1.3,0C38.7,1.6,38,2,37.6,2.1c-0.3,0-0.9,0.1-1.1-0.1c-0.1-0.1,0-0.6-0.1-0.8
	c-0.1-0.2-0.6-0.7-0.8-0.7c-0.5-0.1-1.4,0.2-1.9,0.3c-0.4,0.1-1.1,0.3-1.5,0.3c-0.6,0-1.8-0.1-2.5-0.2c-0.3-0.1-1-0.3-1.3-0.3
	c-0.2,0-0.6,0-0.7,0.2c-0.2,0.3,0.4,1.1,0.2,1.4C28,2.3,27.2,2.5,27,2.6c-0.2,0.1-1.1,0.1-1.3,0.5c-0.1,0.2,0.8,0.9,0.7,1.2
	C26.4,4.6,26,5,25.8,5c-0.2,0.1-0.7-0.2-0.9-0.3c-0.5-0.2-1.3-1-1.8-1.1c-0.3-0.1-1,0.2-1.3,0.2c-0.2,0-0.8-0.1-0.9-0.3
	c-0.1-0.1,0.2-0.5,0.1-0.7c-0.3-0.7-1.8-1.3-2.5-1.6c-0.4-0.1-1.4-0.1-1.9-0.1c-0.3,0-0.8-0.2-1.1-0.2c-0.3,0-1,0.1-1.3,0.3
	C14,1.4,14,2,13.8,2.1c-0.4,0.1-0.7-1.2-1.1-1.2c-1.4-0.1-3,2.4-3.1,3.6c0,0.3,0.3,0.8,0.5,1.1c0.2,0.3,1,0.4,1.1,0.7
	c0.2,0.3,0.2,1,0.1,1.3c-0.1,0.3-0.7,0.7-0.9,1c-0.2,0.4-0.4,1.8-0.4,1.8s0.9-0.4,1.3-0.3c0.3,0,1,0.5,1.3,0.4
	c0.1,0,0.2-0.5,0.3-0.5c0.2,0,0.6,0.2,0.7,0.3c0.1,0.3-0.3,1-0.3,1.3c0,0.2,0.3,0.5,0.3,0.6c-0.2,0.3-1.1-0.1-1.4,0
	c-0.2,0.1-0.4,0.3-0.5,0.5c-0.1,0.2,0.1,0.6-0.1,0.8c-0.1,0.1-0.7-0.1-0.8,0.1c-0.1,0.1,0.1,0.5,0.2,0.7c0.1,0.2,0.1,0.8,0.3,0.9
	c0.3,0.2,1.2-0.2,1.5,0c0.3,0.3,0,1.7,0.4,1.7c0.2,0,0-0.8,0.2-0.9c0.2-0.2,1-0.1,1.2,0.1c0.3,0.2,0.3,1.3,0.3,1.3s0.7-0.4,1-0.4
	c0.2,0,0.7,0.2,0.8,0.3c0.1,0.1-0.1,0.5,0,0.7c0.1,0.2,0.9,0.3,0.9,0.3s0.1-3.9,0.7-4.9c0.3-0.6,2.1-1.6,2.1-1.6s0.8-0.1,0.9-0.3
	c0.2-0.2-0.2-0.9,0-1.1c0.3-0.3,1.5-0.3,1.9,0c0.3,0.3-0.1,1.2,0,1.5c0.1,0.2,0.6,0.5,0.6,0.7c0,0.2-0.4,0.5-0.4,0.5
	s0.5,0.9,0.7,1.2c0.1,0.2,0.1,0.7,0.3,0.8c0.3,0.1,0.9-0.3,1.2-0.3c0.3,0,0.9,0.1,1.1,0.2c0.3,0.1,0.9,0.2,1.1,0.5
	c0.2,0.3,0,1.1,0.1,1.5c0,0.2,0.2,0.7,0.3,0.9c0.2,0.3,1,0.5,1.3,0.7c0.1,0.1,0.5,0.4,0.5,0.4s0.8-0.7,1.1-0.8
	c0.6-0.3,1.9-0.4,2.4-0.8c0.1-0.1,0.4-0.4,0.3-0.6c0-0.3-0.6-0.7-0.8-0.7c-0.2-0.1-0.6,0.2-0.8,0.2c-0.3-0.1-0.8-0.5-0.8-0.7
	c0-0.2,0.4-0.5,0.5-0.7c0-0.2-0.1-0.5-0.1-0.6c0-0.1-0.1-0.2,0-0.3c0.1-0.2,0.5-0.6,0.7-0.6c0.3,0,0.6,0.9,0.9,0.9
	c0.2,0,0.2-0.6,0.4-0.7c0.3-0.2,0.9-0.4,1.2-0.3c0.2,0.1,0.5,0.6,0.7,0.7c0.5,0.2,1.6-0.3,2.1-0.3c0.3,0,1,0,1.3,0.1
	c0.3,0.1,1.2,0.9,1.2,0.9s0.3-0.4,0.3-0.5c0.1-0.3-0.1-1.1,0.1-1.4c0.2-0.2,0.7-0.5,1-0.5c0.3,0,0.9,0.5,1.2,0.3
	c0.5-0.3,0.2-1.7,0.4-2.2c0.1-0.2,0.4-0.4,0.5-0.5c0.2-0.1,0.6,0,0.8-0.2c0.2-0.1,0.1-0.6,0.3-0.8C45.4,8.4,45.9,8.1,45.9,8.1z"/>
<path class="st0" d="M25.9,22.5c0,0-0.4,0.4-0.5,0.4c-0.2,0.1-0.6,0-0.8,0.1c-0.1,0.1-0.2,0.4-0.3,0.5c-0.1,0.1-0.6,0.3-0.7,0.4
	c-0.1,0.2,0,0.7-0.2,0.9c-0.2,0.2-0.8,0.1-1,0.3c-0.3,0.1-0.9,0.8-0.9,0.8s0.6-1.7,0.3-2.2c-0.2-0.3-1-0.5-1.4-0.7
	c-0.4-0.2-1.1-0.9-1.5-1.1c-0.3-0.1-0.8,0-1.1-0.1c-0.4-0.1-1.3-0.5-1.7-0.3c-0.2,0.1-0.3,0.7-0.4,0.9c-0.2,0.2-1,0.4-1,0.4
	s-0.1-1-0.2-1.3c0-0.2,0-0.5-0.1-0.7c0-0.1-0.2-0.4-0.3-0.5c-0.1-0.3,0-0.9-0.2-1.1c-0.1-0.1-0.4-0.3-0.4-0.4c0-0.1,0.4-0.3,0.3-0.4
	c0-0.2-0.4-0.2-0.5-0.3c-0.1-0.2-0.1-0.6,0.1-0.7c0.3-0.1,0.7,1.1,1,1c0.2,0,0.5-0.9,0.5-0.9s0.7-0.4,1-0.4c0.2,0,0.7,0.2,0.8,0.3
	c0.1,0.1-0.1,0.5,0,0.7c0.1,0.2,0.9,0.3,0.9,0.3s1,0.5,1.2,0.4c0.2-0.1,0-0.6,0.2-0.7c0.1-0.1,0.5-0.1,0.7-0.2
	c0.2-0.1,0.5-0.4,0.7-0.3c0.2,0,0.2,0.4,0.3,0.6c0.1,0.1,0.5,0.3,0.5,0.4c0,0.1-0.3,0.4-0.2,0.5c0.1,0.2,0.5,0.1,0.7,0.2
	c0.1,0,0.4,0,0.5,0c0.2,0,0.5,0.1,0.6,0.2c0.1,0.2-0.3,0.6-0.2,0.8c0.2,0.7,1.6,1.7,2.3,1.8c0.2,0,0.4-0.3,0.6-0.3
	c0.1,0,0.4,0.1,0.5,0.2C26.1,22,25.9,22.5,25.9,22.5z"/>
<path class="st0" d="M30.4,18.8c0,0-0.4,0.9-0.6,1.1c-0.2,0.3-0.6,0.8-0.8,1.1c-0.3,0.5-1,1.9-1,1.9s0.4-0.3,0.6-0.3
	c0.4-0.1,1.2-0.1,1.5-0.3c0.2-0.1,0.2-0.7,0.4-0.9c0.1-0.1,0.4,0,0.5,0.1c0.3,0.2,0.3,1,0.5,1.3c0.2,0.2,0.8,0.4,1,0.4l0,0
	c0.5,0,2.1,0.1,2.1,0.1s0.2-0.8,0-0.9c0,0-0.1,0.1-0.2,0.1c-0.3,0-0.9-0.4-1-0.7c-0.2-0.4,0-1.2,0.2-1.5c0.1-0.2,0.5-0.6,0.8-0.6
	c0.4,0,1.5,0.9,1.5,0.9s-0.3-2.3-0.9-2.5c-0.3-0.1-0.8,0.7-1.1,0.8c-0.2,0.1-0.7,0.2-1,0.2C32.2,19.2,30.4,18.8,30.4,18.8z"/>
<path class="st0" d="M28,23c0,0-0.6-0.3-0.8-0.3c-0.3-0.1-1.3-0.1-1.3-0.1s0.1-0.6,0.1-0.7c-0.1-0.1-0.4-0.2-0.5-0.2
	c-0.2,0-0.4,0.3-0.6,0.3c-0.7-0.1-2.1-1.1-2.3-1.8c-0.1-0.2,0.3-0.6,0.2-0.8c-0.1-0.1-0.4-0.2-0.6-0.2c-0.1,0-0.4,0-0.5,0
	c-0.2,0-0.7,0-0.7-0.2c-0.1-0.1,0.3-0.4,0.2-0.5c0-0.2-0.4-0.3-0.5-0.4c-0.1-0.1-0.2-0.5-0.3-0.6c-0.2-0.1-0.5,0.3-0.7,0.3
	c-0.2,0.1-0.5,0-0.7,0.2c-0.1,0.1,0,0.6-0.2,0.7c-0.3,0.2-1.2-0.4-1.2-0.4s0.1-3.9,0.7-4.9c0.3-0.6,2.1-1.6,2.1-1.6
	s-0.3,2.1,0.2,2.5c0.2,0.2,0.8-0.1,1,0c0.2,0.1,0.3,0.4,0.5,0.5c0.3,0.1,1,0.2,1.2,0c0.3-0.3,0.1-1.6,0.1-1.6s0.5,0.9,0.7,1.2
	c0.1,0.2,0.1,0.7,0.3,0.8c0.3,0.1,0.9-0.3,1.2-0.3c0.3,0,0.9,0.1,1.1,0.2c0.3,0.1,0.9,0.2,1.1,0.5c0.2,0.3,0,1.1,0.1,1.5
	c0,0.2,0.2,0.7,0.3,0.9c0.2,0.2,0.9,0.4,1.1,0.6c0.2,0.1,0.7,0.5,0.7,0.5S30,19.7,29.8,20c-0.2,0.3-0.6,0.8-0.8,1.1
	C28.7,21.5,28,23,28,23z"/>
<path class="st0" d="M81.4,37.2c-0.3,0-0.6,0.7-0.7,0.9c-0.1,0.3-0.3,1-0.2,1.4c0.1,0.4,0.7,1.1,1.1,1c0.4-0.1,0.6-1.2,0.6-1.6
	C82.2,38.4,81.8,37.2,81.4,37.2z"/>
<path class="st0" d="M85.6,20.5l-0.3,1L83.9,22c0,0,0.5,0.6,0.5,0.9c0,0.2-0.2,0.6-0.1,0.8c0.1,0.2,0.7,0.1,0.9,0.3
	c0.3,0.4-0.4,1.5-0.2,2c0.1,0.2,0.7,0.4,1,0.4c0.4,0,1.3-0.5,1.5-0.9c0.3-0.5,0.2-1.8,0-2.4C87.3,22.3,85.6,20.5,85.6,20.5z"/>
<path class="st0" d="M96.8,11.1c-0.1,0.3,0.2,1,0.3,1.3c0,0.3,0.1,0.8,0.1,1.1c-0.1,0.3-0.4,0.8-0.6,1.1c-0.1,0.2-0.6,0.7-0.5,0.9
	c0,0.2,0.4,0.5,0.6,0.5c0.3,0.1,0.8-0.4,1.1-0.4c0.3,0,0.9,0.1,1.1,0.3c0.2,0.1,0.5,0.9,0.5,0.7c0-0.3,0.4-1.2,0.7-1.5
	c0.1-0.1,0.6-0.2,0.7-0.3c0.2-0.3,0-1-0.2-1.3c-0.2-0.2-0.8-0.3-1-0.3c-0.4-0.1-1.2-0.2-1.5-0.5c-0.2-0.2-0.3-0.8-0.4-1.1
	c-0.1-0.2-0.2-0.9-0.4-0.9C97,10.6,96.8,11,96.8,11.1z"/>
<path class="st0" d="M97.2,17.2c0.2-0.1,0.8-0.1,0.9,0c0.3,0.3,0.2,1.2,0.3,1.6c0.1,0.2,0.2,0.5,0.3,0.7c0.2,0.2,0.8,0.5,0.8,0.8
	c0,0.4-1.1,0.6-1.2,1c-0.1,0.4,0.5,1.3,0.5,1.8c0,0.3-0.1,0.9-0.3,1.1c-0.1,0.2-0.3,0.5-0.5,0.6c-0.1,0.1-0.4,0.1-0.5,0.2
	c-0.2,0.2-0.1,0.8-0.3,0.9c-0.3,0-0.4-0.8-0.7-0.8c-0.1,0-0.2,0.4-0.3,0.4c-0.3,0.1-1,0.3-1.3,0.1c-0.1-0.1-0.1-0.5-0.3-0.6
	c-0.1-0.1-0.4,0.1-0.5,0.2c-0.2,0.3,0.3,1.4,0,1.5c-0.2,0.1-0.5-0.3-0.7-0.4c-0.1-0.1-0.2-0.6-0.4-0.6c-0.3,0-0.1,0.8-0.3,1
	c-0.1,0.1-0.4,0.2-0.6,0.2c-0.2-0.1-0.4-0.6-0.6-0.8c-0.2-0.1-0.6,0-0.8-0.1c-0.2-0.1-0.5-0.3-0.5-0.4c0-0.3,0.6-0.6,0.8-0.8
	c0.2-0.2,0.7-0.4,0.9-0.5c0.2-0.1,0.4-0.5,0.6-0.5c0.4-0.1,1.2,0.4,1.5,0.2c0.2-0.2,0-0.8,0.1-1c0.1-0.2,0.1-0.8,0.3-0.9
	c0.1-0.1,0.4,0.2,0.5,0.3c0.3,0.1,1.1,0.1,1.4-0.2c0.1-0.1,0.1-0.6,0.2-0.8c0-0.3-0.1-0.9,0-1.2c0.1-0.2,0.4-0.5,0.4-0.7
	c0.1-0.4-0.4-1.2-0.3-1.6C96.7,17.7,97,17.3,97.2,17.2z"/>
<path class="st0" d="M91.4,27.6c0,0.2-0.2,0.6-0.1,0.7c0.1,0.1,0.5,0.1,0.6,0c0.2-0.1,0.6-0.5,0.5-0.7c0-0.2-0.4-0.3-0.6-0.3
	c-0.1,0-0.4,0-0.4,0.1"/>
<path class="st0" d="M89.2,26.8c-0.2,0.1-0.3,0.5-0.4,0.7c-0.1,0.1-0.5,0.2-0.6,0.3c-0.1,0.3,0.2,1,0.5,1c0.2,0,0.3-0.5,0.5-0.5
	c0.1,0,0.4,0.1,0.4,0.2c0.1,0.2-0.2,0.5-0.2,0.7c0,0.2,0.2,0.8,0.4,0.9c0.2,0,0.5-0.3,0.6-0.4c0.1-0.2,0-0.8,0-1
	c0-0.4,0-1.2-0.2-1.6c-0.1-0.1-0.2-0.5-0.3-0.5C89.7,26.4,89.3,26.6,89.2,26.8z"/>
<path class="st0" d="M86.5,15.8c0,0,0.3,1.5,0.1,1.8c-0.1,0.2-0.5,0.2-0.6,0.3c-0.2,0.2-0.3,0.8-0.5,0.9c-0.2,0.2-0.9,0.2-0.9,0.4
	c-0.1,0.4,1.1,1.1,1.1,1.1l-0.3,1L83.9,22c0,0-0.4-0.5-0.6-0.6c-0.3-0.2-1.2-0.2-1.2-0.5c0-0.2,0.7-0.4,0.8-0.6
	c0.1-0.2,0.2-0.9,0.1-1.1C82.8,19,82.3,19,82.1,19c-0.1,0-0.3,0-0.3,0s0.8-0.4,0.9-0.6c0.3-0.3,0.1-1.4,0.5-1.6
	c0.2-0.1,0.6,0.3,0.9,0.3c0.2,0,0.7,0.1,0.9,0c0.3-0.2,0.7-0.9,1-1.1C86.2,15.9,86.5,15.8,86.5,15.8z"/>
<path class="st0" d="M45.9,8.1c0,0,0.4-0.4,0.6-0.5c0.3-0.2,1-0.3,1.3-0.3C48.5,7.2,50,6.7,50.7,7c0.1,0.1,0.2,0.4,0.3,0.4
	c0.2,0.1,0.8,0.1,1,0.2c0.1,0.1,0.3,0.4,0.4,0.4c0.5,0.2,1.8,0.2,2-0.3C54.7,7.5,54.2,7,54,6.7c-0.1-0.1-0.4-0.4-0.3-0.5
	c0.1-0.2,0.7,0.1,0.9-0.1c0.3-0.3,0-1.3,0-1.7c0-0.4-0.4-1.5,0-1.7c0.4-0.3,1.3,0.6,1.8,0.7c0.3,0.1,0.9,0,1.2,0.1
	c0.3,0.1,0.7,0.6,0.9,0.9c0.1,0.2,0.2,0.7,0.4,0.9c0.3,0.2,1.1,0,1.5,0c0.5,0,1.6,0,2.1,0.2c0.3,0.1,0.9,0.6,1.2,0.7
	c0.2,0.1,0.8,0.1,0.9,0.3c0.1,0.1,0.1,0.7,0.3,0.8c0.5,0.3,2,0,2.6-0.3C67.5,6.5,67.6,6,67.8,6c0.2-0.1,0.6,0.5,0.9,0.5
	c0.4,0,0.8-0.9,1.2-1c0.2-0.1,0.7-0.1,0.9-0.1c0.2,0.1,0.9,0.5,0.9,0.5s-0.2,0.6-0.3,0.8c-0.1,0.5,0,1.7,0.1,2.2
	c0,0.1,0.1,0.3,0.2,0.4c0.2,0.1,0.6-0.2,0.8-0.2c0.4-0.1,1.2-0.3,1.6-0.2c0.3,0.1,0.8,0.7,0.8,1c-0.1,0.5-1.3,0.6-1.7,0.8
	c-0.4,0.2-1.1,0.6-1.5,0.9c-0.2,0.2-0.6,0.5-0.9,0.7c-0.2,0.2-0.6,0.9-0.9,0.9c-0.3,0.1-1.1-0.7-1.4-0.4c-0.2,0.2,0.1,0.8,0.1,1.1
	c0,0.3,0,0.9-0.2,1.2c-0.2,0.4-1.1,1.1-1.5,1.3c-0.5,0.1-1.5-0.4-2-0.3c-0.2,0.1-0.6,0.5-0.8,0.6c-0.3,0.2-1.1,0.5-1.5,0.4
	c-0.4,0-1.1-0.6-1.5-0.8C61,16.2,60.4,16,60.1,16c-1.3-0.2-4.2,0.1-5.5-0.4c-0.2-0.1-0.5-0.5-0.7-0.7c-0.2-0.3-0.4-1-0.7-1.2
	c-0.2-0.2-0.8-0.5-1.1-0.6c-0.2-0.1-0.8-0.2-1-0.3c-0.6-0.1-1.8-0.1-2.2-0.4c-0.3-0.3-0.5-1.2-0.7-1.6c-0.1-0.3-0.2-0.9-0.3-1.1
	c-0.3-0.3-1.1-0.5-1.5-0.8C46.3,8.7,45.9,8.1,45.9,8.1z"/>
<path class="st0" d="M77.4,19.1c0,0.4-1.3,0.6-1.5,1c-0.1,0.2,0,0.8,0.1,1c0.2,0.3,0.7,0.7,1,0.9c0.2,0.1,0.8,0.2,1,0.1
	c0.3-0.1,0.5-0.7,0.8-0.8c0.3-0.1,1.2-0.1,1.5,0.2c0.3,0.2,0.5,1.1,0.3,1.4c-0.2,0.3-1,0.3-1.3,0.4c-0.3,0.2-1,0.6-1.1,0.9
	c-0.1,0.3,0.3,1,0.4,1.3c0.2,0.4,0.6,1.3,0.9,1.7c0.3,0.4,1.1,0.9,1.3,1.3c0.1,0.3,0,0.8,0,1.1c0,0.3,0.2,0.9,0.3,1.2
	c0.1,0.7,0.9,2.2,0.5,2.8c-0.1,0.1-0.6,0-0.7,0.2c-0.2,0.2-0.1,0.7-0.2,0.9c-0.2,0.3-0.8,0.6-0.9,0.9c-0.1,0.3,0.2,1,0.1,1.3
	c-0.1,0.3-0.7,0.6-0.9,0.7c-0.2,0.1-0.6,0-0.7,0.1c-0.2,0.2,0,0.8-0.2,1c-0.1,0.2-0.6,0.1-0.8,0.3c-0.2,0.2,0,0.8-0.2,0.9
	c-0.3,0.3-1.3,0.5-1.7,0.5c-0.3,0-1-0.2-1.3-0.2c-0.4,0-1.2,0.3-1.5,0.5c-0.4,0.2-1.2,0.9-1.5,1.2c-0.2,0.1-0.5,0.7-0.7,0.6
	c-0.3-0.1-0.2-1.1-0.4-1.4c-0.1-0.1-0.4-0.4-0.6-0.3C69.1,40.9,69,42,69,42s-0.9-1.7-1.5-2.1c-0.3-0.2-1.1-0.4-1.5-0.5
	c-0.3,0-0.8-0.1-1,0c-0.4,0.1-1.5,0.9-1.5,0.9s-0.7,0.2-0.8,0.3c-0.1,0.2,0.3,0.8,0.2,1c-0.2,0.3-1.4,0.2-1.4,0.2s-0.1-0.6-0.3-0.7
	c-0.2-0.2-0.8,0-0.9-0.2c-0.3-0.3-0.1-1.2-0.3-1.6c-0.1-0.3-0.3-0.9-0.5-1c-0.2-0.2-0.9,0.1-1.1-0.2c-0.1-0.2,0-0.7,0.1-0.9
	c0.1-0.2,0.5-0.3,0.7-0.5c0.2-0.2,0.4-0.6,0.4-0.9c0-0.3-0.3-0.8-0.4-1.1c-0.1-0.2-0.1-0.5-0.3-0.6c-0.2-0.1-1.1,0.2-1.1,0.2
	s-0.4-0.8-0.7-1c-0.2-0.2-0.8-0.5-1.1-0.6c-0.4-0.1-1.2-0.1-1.5,0c-0.3,0.1-1,0.4-1.2,0.7c-0.2,0.2-0.5,0.8-0.5,0.8s-1.2,0.1-1.6,0
	c-0.3-0.1-1.1-0.5-1.1-0.5l-0.5,0.9c0,0-0.7-0.3-0.9-0.3c-0.5-0.1-1.7,0-2.2-0.2c-0.3-0.1-0.7-0.4-1-0.5c-0.2-0.1-0.6-0.2-0.8-0.4
	c-0.2-0.2,0.2-1.1-0.1-1.1c-0.2,0-0.1,0.6-0.3,0.7c-0.3,0.1-0.8-0.3-1-0.5c-0.2-0.2-0.6-0.7-0.9-0.8c-0.3-0.1-1.1-0.1-1.1-0.1
	s-0.6-0.7-0.9-0.9c-0.3-0.2-1.2,0-1.5-0.3c-0.3-0.3,0.2-1.4,0-1.8c-0.1-0.2-0.5-0.5-0.8-0.6c-0.3-0.1-0.8-0.1-1.1-0.1
	c-0.4,0.1-1.4,0.9-1.4,0.9s-0.8-0.4-0.9-0.7c-0.1-0.3,0.2-1,0.1-1.4c-0.1-0.2-0.5-0.5-0.5-0.7c-0.1-0.2,0.2-0.9,0.2-0.9l0,0l0.3-1.6
	c0,0,0.2-0.8,0-0.9c0,0-0.1,0.1-0.2,0.1c-0.3,0-0.9-0.4-1-0.7c-0.2-0.4,0-1.2,0.2-1.5c0.1-0.2,0.5-0.6,0.8-0.6
	c0.4,0,1.5,0.9,1.5,0.9s0.4-0.4,0.4-0.5c0-0.1-0.2-0.5-0.1-0.6c0.3-0.4,1.4-0.1,1.7-0.3c0.1-0.1,0.2-0.5,0.3-0.6
	c0.2-0.1,0.7-0.2,0.8-0.3c0.4-0.6,0.4-2.2,0.1-2.7c-0.1-0.2-0.7-0.1-0.8-0.3c-0.1-0.2,0.2-0.6,0.3-0.7c0.4-0.3,2-0.3,2-0.3
	s0.3-0.4,0.3-0.5c0.1-0.3-0.1-1.1,0.1-1.4c0.2-0.2,0.7-0.5,1-0.5c0.3,0,0.9,0.5,1.2,0.3c0.5-0.3,0.2-1.7,0.4-2.2
	c0.1-0.2,0.4-0.4,0.5-0.5c0.2-0.1,0.6,0,0.8-0.2c0.2-0.1,0.1-0.6,0.3-0.8c0.1-0.1,0.6-0.4,0.6-0.4s0.3,0.6,0.5,0.7
	c0.3,0.3,1.2,0.5,1.5,0.8c0.2,0.2,0.2,0.8,0.3,1.1c0.2,0.4,0.3,1.3,0.7,1.6c0.4,0.4,1.7,0.3,2.2,0.4c0.3,0.1,0.8,0.2,1,0.3
	c0.3,0.1,0.9,0.4,1.1,0.6c0.2,0.2,0.5,0.9,0.7,1.2c0.1,0.2,0.5,0.6,0.7,0.7c1.2,0.6,4.1,0.2,5.5,0.4c0.3,0.1,0.9,0.2,1.2,0.3
	c0.4,0.2,1,0.7,1.5,0.8c0.4,0,1.1-0.3,1.5-0.4c0.2-0.1,0.5-0.5,0.8-0.6c0.5-0.1,1.5,0.4,2,0.3c0.5-0.1,1.3-0.8,1.5-1.3
	c0.1-0.3,0.2-0.9,0.2-1.2c0-0.3-0.3-0.9-0.1-1.1c0.3-0.2,1,0.5,1.4,0.4c0.3-0.1,0.7-0.7,0.9-0.9c0.2-0.2,0.6-0.5,0.9-0.7
	c0.3-0.2,1.1-0.7,1.5-0.9c0.4-0.2,1.6-0.3,1.7-0.8c0.1-0.3-0.5-0.9-0.8-1C73.7,8.7,72.9,9,72.5,9c-0.2,0-0.6,0.3-0.8,0.2
	c-0.1,0-0.2-0.3-0.2-0.4c-0.2-0.5-0.2-1.6-0.1-2.2c0-0.2,0.3-0.8,0.3-0.8s0.5,0.7,0.8,0.8c0.3,0.1,1,0.2,1.3,0
	c0.4-0.3,0-1.5,0.3-1.9c0.1-0.2,0.7-0.4,0.8-0.7C74.8,3.6,74,2.8,74,2.4c0-0.3,0.3-0.9,0.5-1c0.9-0.5,3.2-0.3,4.2,0.1
	c0.3,0.2,0.8,0.8,1,1.1c0.2,0.2,0.7,0.6,0.9,0.9c0.2,0.2,0.6,0.6,0.7,0.9c0.1,0.3,0.1,0.9,0.3,1.2c0.1,0.3,0.5,0.8,0.8,0.9
	c0.4,0.2,1.3,0.1,1.7,0.3c0.2,0.1,0.6,0.5,0.8,0.7c0.2,0.2,0.7,0.4,0.9,0.6c0.1,0.1,0.2,0.5,0.3,0.6c0.2,0.1,0.8,0.1,1,0.1
	c0.4,0,1.3-0.5,1.7-0.3c0.1,0.1,0.3,0.4,0.3,0.5c0.1,0.2,0.2,0.7,0.2,0.9c-0.1,0.2-0.6,0.3-0.7,0.5c-0.3,0.5,0.4,2.1-0.1,2.5
	c-0.2,0.1-0.7-0.3-0.9-0.2c-0.3,0.1-0.5,0.7-0.5,1c-0.1,0.3-0.1,0.9,0.1,1.1c0.2,0.2,0.8,0.1,0.9,0.2c0,0,0,0,0,0
	c-0.3,0.1-0.7,0.6-1,0.8c-0.2,0.1-0.7,0.2-0.9,0.3c-0.3,0.2-0.7,1-1,1.1c-0.2,0.1-0.7,0-0.9,0c-0.2,0-0.6-0.4-0.9-0.3
	c-0.4,0.2-0.3,1.3-0.5,1.6c-0.2,0.2-0.7,0.4-0.9,0.6c-0.3,0.2-0.9,0.6-1.2,0.8c-0.3,0.2-1.1,0.7-1.5,0.5c-0.3-0.2,0-0.9-0.1-1.2
	c0-0.3-0.1-0.9-0.3-1.1c-0.1-0.1-0.3-0.1-0.4-0.1c-0.2,0-0.5,0.4-0.6,0.5C77.7,18.5,77.4,18.9,77.4,19.1"/>
<path class="st0" d="M70.4,43.6c-0.2,0.2-0.5,0.7-0.6,0.9c-0.1,0.3-0.1,1.1,0.1,1.3c0.2,0.1,0.7,0.1,0.9,0c0.3-0.2,0.9-0.8,0.9-1.2
	c0.1-0.4-0.2-1.5-0.6-1.6C70.9,42.9,70.6,43.4,70.4,43.6z"/>
<path class="st0" d="M60.3,53.9c0,0,0.3-0.5,0.4-0.7c0.2-0.4,0.8-1.1,0.7-1.5c-0.1-0.3-0.7-0.5-0.9-0.8c-0.2-0.3-0.3-1-0.3-1.3
	c0-0.2-0.1-0.6-0.1-0.9c0-0.4,0.4-1.3,0.3-1.7c-0.1-0.3-0.6-0.7-0.8-1c-0.1-0.2-0.2-0.5-0.3-0.7c-0.1-0.4-0.2-1.4,0.1-1.8
	c0.2-0.2,0.8-0.3,1-0.4c0.2-0.1,0.5-0.4,0.6-0.5c0.2-0.2,0.4-0.9,0.4-0.9s0.1,0.6,0.2,0.9c0.1,0.3,0.1,0.8,0.3,1
	c0.1,0.1,0.4,0.3,0.5,0.4c0.2,0.1,0.5,0.2,0.7,0.3c0.3,0.3,0.6,1.2,1,1.3c0.3,0,0.5-0.7,0.8-0.7c0.3,0,0.6,0.6,0.8,0.9
	c0.2,0.3,0.4,1,0.5,1.4c0.1,0.2,0.2,0.6,0.3,0.8c0.1,0.1,0.4,0,0.5,0.1c0.3,0.3,0,1.6,0,1.6s-0.8,0.2-1,0.2
	c-0.3-0.1-0.7-0.6-0.9-0.6c-0.3,0-0.8,0.7-0.9,0.9c-0.2,0.3-0.4,1.2-0.4,1.2s-0.8-0.3-1-0.2c-0.5,0.3-0.7,1.5-0.6,2.1
	c0,0.3,0.6,1.1,0.6,1.1l-0.9,0.9c0,0-0.6-0.4-0.7-0.5C60.8,54.6,60.3,53.9,60.3,53.9z"/>
<path class="st0" d="M53.9,41.7l0.4-0.9c0,0-0.2-1.5,0-2c0.1-0.3,0.7-0.7,0.9-0.9c0.2-0.3,0.3-1,0.4-1.4c0.1-0.3,0.5-0.8,0.8-1
	c0.3-0.2,1.1-0.3,1.3-0.6c0.1-0.1,0.1-0.6,0.1-0.6s0.9-0.3,1.1-0.2c0.1,0.1,0.2,0.4,0.3,0.6c0.1,0.3,0.4,0.8,0.4,1.1
	c0,0.2-0.3,0.7-0.4,0.9c-0.1,0.2-0.6,0.3-0.7,0.5c-0.1,0.2-0.2,0.7-0.1,0.9c0.2,0.2,0.9,0,1.1,0.2c0.2,0.2,0.4,0.8,0.5,1
	c0.1,0.4,0,1.3,0.3,1.6c0.2,0.2,0.8,0,0.9,0.2c0.1,0.1,0.3,0.7,0.3,0.7s-0.3,0.7-0.4,0.9c-0.1,0.2-0.4,0.4-0.6,0.5
	c-0.2,0.1-0.9,0.2-1,0.4c-0.3,0.4-0.2,1.3-0.1,1.8c0,0.2,0.2,0.5,0.3,0.7c0.2,0.3,0.7,0.7,0.8,1c0.1,0.4-0.2,1.3-0.3,1.7
	c0,0.2,0,0.6,0.1,0.9c0.1,0.3,0.2,1,0.3,1.3c0.1,0.2,0.8,0.5,0.9,0.8c0.1,0.4-0.5,1.1-0.7,1.5c-0.1,0.2-0.4,0.7-0.4,0.7
	s-0.3-1.4-0.4-1.9c-0.1-0.3-0.1-1-0.3-1.3c-0.1-0.2-0.7-0.4-0.8-0.6c-0.2-0.6,0.5-1.9,0.3-2.5c-0.1-0.4-0.5-1.4-0.9-1.5
	c-0.2,0-0.4,0.6-0.5,0.8c-0.2,0.2-0.4,0.6-0.7,0.7c-0.3,0.1-0.9-0.1-1-0.3c-0.3-0.4-0.1-1.7-0.2-2.2c0-0.3-0.1-0.8-0.3-1
	c-0.2-0.3-0.6-0.9-0.9-1.1c-0.2-0.2-0.8-0.5-0.9-0.8C53.8,42.1,53.9,41.7,53.9,41.7z"/>
<path class="st0" d="M66,53.4c-0.3-0.1-1,0.5-1.3,0.3c-0.3-0.2,0-1.3-0.2-1.6c-0.1-0.2-0.9-0.7-0.9-0.7s0.3-0.9,0.4-1.2
	c0.2-0.3,0.6-0.9,0.9-0.9c0.3,0,0.7,0.5,0.9,0.6c0.3,0.1,1-0.2,1-0.2s0.4,0.7,0.7,0.8c0.3,0,1-0.8,1-0.8s0.4,0.2,0.4,0.3
	c0.2,0.4,0.3,1.5,0.1,1.9c-0.1,0.2-0.5,0.4-0.7,0.5c-0.3,0.2-0.7,0.7-0.9,0.9c-0.2,0.2-0.9,0.8-0.9,0.8S66.2,53.5,66,53.4z"/>
<path class="st0" d="M61.4,41.8c0,0,0.1,0.6,0.2,0.9c0.1,0.3,0.1,0.8,0.3,1c0.1,0.1,0.4,0.3,0.5,0.4c0.2,0.1,0.5,0.2,0.7,0.3
	c0.3,0.3,0.6,1.2,1,1.3c0.3,0,0.5-0.7,0.8-0.7c0.3,0,0.6,0.6,0.8,0.9c0.2,0.3,0.4,1,0.5,1.4c0.1,0.2,0.2,0.6,0.3,0.8
	c0.1,0.1,0.4,0,0.5,0.1c0.3,0.3,0,1.6,0,1.6s0.4,0.7,0.7,0.8c0.3,0,1-0.8,1-0.8s0.2-1.5,0-2c-0.1-0.2-0.7-0.4-0.9-0.6
	c-0.5-0.5-1.1-1.7-1.5-2.2c-0.2-0.2-0.6-0.5-0.7-0.8c-0.1-0.3,0.3-0.8,0.3-1.1c0-0.2-0.1-0.6-0.2-0.7c-0.3-0.3-1.4-0.3-1.7-0.6
	c-0.3-0.3-0.6-1.5-0.6-1.5s-0.7,0.2-0.8,0.3c-0.1,0.2,0.3,0.8,0.2,1C62.6,41.9,61.4,41.8,61.4,41.8z"/>
<path class="st0" d="M63.4,40.2c0,0,0.3,1.3,0.6,1.5c0.3,0.3,1.4,0.3,1.7,0.6c0.1,0.1,0.2,0.5,0.2,0.7c0,0.3-0.3,0.8-0.3,1.1
	c0.1,0.2,0.5,0.6,0.7,0.8c0.4,0.5,1.1,1.7,1.5,2.2c0.2,0.2,0.7,0.4,0.9,0.6c0.2,0.4,0,2,0,2s0.4,0.2,0.4,0.3
	c0.2,0.4,0.3,1.5,0.1,1.9c-0.1,0.2-0.5,0.4-0.7,0.5c-0.3,0.2-0.7,0.7-0.9,0.9c-0.2,0.2-0.9,0.8-0.9,0.8s0.4,0.4,0.4,0.6
	c0,0.2-0.5,0.5-0.5,0.7c0,0.3,0.1,0.9,0.3,1c0.5,0.2,1.4-1,1.8-1.4c0.4-0.3,1.2-1,1.5-1.4c0.1-0.1,0.4-0.4,0.4-0.6
	c0.2-0.6,0.3-1.9,0.3-2.6c0-0.6-0.2-1.7-0.5-2.2c-0.2-0.5-1.1-1.1-1.5-1.5c-0.4-0.5-1.5-1.4-1.7-2c-0.1-0.3-0.1-1,0-1.4
	c0.1-0.2,0.4-0.5,0.5-0.6C68,42.6,69,42,69,42s-0.9-1.7-1.5-2.1c-0.3-0.2-1.1-0.4-1.5-0.5c-0.3,0-0.8-0.1-1,0
	C64.5,39.5,63.4,40.2,63.4,40.2z"/>
<path class="st0" d="M80.9,53.2c-0.1,0.2-0.1,0.5-0.2,0.7c-0.2,0.2-0.7,0.5-0.9,0.7c-0.2,0.2-0.5,0.6-0.5,0.9
	c-0.1,0.3-0.2,1.3,0.2,1.4c0.3,0.1,0.8-0.7,1-1c0.2-0.3,0.5-1,0.7-1.4c0.1-0.2,0.3-0.6,0.3-0.9c0-0.2-0.1-0.8-0.3-0.8
	C81,52.7,80.9,53,80.9,53.2z"/>
<path class="st0" d="M82.3,44.4c-0.3,0.2-0.5,0.8-0.6,1.1c-0.1,0.3-0.1,1.1-0.3,1.5c-0.1,0.2-0.6,0.4-0.7,0.6
	c-0.1,0.3-0.1,1.1,0.2,1.4c0.1,0.1,0.6,0.1,0.8,0.2c0.2,0.1,0.3,0.5,0.4,0.6c0.2,0.1,0.8,0,1-0.1c0.3-0.1,0.9-0.1,1-0.3
	c0.2-0.3-0.3-1-0.3-1.4c0-0.2,0.1-0.7,0.2-0.9c0-0.2,0-0.5,0-0.7c0-0.3-0.2-0.9-0.3-1.2c-0.1-0.2-0.1-0.5-0.3-0.6
	C83.1,44.3,82.5,44.2,82.3,44.4z"/>
<path class="st0" d="M82.6,51c0-0.3-0.8-0.5-1-0.4c-0.2,0.1-0.2,0.6-0.1,0.9c0.1,0.2,0.4,0.6,0.6,0.7c0.1,0.1,0.4,0.2,0.6,0.2
	c0.2,0,0.9-0.1,0.7-0.6C83.2,51.2,82.6,51.2,82.6,51"/>
<path class="st0" d="M84.2,50.2c0,0.2-0.2,0.6-0.1,0.8c0.1,0.2,0.5,0.4,0.7,0.4c0.3,0.1,1.1,0.3,1.4,0.1c0.2-0.1,0.1-0.7,0-0.9
	c-0.1-0.3-0.7-0.6-1-0.7C84.9,50,84.2,50,84.2,50.2"/>
<path class="st0" d="M84.1,52.6c0,0.2-0.3,0.6-0.3,0.8c0,0.2,0.2,0.5,0.3,0.6c0.3,0.1,0.9-0.1,1-0.3c0.1-0.2-0.1-0.6-0.3-0.8
	C84.8,52.7,84.1,52.8,84.1,52.6"/>
<path class="st0" d="M86.4,52.6c-0.1,0.1,0,0.5,0.2,0.6c0.1,0.1,0.4,0,0.5,0c0.1,0,0.4-0.2,0.4-0.3c0.1-0.1,0.2-0.5,0.1-0.6
	c-0.1-0.1-0.5,0-0.7,0C86.7,52.3,86.4,52.4,86.4,52.6z"/>
<path class="st0" d="M87.2,55c-0.3,0-0.7,0.5-0.9,0.7c-0.3,0.3-1,0.7-1,1.1c0,0.2,0.4,0.6,0.5,0.8c0.2,0.3,0.6,0.8,0.8,1
	c0.2,0.2,0.5,0.9,0.8,0.9c0.3,0,0.4-0.7,0.6-0.9c0.1-0.1,0.5-0.3,0.6-0.5c0.2-0.4,0.1-1.4,0-1.9c-0.1-0.2-0.3-0.6-0.4-0.8
	C87.9,55.2,87.4,54.9,87.2,55z"/>
<path class="st0" d="M84.7,55.3c0,0.2-0.5,0.5-0.6,0.7c-0.1,0.2-0.3,0.8-0.4,1c-0.1,0.2-0.3,0.6-0.2,0.7c0.2,0.2,0.7-0.2,0.9-0.3
	c0.2-0.2,0.4-0.6,0.5-0.9c0.1-0.2,0.4-0.7,0.3-0.9C85.2,55.4,84.7,55.4,84.7,55.3"/>
<path class="st0" d="M85.8,54.6c-0.2,0-0.4-0.2-0.4-0.4c0-0.2,0.2-0.4,0.4-0.4s0.4,0.2,0.4,0.4C86.1,54.5,86,54.6,85.8,54.6z"/>
<path class="st0" d="M90,68c-0.3,0-0.6-0.1-0.6-0.2c0-0.1,0.3-0.2,0.6-0.2c0.3,0,0.6,0.1,0.6,0.2C90.6,67.9,90.3,68,90,68z"/>
<path class="st0" d="M61.2,61.7c-0.3-0.2-1.1-0.4-1.5-0.6c-0.4-0.3-0.8-1.2-1.2-1.4c-0.4-0.1-1.2-0.1-1.5,0.2
	c-0.1,0.1-0.2,0.5-0.2,0.6c0.2,0.5,1.4,0.9,1.8,1.2c0.4,0.3,1.2,1,1.5,1.4c0.3,0.2,0.8,0.6,1,0.9c0.2,0.3,0.2,1.1,0.3,1.5
	c0.1,0.3,0.4,1,0.6,1.3c0.4,0.7,1.5,2.1,2,2.7c0.4,0.5,1.4,1.6,1.8,2.1c0.2,0.2,0.4,0.7,0.6,0.8c0.5,0.1,1.6-0.3,1.8-0.8
	c0.1-0.3-0.2-0.8-0.3-1.1c0-0.3,0.1-1,0-1.4c-0.1-0.2-0.3-0.6-0.5-0.8c-0.3-0.2-1.3-0.2-1.5-0.5c-0.1-0.1,0-0.5,0-0.7
	c-0.1-0.2-0.4-0.6-0.5-0.9c-0.1-0.3,0-0.9-0.1-1.2c-0.2-0.3-0.7-0.8-1-1c-0.3-0.2-1-0.5-1.4-0.8C62.6,62.9,61.7,62,61.2,61.7z"/>
<path class="st0" d="M67.7,67.2c0,0.2,0.6,0,0.8,0.1c0.2,0.1,0.5,0.4,0.6,0.6c0.1,0.2,0.4,0.7,0.3,0.9c-0.1,0.1-0.5,0.1-0.7,0.1
	c-0.3-0.1-0.9-0.7-1-1C67.5,67.7,67.7,67.3,67.7,67.2"/>
<path class="st0" d="M69.1,72.3c-0.2,0.1-0.7,0.2-0.9,0.3c-0.2,0.1-0.5,0.5-0.5,0.7c0,0.3,0.4,0.8,0.6,0.9c0.4,0.2,1.4-0.1,1.8,0
	c0.2,0,0.5,0.3,0.7,0.3c0.4,0.1,1.3-0.3,1.6,0c0.1,0.1,0,0.6,0.1,0.7c0.5,0.5,2.2,0,2.9,0c0.2,0,0.6,0,0.8,0c0.2,0,0.6,0.1,0.7,0
	c0.1-0.1,0.2-0.6,0.1-0.8c-0.1-0.2-0.8-0.2-0.9-0.4c-0.1-0.2,0.3-0.6,0.2-0.8c-0.1-0.2-0.6,0.1-0.9,0.1c-0.3,0-0.8,0-1.1-0.1
	c-0.2-0.1-0.6-0.4-0.9-0.5c-0.3-0.1-1.1,0-1.5-0.1c-0.4-0.1-1.1-0.5-1.5-0.5C70.2,72.1,69.5,72.2,69.1,72.3z"/>
<path class="st0" d="M78,75.6c0.2,0,0.4-0.1,0.4-0.3c0-0.2-0.2-0.3-0.4-0.3c-0.2,0-0.4,0.1-0.4,0.3C77.6,75.5,77.7,75.6,78,75.6z"/>
<path class="st0" d="M79,75.6c-0.1,0-0.2-0.1-0.2-0.3c0-0.2,0.1-0.3,0.2-0.3c0.1,0,0.2,0.1,0.2,0.3C79.2,75.5,79.1,75.6,79,75.6z"/>
<path class="st0" d="M80,75c0.1-0.1,0.4-0.3,0.5-0.3c0.1,0,0.4,0.2,0.4,0.3c0.1,0.2,0.1,0.6-0.1,0.7c-0.2,0.1-0.8-0.1-0.9-0.3
	C79.9,75.3,79.9,75.1,80,75z"/>
<path class="st0" d="M81.4,76.5c-0.1,0.1-0.3,0.6-0.2,0.7c0.2,0.2,0.8-0.2,1-0.3c0.1-0.1,0.3-0.3,0.3-0.4
	C82.4,76.2,81.6,76.4,81.4,76.5z"/>
<path class="st0" d="M82.2,75.3c0.2-0.3,0.9-0.2,1.2-0.2c0.3,0,1,0.2,1,0.4c0,0.2-0.5,0.5-0.8,0.6c-0.3,0.1-1,0-1.3-0.3
	C82.3,75.7,82.1,75.4,82.2,75.3z"/>
<path class="st0" d="M86.2,76.4c-0.1-0.1-0.6,0-0.8,0.1c-0.2,0.1-0.5,0.6-0.4,0.8c0.1,0.1,0.5,0.1,0.6,0c0.2-0.1,0.5-0.3,0.6-0.5
	C86.3,76.7,86.3,76.5,86.2,76.4z"/>
<path class="st0" d="M72.9,64c-0.5,0.2-1.7-0.4-2.1-0.1c-0.3,0.3-0.4,1.2-0.3,1.6c0.1,0.2,0.6,0.3,0.7,0.4c0.2,0.3-0.1,1,0.1,1.2
	c0.1,0.2,0.7,0,0.9,0.2c0.2,0.3-0.1,1.2,0.2,1.5c0.1,0.1,0.4,0,0.5,0.1c0.2,0.1,0.3,0.5,0.4,0.6c0.3,0.2,1.1,0.5,1.5,0.3
	c0.2-0.1,0.3-0.6,0.5-0.7c0.2-0.1,0.7,0,0.9,0.2c0.2,0.2,0.3,0.9,0.5,1c0.3,0.2,1,0.1,1.3-0.1c0.2-0.1,0.2-0.7,0.3-0.9
	c0.1-0.2,0.4-0.6,0.5-0.9c0.1-0.2-0.1-0.7,0-0.9c0.1-0.3,0.7-0.5,0.9-0.8c0.2-0.4,0.1-1.3,0.4-1.6c0.2-0.2,0.7-0.2,0.9-0.3
	c0.1-0.2,0.1-0.8,0-1c-0.1-0.3-0.8-0.4-0.9-0.7c-0.2-0.4-0.1-1.7-0.1-1.7s0.6-0.4,0.9-0.6c0.2-0.2,0.8-0.5,0.9-0.8
	c0.1-0.3-0.1-0.8-0.3-1c-0.2-0.2-0.9-0.2-1.2-0.3c-0.2-0.1-0.5-0.2-0.7-0.3c-0.3-0.1-0.9-0.7-1.2-0.6c-0.2,0.1-0.2,0.9-0.2,0.9
	s-0.6,0.3-0.8,0.4c-0.2,0.2-0.3,1.2-0.3,1.2s-0.6,0.3-0.8,0.4c-0.2,0.2-0.8,0.5-0.9,0.7c-0.2,0.2-0.3,0.9-0.5,1
	c-0.3,0.1-1-0.3-1.2-0.1c-0.2,0.1-0.2,0.7-0.3,0.9C73.3,63.6,73.1,64,72.9,64z"/>
<path class="st0" d="M82.1,64.8c-0.1,0.3,0,1.1-0.2,1.4c-0.1,0.2-0.4,0.4-0.5,0.6c-0.1,0.2,0,0.8-0.2,1c-0.1,0.2-0.7,0.3-0.8,0.5
	c-0.2,0.4-0.2,1.4,0,1.8c0.1,0.2,0.7,0.2,0.9,0.4c0.2,0.2,0,1,0.2,1.2c0.1,0.2,0.7,0.3,0.9,0.2c0.4-0.3,0-1.6,0.3-2
	c0.1-0.1,0.5-0.3,0.7-0.2c0.3,0.2-0.3,1.2-0.1,1.5c0.1,0.2,0.6,0.1,0.8,0.3c0.1,0.1,0.1,0.4,0.3,0.5c0.2,0.1,0.7,0,0.9-0.2
	c0.2-0.2,0-0.8-0.1-1.1c-0.2-0.6-1.3-1.6-1.2-2.2c0-0.2,0.5-0.4,0.6-0.5c0.2-0.2,0.6-0.8,0.6-1.1c0-0.1-0.3-0.4-0.4-0.4
	c-0.2,0-0.5,0.3-0.7,0.3c-0.2,0.1-0.5,0.4-0.7,0.3c-0.3-0.1-0.4-1-0.4-1.3c-0.1-0.3-0.4-1-0.2-1.2c0.1-0.1,0.4,0.1,0.5,0.2
	c0.2,0.1,0.4,0.4,0.6,0.4c0.3,0.1,0.8-0.2,1-0.2c0.2,0,0.4,0.3,0.5,0.3c0.3,0,0.8-0.2,1.1-0.3c0.2-0.1,0.5-0.2,0.6-0.3
	c0.1-0.3,0-0.9-0.3-1.1c-0.1-0.1-0.5-0.1-0.6,0c-0.2,0.1-0.2,0.7-0.4,0.8c-0.5,0.3-1.7-0.2-2.2-0.2c-0.3,0-1-0.1-1.3,0.1
	C82.2,64.5,82.1,64.7,82.1,64.8z"/>
<path class="st0" d="M89.8,64c-0.1,0.2-0.8,0.2-0.9,0.4c-0.1,0.2,0.1,0.8,0.3,1c0.2,0.3,0.7,0.8,1,0.7c0.3-0.1,0.3-1.1,0.3-1.5
	c0-0.3,0.1-0.9,0.1-1.2c0-0.2-0.1-0.9-0.3-0.9c-0.2,0-0.4,0.3-0.5,0.4C89.7,63.2,89.9,63.8,89.8,64z"/>
<path class="st0" d="M90.6,68.8c0.2-0.1,0.6-0.2,0.9-0.3c0.2,0,0.5-0.1,0.7,0c0.2,0.1,0.4,0.5,0.5,0.7c0.1,0.1,0.2,0.4,0.1,0.5
	c-0.2,0.1-0.6-0.3-0.8-0.3c-0.2-0.1-0.6-0.2-0.8-0.2c-0.2,0-0.7,0.3-0.9,0.2C90.2,69.3,90.5,69,90.6,68.8z"/>
<path class="st0" d="M87.6,68c-0.5,0-0.9-0.1-0.9-0.2c0-0.1,0.4-0.2,0.9-0.2c0.5,0,0.9,0.1,0.9,0.2C88.5,67.9,88.1,68,87.6,68z"/>
<path class="st0" d="M96.9,68.1c-0.2,0-0.8,0.3-0.9,0.1c-0.1-0.1,0.1-0.6,0.2-0.8c0.1-0.2,0.2-0.7,0.4-0.9c0.2-0.1,0.8,0.1,1,0.2
	c0.2,0.1,0.8,0.1,0.9,0.3c0.1,0.1-0.2,0.5-0.3,0.6c-0.1,0.2-0.5,0.5-0.7,0.6C97.3,68.2,97,68.1,96.9,68.1z"/>
<path class="st0" d="M104,69c0,0-0.8-0.3-1.1-0.4c-0.5-0.2-1.6-0.6-2.1-0.9c-0.2-0.1-0.4-0.4-0.6-0.4c-0.3-0.1-0.9,0.1-1.1,0.3
	c-0.3,0.2-0.7,0.9-1,1.1c-0.3,0.2-0.9,0.6-1.2,0.7c-0.3,0.1-0.8,0.1-1.1,0.2c-0.1,0-0.4,0.1-0.4,0.2c-0.1,0.2,0.2,0.7,0.4,0.8
	c0.2,0.1,0.8-0.2,1-0.2c0.4,0.1,1,0.6,1.4,0.8c0.2,0.1,0.7,0.4,0.9,0.6c0.3,0.2,0.8,0.6,0.9,0.9c0.1,0.3,0.1,0.8,0.1,1.1
	c0,0.1-0.2,0.4-0.3,0.5c-0.2,0.2-0.7,0.1-0.9,0.3c-0.1,0.2,0,0.7,0.2,0.9c0.3,0.2,1-0.1,1.3-0.1c0.3,0,0.9-0.1,1.2,0
	c0.2,0.1,0.3,0.4,0.4,0.5c0.2,0.1,0.6,0.3,0.9,0.3c0.3,0,1-0.2,1.2-0.4c0.2-0.2,0.4-0.7,0.5-0.9c0.1-0.2,0.5-0.7,0.5-0.7L104,69z"/>
<path class="st0" d="M64.9,57.5c0-0.4-1.2-0.5-1.4-0.8c-0.4-0.5-0.8-2.4-0.8-2.4l-0.9,0.9c0,0,0.1,1.2,0.1,1.6
	c0.1,0.9,0.1,2.9,0.5,3.8c0.2,0.5,0.9,1.3,1.2,1.7c0.2,0.3,0.6,1,1,1.2c0.5,0.3,1.6,0.6,2,0.3c0.1-0.1,0.1-0.5,0.1-0.7
	c0-0.8,0-2.6-0.3-3.3C66.2,59.1,64.9,58.2,64.9,57.5"/>
<path class="st0" d="M79.3,61c-0.2-0.1-0.5-0.2-0.7-0.2c-0.2,0.1-0.4,0.5-0.5,0.7c-0.2,0.2-0.5,0.8-0.6,1c-0.1,0.2-0.2,0.8-0.3,1
	c0,0.2,0,0.7-0.2,0.9c-0.2,0.2-0.9,0.3-1.2,0.2c-0.2-0.1-0.5-0.6-0.7-0.6c-0.2,0-0.2,0.4-0.3,0.5c-0.3,0.2-1,0-1.4-0.1
	c-0.2-0.1-0.5-0.4-0.5-0.4s0.3-0.4,0.4-0.6c0.1-0.2,0.1-0.8,0.3-0.9c0.2-0.2,0.9,0.2,1.2,0.1c0.2-0.1,0.3-0.8,0.5-1
	c0.2-0.2,0.7-0.5,0.9-0.7c0.2-0.1,0.8-0.4,0.8-0.4s0.1-0.9,0.3-1.2c0.1-0.2,0.8-0.4,0.8-0.4s0-0.8,0.2-0.9c0.3-0.1,0.9,0.5,1.2,0.6
	c0.2,0.1,0.5,0.2,0.7,0.3c0.3,0.1,1,0,1.2,0.3c0.2,0.2,0.3,0.8,0.3,1c-0.1,0.3-0.7,0.6-0.9,0.8c-0.2,0.2-0.9,0.6-0.9,0.6
	S79.4,61.1,79.3,61z"/>
<path class="st0" d="M78.1,58.8c0,0-0.6,0.3-0.8,0.4c-0.2,0.2-0.3,1.2-0.3,1.2s0.7-0.3,0.9-0.5c0.1-0.1,0.2-0.4,0.3-0.6
	C78.3,59.2,78.1,58.8,78.1,58.8z"/>
<path class="st0" d="M6,19.1c0,0-0.3,0.3-0.3,0.4c-0.1,0.3,0.3,1,0.4,1.3c0.1,0.3,0.4,1,0.5,1.3c0.1,0.3,0.2,1.3,0.2,1.3
	s0,0.6,0.2,0.8c0.2,0.2,0.9,0,1,0.2c0.2,0.2,0,0.8-0.2,1c-0.1,0.2-0.6,0.3-0.7,0.5c-0.1,0.2-0.1,0.8,0,1c0.1,0.2,0.8,0.2,0.9,0.4
	c0.1,0.2,0,0.7,0.2,0.9c0.1,0.1,0.5,0.2,0.7,0.2c0.2,0,0.5-0.3,0.7-0.2c0.2,0.1,0.2,0.6,0.2,0.9c0,0.2-0.4,0.7-0.3,0.9
	c0.1,0.1,0.5,0.1,0.6,0.3c0.1,0.2,0.1,0.9,0.1,0.9s0.3,0.4,0.4,0.4c0.2,0.1,0.8,0,0.9-0.2c0.1-0.1,0-0.4,0.1-0.4
	c0.3,0,0.4,0.7,0.5,0.9c0.1,0.3,0,1.1,0.3,1.4c0.1,0.2,0.7,0.1,0.9,0.3c0.1,0.1-0.2,0.5-0.1,0.6c0.1,0.2,0.7,0,0.9,0.1
	c0.2,0.1,0.3,0.7,0.5,0.8c0.6,0.4,2.3,0.5,3,0.2c0.2-0.1,0.2-0.7,0.4-0.8c0.2-0.1,0.5,0.1,0.6,0.3c0.3,0.3,0.1,1.2,0.3,1.5
	c0.2,0.3,0.7,0.6,1,0.7c0.7,0.2,2.2-0.3,3-0.2c0.2,0,0.5,0.2,0.6,0.2c0.2-0.1,0.3-0.9,0.3-0.9s0.6-0.1,0.8-0.3
	c0.2-0.1,0.6-0.5,0.6-0.8c0-0.2-0.2-0.5-0.3-0.6c-0.2-0.1-0.6,0-0.8-0.1c-0.2-0.2-0.3-1.1-0.3-1.1s-1-0.2-1.1-0.5
	c-0.1-0.2,0-0.7,0.1-0.9c0.1-0.2,0.5-0.5,0.5-0.7c0.1-0.3-0.1-1-0.3-1.2c-0.2-0.2-1,0.2-1.2,0c-0.4-0.4,0.3-1.8,0.3-2.4
	c0-0.4-0.3-1.5-0.3-1.5s0.6-1.7,0.3-2.2c-0.2-0.3-1-0.5-1.4-0.7c-0.4-0.2-1.1-0.9-1.5-1.1c-0.3-0.1-0.8,0-1.1-0.1
	c-0.4-0.1-1.3-0.5-1.7-0.3c-0.2,0.1-0.3,0.7-0.4,0.9c-0.2,0.2-0.8,0.3-1,0.4c-0.3,0.1-0.8,0.2-1,0.3c-0.2,0.1-0.3,0.5-0.5,0.5
	c-0.3,0.1-0.9-0.1-1.2-0.2c-0.3-0.1-0.8-0.6-1.1-0.9c-0.2-0.2-0.8-0.4-0.9-0.7c-0.2-0.3-0.3-1.3-0.3-1.3s0-1.2-0.3-1.3
	c-0.2-0.1-0.5,0.2-0.6,0.3c-0.1,0.2-0.1,0.7-0.3,0.9c-0.3,0.2-1.3,0-1.3,0s-0.3-0.7-0.4-0.9C6.6,19.5,6,19.1,6,19.1z"/>
<path class="st0" d="M6,15.2c0,0,0.2,1.1,0.3,1.5c0.1,0.4,0.6,1.1,0.7,1.5c0.2,0.5,1,1.3,0.9,1.8c-0.1,0.2-0.8,0.5-0.8,0.5
	s1,0.2,1.3,0c0.2-0.1,0.1-0.7,0.3-0.9c0.1-0.1,0.4-0.4,0.6-0.3c0.3,0.1,0.3,1.3,0.3,1.3s0.5-0.3,0.6-0.4c0.1-0.2,0-0.8,0.2-1
	c0.1-0.1,0.6-0.1,0.7-0.3c0.1-0.1-0.1-0.5-0.2-0.6c-0.2-0.2-0.8-0.5-1-0.7c-0.3-0.2-0.7-0.7-0.9-1c-0.3-0.4-1-1.9-1-1.9L6,15.2z"/>
<path class="st0" d="M0,13.8c0,0,1.5-1.2,2.1-1.2c0.3,0,0.9,0.6,1.2,0.7c0.2,0,0.6-0.1,0.8,0c0.3,0.1,0.7,0.6,0.9,0.8
	c0.3,0.3,1,1.1,1,1.1s-0.4,1-0.7,1.2c-0.2,0.2-1,0.5-1,0.5l-1.3,0.1c0,0-0.1-0.8-0.2-1c-0.1-0.2-0.3-0.7-0.5-0.9
	C2.1,15,1.3,15,1,14.8C0.7,14.6,0,13.8,0,13.8z"/>
<path class="st0" d="M8,20c-0.1,0.2-0.8,0.5-0.8,0.5s-0.3-0.7-0.4-0.9C6.6,19.5,6,19.1,6,19.1s-0.6-0.6-0.8-0.8
	C4.9,18,4.3,17,4.3,17s0.8-0.3,1-0.5C5.6,16.2,6,15.2,6,15.2s0.2,1.1,0.3,1.5c0.1,0.4,0.6,1.1,0.7,1.5C7.3,18.6,8.1,19.5,8,20z"/>
<path class="st0" d="M94.6,0.8c0,0.2,0,0.6,0,0.8c0,0.2,0.2,0.7,0.3,0.9c0.1,0.3,0.3,0.9,0.3,1.2C95.3,4,95.4,4.7,95.5,5
	c0.1,0.2,0.6,0.4,0.6,0.6c0.1,0.2-0.3,0.7-0.3,0.9c0,0.1,0.1,0.4,0.2,0.4c0.1,0.1,0.3,0,0.4,0c0.3,0.1,0.7,0.5,1,0.5
	c0.2,0,0.6-0.2,0.6-0.4c0.1-0.3-0.4-1-0.5-1.3c-0.2-0.5-1.1-1.5-0.8-1.9c0.1-0.1,0.6,0.3,0.7,0.1c0.2-0.3-0.7-1-0.9-1.3
	c-0.2-0.3-0.6-0.7-0.7-1c-0.1-0.3,0-1.1-0.3-1.4c-0.2-0.2-0.9-0.5-1.1-0.3C94.2,0.2,94.6,0.6,94.6,0.8z"/>
</svg>
