<?xml version="1.0" encoding="utf-8"?>
<!-- Generator: Adobe Illustrator 22.0.1, SVG Export Plug-In . SVG Version: 6.00 Build 0)  -->
<svg version="1.1" id="Layer_3" xmlns="http://www.w3.org/2000/svg" xmlns:xlink="http://www.w3.org/1999/xlink" x="0px" y="0px"
	 viewBox="0 0 176.7 73.4" style="enable-background:new 0 0 176.7 73.4;" xml:space="preserve">
<style type="text/css">
	.st0{fill:rgba(0,59,77,.5);}
</style>
<g>
	<path class="st0" d="M12.4,49.5c0,0-0.2,0.5-0.1,0.6c0.1,0.2,0.6,0.3,0.8,0.4c0.2,0.2,0.3,0.7,0.4,0.9c0.2,0.2,1.1,0.4,1.1,0.4
		s0.1-0.4,0.2-0.5c0.1-0.2,0.6-0.7,0.6-0.7l-0.6-0.3c0,0,0-0.7-0.2-0.9c-0.1-0.1-0.5-0.1-0.6-0.1c-0.1,0-0.6,0.2-0.6,0.2H12.4z"/>
	<path class="st0" d="M16,56.4c0,0-0.5-0.3-0.5-0.4c-0.1-0.2,0.1-0.5,0.2-0.7c0.1-0.2,0.3-0.5,0.4-0.6c0.1-0.1,0.6-0.2,0.6-0.2
		s0.5,0.1,0.6,0.1c0.2,0,0.5-0.2,0.7-0.2c0.2,0,0.6,0.3,0.6,0.3l0.2,0.7c0,0-0.2,0.7-0.4,0.8c-0.1,0-0.3-0.2-0.4-0.2
		c-0.1,0-0.2,0.4-0.3,0.4c-0.1,0-0.2-0.5-0.3-0.5c-0.1,0-0.3,0.3-0.4,0.4C16.7,56.4,16,56.4,16,56.4z"/>
	<path class="st0" d="M13.4,49.5c0,0,0.4-0.2,0.6-0.2c0.2,0,0.5,0,0.6,0.1c0.2,0.1,0.2,0.9,0.2,0.9s0-0.9,0.1-1.2
		c0.1-0.2,0.6-0.3,0.7-0.5c0.2-0.2,0.5-0.7,0.6-0.9c0.1-0.2,0-1,0-1s-1,0-1.3,0.2c-0.1,0-0.2,0.2-0.2,0.3c0,0.1-0.1,0.2-0.1,0.2
		c0,0.1,0,0.3-0.1,0.4c-0.2,0.1-0.4-0.4-0.6-0.3c-0.3,0.1-0.5,0.8-0.4,1.1c0,0.1,0.2,0.1,0.2,0.2C13.8,49,13.4,49.5,13.4,49.5z"/>
	<path class="st0" d="M18.7,55.4l-0.2-0.7c0,0,0.3,0.1,0.4,0.1c0.1,0,0.3,0.1,0.4,0c0.3,0,0.9-0.3,1.2-0.5c0.2-0.1,0.7-0.4,0.9-0.6
		c0.1-0.1,0.3-0.2,0.3-0.3c0.1-0.2,0-1,0-1s0.5,0.6,0.8,0.7c0.2,0.1,0.5,0,0.7-0.1c0.1-0.1,0.1-0.5,0.2-0.6c0.2-0.1,0.7-0.1,0.9,0.1
		c0.1,0.1-0.2,0.5-0.1,0.6c0.1,0.2,0.6,0.4,0.6,0.4s0.2,0.7,0.1,0.9c0,0.2-0.3,0.4-0.4,0.6c0,0.1,0,0.2,0,0.3
		c-0.1,0.1-0.3,0.5-0.3,0.5s-0.7,0.4-0.9,0.4c-0.4,0-1.6-0.3-1.6-0.3s-0.4-0.6-0.6-0.7c-0.2,0-0.6,0.4-0.9,0.4c-0.2,0.1-0.8,0.1-1,0
		C19,55.7,18.7,55.4,18.7,55.4"/>
	<path class="st0" d="M11.4,49.7c-0.2,0.2-0.1,0.7-0.2,0.9c-0.1,0.1-0.4,0.3-0.5,0.4c-0.1,0.1-0.1,0.4-0.2,0.5
		c-0.2,0.1-0.6-0.2-0.8-0.1c-0.1,0.1-0.1,0.5-0.2,0.6c-0.1,0.1-0.6,0.2-0.8,0.1c-0.2-0.1-0.3-0.6-0.5-0.6c-0.1,0-0.5,0-0.5,0.2
		C7.7,51.8,8,52.1,8,52.2c0,0.2,0,0.5-0.2,0.6c-0.2,0.1-0.7,0-0.9,0.1c-0.1,0-0.3,0.2-0.4,0.3c0,0-0.1,0.1-0.2,0.1
		c-0.2,0.1-0.8,0-0.9,0.2c0,0,0,0.2,0,0.3c0,0.1-0.1,0.3,0,0.4c0.2,0.3,0.9,0.4,1.2,0.6C6.8,54.8,7,54.9,7.2,55
		c0.2,0.1,0.5,0.5,0.6,0.7c0.1,0.2,0.2,0.7,0.3,0.9c0.1,0.2,0.6,0.4,0.6,0.6c0,0.1-0.4,0.1-0.5,0.3c-0.4,0.5-0.1,1.9-0.3,2.5
		c-0.1,0.2-0.3,0.6-0.3,0.6s0.9,0.4,1.3,0.4c0.3,0.1,1,0,1.4,0.1c0.2,0.1,0.5,0.5,0.7,0.6c0.4,0.2,1.9-0.1,1.9-0.1s-0.2-0.5-0.2-0.7
		c0-0.2,0.2-0.6,0.3-0.8C13,60,13.5,60,13.6,60c0.2,0,0.7-0.1,0.9,0c0.2,0.1,0.4,0.4,0.6,0.4c0.2,0.1,0.6,0.3,0.8,0.2
		c0.3-0.1,0.6-1,0.6-1s0.1-0.5,0-0.7c-0.1-0.2-0.6-0.2-0.8-0.3c-0.1-0.2-0.1-0.7-0.1-0.9c0-0.2,0.4-0.4,0.4-0.6c0.1-0.2,0-0.7,0-0.7
		s-0.5-0.3-0.5-0.4c-0.1-0.2,0.1-0.5,0.2-0.7c0.1-0.2,0.3-0.5,0.4-0.6c0.1-0.1,0.6-0.2,0.6-0.2s-0.3-1.1-0.2-1.5
		c0-0.2,0.4-0.3,0.4-0.5c0-0.3-0.9-0.8-0.9-0.8l-1.4,0.1c0,0-0.9-0.2-1.1-0.4c-0.2-0.2-0.3-0.7-0.4-0.9c-0.2-0.2-0.7-0.2-0.8-0.4
		c-0.1-0.1,0.1-0.6,0.1-0.6S11.6,49.6,11.4,49.7z"/>
	<path class="st0" d="M18.7,61c-0.1,0-0.2,0.3-0.3,0.3c-0.1,0.1-0.5,0.2-0.6,0.4c-0.1,0.2,0,0.5,0.1,0.7c0.1,0.1,0.4,0.5,0.5,0.4
		C18.9,62.7,19.1,61.2,18.7,61z"/>
	<path class="st0" d="M23,49.7c0,0-0.6-1.3-0.6-1.8c-0.1-0.5,0.2-2,0.2-2s-0.2-0.3-0.3-0.3c-0.6-0.2-1.8,0.7-2.3,0.5
		c-0.2-0.1-0.4-0.4-0.5-0.6c-0.1-0.2-0.5-0.8-0.5-0.8l-1.1,0.3c0,0-0.1,0.7-0.1,1c0,0.1,0.1,0.3,0.1,0.4c-0.1,0.1-0.3,0-0.4,0
		c-0.3,0.1-1.2,0.4-1.2,0.4s0.1,0.8,0,1c-0.1,0.3-0.4,0.7-0.6,0.9c-0.2,0.2-0.6,0.3-0.7,0.5c-0.2,0.2-0.1,1.2-0.1,1.2l0.6,0.3
		c0,0-0.2,0.5-0.1,0.7c0.1,0.2,0.7,0.4,0.7,0.4s0.9,0.5,0.9,0.8c0,0.2-0.4,0.4-0.4,0.5c-0.1,0.4,0.2,1.5,0.2,1.5s0.5,0.1,0.6,0.1
		c0.2,0,0.5-0.2,0.7-0.2c0.2,0,0.6,0.3,0.6,0.3s0.3,0.1,0.4,0.1c0.1,0,0.3,0.1,0.4,0c0.3,0,0.9-0.3,1.2-0.5c0.2-0.1,0.7-0.4,0.9-0.6
		c0.1-0.1,0.3-0.2,0.3-0.3c0.1-0.2,0-1,0-1s-1.7-1.2-1.5-1.8C20.4,50,23,49.7,23,49.7z"/>
	<path class="st0" d="M16,51.8l-1.4,0.1c0,0,0.1-0.4,0.2-0.5c0.1-0.2,0.6-0.7,0.6-0.7s-0.2,0.5-0.1,0.7C15.4,51.5,16,51.8,16,51.8z"
		/>
	<path class="st0" d="M42.9,73.4c0,0,0.8-0.3,0.9-0.5c0.2-0.2,0.6-0.8,0.5-1.1c-0.1-0.3-0.9-0.6-0.9-0.6L42.9,73.4z"/>
	<path class="st0" d="M43.5,69.1c0,0,0.6-0.1,0.9-0.2c0.4-0.1,1.2-0.1,1.5-0.2c0.3,0,0.8,0,1.1,0c0.3,0,1-0.4,1.3-0.3
		c0.2,0.1,0.3,1,0.3,1s0.5-0.4,0.7-0.6c0.2-0.1,0.4-0.5,0.6-0.6c0.2-0.1,0.7-0.3,0.9-0.3c0.2,0.1,0.3,0.6,0.4,0.7
		c0.3,0.2,1.2,0.1,1.2,0.1s-0.2-1-0.2-1.3c-0.1-0.3-0.4-1-0.5-1.3c-0.1-0.3-0.5-0.9-0.4-1.3c0-0.1,0.3-0.4,0.3-0.4S51,64,50.9,63.8
		c-0.2-0.3-0.9-1.4-0.9-1.4l-1.3,0.1c0,0-0.3,0.6-0.5,0.7c-0.5,0.2-1.5,0-2,0.1c-0.2,0-0.6,0.1-0.9,0.1c-0.3-0.1-0.7-0.4-0.9-0.5
		c-0.2,0-0.6,0.1-0.8,0c-0.2-0.1-0.5-0.6-0.7-0.8c-0.2-0.2-0.7-0.5-0.9-0.5c-0.3,0-0.7,0.4-0.9,0.5c-0.3,0.1-1,0.1-1.4,0.2
		c-0.2,0.1-0.7,0.2-0.9,0.3c-0.3,0.1-1,0.1-1.3,0.1c-0.2,0-0.6-0.1-0.8-0.1c-0.3,0-1,0.2-1,0.5c0,0.2,0.6,0.1,0.6,0.3
		c0,0.2-0.5,0.2-0.7,0.4c-0.1,0.1-0.2,0.4-0.3,0.5c-0.1,0.2-0.6,0.4-0.7,0.6c-0.1,0.1-0.1,0.4-0.2,0.5c0,0.1-0.2,0.4-0.1,0.5
		c0.1,0.1,0.4,0,0.4,0.1c0.1,0.1-0.2,0.5-0.1,0.6c0,0.1,0.3,0.2,0.4,0.3c0.1,0.1-0.1,0.5,0,0.6c0,0.2,0.2,0.4,0.4,0.5
		c0.1,0,0.3-0.1,0.4-0.1c0.1,0.1,0,0.4,0.1,0.5c0.2,0.2,0.7,0.2,0.9,0.3c0.2,0.1,0.3,0.6,0.5,0.7c0.2,0.1,0.5-0.2,0.7-0.3
		c0.1-0.1,0.3-0.2,0.4-0.3c0.1-0.1,0.4-0.4,0.5-0.4c0.3,0,0.8,0.6,1.1,0.7c0.3,0.1,0.9,0.1,1.2,0.1c0.3,0,1-0.1,1.4-0.2
		c0.1,0,0.4,0,0.5,0C43.3,69.1,43.5,69.1,43.5,69.1z"/>
	<path class="st0" d="M40.9,70.8c-0.2,0-0.7,0.2-0.9,0.2c-0.3,0-0.1-0.5-0.1-0.6c0-0.1,0.3-0.1,0.9-0.1c0.3,0,0.9-0.2,1.1-0.2
		c0.2,0-0.2,0.4-0.2,0.5C41.6,70.7,41.5,70.8,40.9,70.8z"/>
	<path class="st0" d="M18.9,44.7l-1.1,0.3c0,0-0.2-0.8-0.4-1c-0.1-0.1-0.5-0.1-0.6-0.3c-0.2-0.4-0.3-1.4,0-1.7
		c0.2-0.2,1,0.1,1.3-0.1c0.3-0.2,0.3-1.2,0.6-1.2c0.4,0,0.7,0.8,0.8,1.2c0,0.5-0.6,1.3-0.7,1.7C18.7,43.9,18.9,44.7,18.9,44.7z"/>
	<path class="st0" d="M17.8,40.5c-0.1-0.1,0.1-0.4,0.2-0.5c0.1-0.1,0.4,0,0.6,0c0.1,0,0.4-0.1,0.4,0C19.1,40.3,18.1,40.7,17.8,40.5z
		"/>
	<path class="st0" d="M34.7,42.3c0,0,0-0.5-0.1-0.7c-0.3-0.4-1.4-0.9-2-0.8c-0.6,0-1.5,1.1-2,1.2c-0.4,0.1-1.6,0.1-1.6,0.1
		s-0.2-1.3-0.1-1.7c0.1-0.2,0.4-0.7,0.7-0.7c0.3,0,0.5,1,0.8,1.1c0.2,0.1,0.8,0.2,1,0c0.2-0.2,0.4-0.8,0.3-1
		c-0.1-0.2-0.6-0.2-0.8-0.3c-0.1-0.1-0.3-0.8-0.3-0.8s1.5-0.3,1.9-0.2c0.3,0.1,0.7,0.7,1,0.8c0.4,0.2,1.9,0.1,1.9,0.1l1.6,1.4
		c0,0-0.5,0.5-0.7,0.5c-0.3,0-0.8-0.4-1-0.3C34.8,41.1,34.7,42.3,34.7,42.3z"/>
	<path class="st0" d="M35.3,39.4c0,0-1.4,0.1-1.9-0.1c-0.3-0.1-0.7-0.7-1-0.8c-0.5-0.1-1.9,0.2-1.9,0.2s0.6-0.5,0.8-0.7
		c0.3-0.2,1-0.6,1.4-0.7c0.4,0,1.5,0.5,1.5,0.5L35.3,39.4z"/>
	<path class="st0" d="M29.5,28c0,0,0.6-0.2,0.7-0.4c0.2-0.5,0-1.6-0.1-2.1c0-0.2,0-0.5-0.1-0.7c-0.1-0.2-0.6-0.5-0.8-0.7
		c-0.2-0.2-0.8-0.9-0.8-0.9s0.5,0.1,0.7,0.2c0.2,0.1,0.7,0.2,0.9,0.2c0.3,0,1.1,0,1.4-0.2c0.2-0.2,0.3-0.8,0.4-1
		c0.1-0.2,0.4-0.6,0.6-0.8c0.1-0.1,0.4-0.5,0.6-0.5c0.2,0,0.6,0.1,0.8,0.2c0.2,0.1,0.7,0.4,0.8,0.7c0.1,0.4-0.6,1.6-0.6,1.6l1.1,1
		l0,0c0,0,0,0.8,0,1.1c0,0.3,0.3,1,0.3,1.4c0.1,0.4,0,1.2,0.1,1.6c0.1,0.4,0.3,1,0.4,1.4c0.1,0.4,0.3,1.2,0.5,1.5
		c0.1,0.2,0.4,0.5,0.5,0.6c0.2,0.2,0.7,0.6,0.7,0.6s-0.6,0.5-0.8,0.7c-0.3,0.3-0.8,0.8-1,1.1c-0.2,0.3-0.8,0.8-0.9,1.1
		c-0.1,0.2-0.2,0.7-0.3,0.9c0,0.3,0.1,1.1,0.1,1.1s-0.6-1.4-1-1.5c-0.3-0.1-1,0.1-1.3,0.2c-0.2,0.1-0.4,0.5-0.6,0.6
		c-0.4,0.2-1.3,0.1-1.7-0.1c-0.3-0.1-1-0.6-1.2-0.9c-0.2-0.2-0.3-0.8-0.4-1.1c-0.1-0.3-0.3-0.8-0.3-1.1c0-0.5,0-1.5,0.3-1.9
		c0.2-0.3,0.9-0.3,1.2-0.5c0.2-0.2,0.7-0.6,0.9-0.9c0.1-0.2,0-0.9,0.3-1.1c0.3-0.2,1.3,0.5,1.5,0.2c0.2-0.4-0.5-1.2-0.9-1.5
		C31,27.9,29.5,28,29.5,28z"/>
	<path class="st0" d="M2.2,44.3c-0.1,0-0.3,0.3-0.3,0.4c-0.1,0.2,0.1,0.6,0,0.7c-0.3,0.3-1.3-0.1-1.6,0.2c-0.1,0.1-0.1,0.4-0.2,0.5
		c0,0.2-0.1,0.7,0,0.9c0.1,0.1,0.4,0,0.5,0.1c0.1,0.1,0.1,0.5,0,0.6c-0.1,0.1-0.4,0.2-0.5,0.3c-0.1,0.2,0.1,0.6,0.1,0.9
		c0,0.1-0.1,0.5,0,0.6c0.2,0.2,0.8,0,1.1-0.1c0.3-0.1,0.7-0.6,1-0.7c0.2-0.1,0.6,0,0.9,0c0.2,0,0.6,0,0.7-0.2
		c0.3-0.3,0.3-1.1,0.3-1.5c0-0.3-0.4-1.1-0.4-1.1s-0.9,0.2-1.1,0c-0.1-0.1-0.2-0.4-0.2-0.6c0-0.2,0.3-0.8,0.3-0.8S2.3,44.3,2.2,44.3
		z"/>
	<path class="st0" d="M22.2,22.4c-0.2,0.1-0.5,0.4-0.4,0.5c0.1,0.2,0.7,0.2,0.9,0.1c0.2-0.1,0.4-0.4,0.3-0.6
		C22.9,22.2,22.4,22.3,22.2,22.4z"/>
	<path class="st0" d="M23.8,21.5c-0.2,0.2-0.1,0.8,0.1,0.9c0.1,0.1,0.4,0.1,0.5,0.2c0.2,0.2-0.1,1.1,0.2,1.1c0.2,0,0.2-0.6,0.3-0.8
		c0-0.2,0-0.5,0-0.7c0-0.2,0.1-0.6-0.1-0.8C24.6,21.3,24,21.3,23.8,21.5z"/>
	<path class="st0" d="M25.4,21.8c-0.1,0.2,0.3,0.5,0.4,0.5c0.2,0,0.5-0.5,0.3-0.7C26.1,21.5,25.5,21.6,25.4,21.8z"/>
	<path class="st0" d="M34.7,21.9"/>
	<path class="st0" d="M34.1,23.5c0,0,0.7-1.2,0.6-1.6c-0.1-0.2-0.5-0.6-0.8-0.7c-0.2-0.1-0.6-0.2-0.8-0.2c-0.2,0-0.5,0.4-0.6,0.5
		c-0.2,0.2-0.5,0.6-0.6,0.8c-0.1,0.2-0.2,0.9-0.4,1c-0.3,0.2-1,0.2-1.4,0.2c-0.2,0-0.7-0.1-0.9-0.2c-0.2,0-0.7-0.2-0.7-0.2
		s-0.5,0.4-0.6,0.5c-0.1,0.1-0.3,0.5-0.5,0.6c-0.2,0.1-0.7,0-0.9,0c-0.2,0-0.5,0-0.7,0.1c-0.2,0.1-0.4,0.4-0.5,0.5
		c-0.1,0.1-0.4,0.2-0.5,0.3c-0.2,0-0.5-0.3-0.6-0.2c-0.2,0.1,0,0.7-0.1,0.9C24,26,23.6,26,23.6,26.2c-0.1,0.2,0,0.7-0.2,0.9
		c-0.1,0.1-0.5,0-0.7,0.1c-0.2,0.1-0.1,0.6-0.3,0.8C22.4,28,22,28,21.9,28.1c-0.2,0.3-0.1,1-0.2,1.3c-0.1,0.2-0.5,0.6-0.4,0.9
		c0,0.2,0.6,0.3,0.6,0.5c0,0.1-0.3,0.3-0.4,0.3c-0.2,0.1-0.7-0.3-0.9-0.2c-0.2,0.1-0.2,0.5-0.3,0.7c0,0.5,0.2,1.3,0.3,1.8
		c0,0.3,0.1,0.8,0.2,1.1c0.1,0.3,0.4,0.8,0.5,1.1c0.1,0.3,0.4,0.9,0.3,1.2c-0.1,0.2-0.8,0.3-0.9,0.5c-0.2,0.2-0.2,0.9-0.3,1.2
		c-0.1,0.2-0.3,0.7-0.3,0.7s-0.5-0.4-0.7-0.4c-0.4-0.1-1.1,0.1-1.5,0.3c-0.2,0.1-0.6,0.4-0.8,0.5c-0.2,0.1-0.6,0.2-0.8,0.3
		c-0.3,0.1-1,0.3-1.2,0.1c-0.2-0.2,0.1-0.9-0.1-1.2c-0.1-0.1-0.4-0.2-0.5-0.3c-0.2-0.4,0.5-1.4,0.3-1.8c-0.1-0.1-0.6,0-0.7-0.1
		c-0.4-0.5-0.5-2-0.1-2.6c0.1-0.2,0.6-0.1,0.8-0.3c0.1-0.1,0.1-0.5,0.2-0.6c0.2-0.2,0.7-0.3,0.9-0.3c0.2,0,0.7,0,0.9-0.1
		c0.2-0.1,0.3-0.5,0.4-0.6c0.2-0.1,0.8,0.1,1-0.1c0.2-0.2-0.1-1,0.1-1.2c0.2-0.3,1.1-0.2,1.4-0.4c0.2-0.2,0-0.7,0.2-0.9
		c0.1-0.2,0.6-0.3,0.7-0.5c0.1-0.2,0.2-0.7,0.3-0.9c0.1-0.2,0.1-0.7,0.3-0.9c0.2-0.3,0.8-0.8,1-1c0.2-0.2,0.6-0.8,0.9-1
		c0.2-0.2,0.7-0.6,0.9-0.7c0.3-0.1,1-0.1,1.4-0.2c0.2-0.1,0.6-0.4,0.8-0.4c0.3-0.1,1.2,0,1.5-0.3c0.2-0.1,0.1-0.7,0.3-0.9
		c0.2-0.2,0.8-0.2,0.9-0.4c0.1-0.2-0.1-0.8-0.3-1c-0.1-0.2-0.7-0.3-0.7-0.5c0-0.3,0.8-0.2,1-0.3c0.1-0.1,0.2-0.7,0.3-0.7
		c0.2,0,0,0.8,0.2,0.9c0.1,0.1,0.4,0.2,0.5,0.2c0.1-0.1-0.1-0.4,0-0.5c0.1-0.1,0.4-0.1,0.5,0c0.1,0.1,0.1,0.4,0.2,0.4
		c0.1,0.1,0.5,0.2,0.7,0.2c0.2-0.1,0.4-0.6,0.3-0.8c0-0.1-0.5-0.2-0.5-0.3c0-0.2,0.6-0.5,0.9-0.5c0.3,0,0.6,0.7,0.9,0.7
		c0.2,0,0.3-0.9,0.5-0.9c0.2,0,0.1,0.8,0.3,0.9c0.2,0.1,0.6,0.1,0.9,0.1c0.3-0.1,0.6-0.7,0.9-0.7c0.3,0,1,0.4,1.1,0.7
		c0.1,0.2-0.3,0.6-0.2,0.8c0.3,0.5,1.9,0.7,1.9,0.7S37,22,36.7,22.3c-0.3,0.3-0.9,0.9-1.1,1.2c-0.2,0.2-0.4,1.1-0.4,1.1L34.1,23.5z"
		/>
	<path class="st0" d="M19.9,39.2c0,0,0.3-0.5,0.3-0.7c0.1-0.3,0.1-1,0.3-1.2c0.2-0.2,0.8-0.3,0.9-0.5c0.1-0.3-0.2-0.9-0.3-1.2
		c-0.1-0.3-0.4-0.8-0.5-1.1c-0.1-0.3-0.1-0.8-0.2-1.1c-0.1-0.4-0.3-1.3-0.3-1.8c0-0.2,0.1-0.6,0.3-0.7c0.2-0.1,0.7,0.2,0.9,0.2
		c0.1,0,0.4-0.2,0.4-0.3c0-0.2-0.6-0.3-0.6-0.5c0-0.2,0.4-0.6,0.4-0.9c0.1-0.3,0-1,0.2-1.3c0.1-0.1,0.4-0.1,0.5-0.3
		c0.1-0.2,0.1-0.6,0.3-0.8c0.1-0.1,0.6,0,0.7-0.1c0.2-0.1,0-0.7,0.2-0.9c0.1-0.1,0.4-0.2,0.5-0.3c0.1-0.2-0.1-0.7,0.1-0.9
		c0.1-0.1,0.4,0.2,0.6,0.2c0.1,0,0.4-0.2,0.5-0.3c0.1-0.1,0.4-0.4,0.5-0.5c0.2-0.1,0.5-0.1,0.7-0.1c0.2,0,0.7,0.1,0.9,0
		c0.2-0.1,0.4-0.5,0.5-0.6c0.1-0.1,0.6-0.5,0.6-0.5s0.6,0.7,0.8,0.9c0.2,0.2,0.6,0.5,0.8,0.7c0.1,0.2,0.1,0.5,0.1,0.7
		c0,0.5,0.3,1.7,0.1,2.1c-0.1,0.2-0.7,0.4-0.7,0.4s-0.6,0.4-0.8,0.6c-0.2,0.3-0.2,0.9-0.3,1.2c0,0.2,0.2,0.6,0.1,0.8
		c-0.1,0.3-0.8,0.5-1,0.7c-0.2,0.2-0.4,0.6-0.6,0.8c-0.3,0.2-1.1,0-1.4,0.3c-0.2,0.2-0.4,0.8-0.5,1.1c-0.1,0.5-0.2,1.4,0,1.9
		c0.1,0.3,0.6,0.7,0.8,0.9c0.1,0.2,0.4,0.6,0.3,0.8c-0.2,0.4-1.7,0.3-1.6,0.8c0,0.2,0.6-0.1,0.8,0c0.1,0.1,0.3,0.3,0.4,0.4
		c0.1,0.2,0.3,0.5,0.3,0.7c-0.1,0.2-0.5,0.3-0.6,0.4c-0.2,0.2-0.6,0.5-0.7,0.8c-0.1,0.3,0.1,1,0,1.3c-0.1,0.2-0.6,0.4-0.8,0.6
		c-0.1,0.1-0.1,0.5-0.3,0.7c-0.1,0.2-0.6,0.3-0.8,0.5c-0.1,0.1-0.2,0.6-0.4,0.7c-0.3,0.1-1-0.2-1.1-0.4c-0.2-0.3,0.3-1,0.1-1.3
		c-0.1-0.1-0.5-0.1-0.6-0.2c-0.1-0.1-0.1-0.6-0.2-0.8c-0.1-0.3-0.3-0.8-0.4-1C20.2,39.9,19.9,39.2,19.9,39.2z"/>
	<path class="st0" d="M28.5,43.3c0,0.4-0.9,1.5-0.9,1.5s1.3,0.4,1.6,0.6c0.4,0.2,1.4,1.2,1.4,1.2s-0.3-0.7-0.1-0.9
		c0.1-0.2,0.8-0.4,1.1-0.4c0.3,0,1,0.3,1.2,0.2c0.2-0.1,0.1-0.7,0.2-0.8c0.2-0.3,1.2-0.2,1.3-0.5c0.1-0.2-0.5-0.5-0.5-0.7
		c0-0.4,0.3-1.2,0.7-1.3c0.1,0,0.2,0.2,0.2,0.2s0-0.5-0.1-0.7c-0.3-0.4-1.4-0.9-2-0.8c-0.6,0-1.5,1.1-2,1.2
		c-0.4,0.1-1.6,0.1-1.6,0.1S28.5,43,28.5,43.3"/>
	<path class="st0" d="M7,38.5c-0.1,0.1,0,0.3,0.1,0.3c0.1,0.1,0.6-0.2,0.5-0.3C7.5,38.3,7.1,38.4,7,38.5z"/>
	<path class="st0" d="M3.7,45.9c0,0-0.9,0.2-1.1,0c-0.1-0.1-0.2-0.4-0.2-0.6c0-0.2,0.3-0.8,0.3-0.8s0.4-0.4,0.6-0.4
		c0.2,0,0.5,0.1,0.6,0.2c0.1,0.1,0.4,0.3,0.4,0.4c0.1,0.2,0.2,0.5,0.2,0.7C4.3,45.7,3.7,45.9,3.7,45.9z"/>
	<path class="st0" d="M3.7,39.6C3.5,39.5,3.1,39.8,3,40c-0.1,0.1-0.1,0.5-0.1,0.7c0,0.1,0.2,0.4,0.3,0.3c0.2,0,0.5-0.5,0.5-0.7
		C3.8,40.2,3.8,39.7,3.7,39.6z"/>
	<path class="st0" d="M8.4,36.1C8.3,36,8,36.5,7.9,36.7c0,0.2,0,0.6,0.2,0.7c0.1,0.1,0.4,0.1,0.4,0C8.7,37.1,8.7,36.2,8.4,36.1z"/>
	<path class="st0" d="M5,39.5c-0.2,0.1-0.3,0.6-0.4,0.8c-0.1,0.2-0.7,0.5-0.7,0.8c0,0.1,0.4,0.1,0.5,0.3c0.1,0.1,0.1,0.4,0.2,0.6
		c0,0.1,0.1,0.5,0,0.6c-0.1,0.1-0.5,0.2-0.6,0.3c-0.1,0.2,0.1,0.5,0.3,0.6c0.1,0.1,0.5,0,0.6,0.1C5,43.6,5,43.9,5,44
		c0,0.1-0.3,0.4-0.3,0.5c0.2,0.4,1.3,0.1,1.6,0.3c0.1,0.1,0.2,0.5,0.3,0.6c0.1,0.1,0.5,0.1,0.5,0.2c0.1,0.1-0.1,0.4-0.2,0.5
		c-0.2,0.2-0.6,0.4-0.9,0.5c-0.2,0-0.6-0.1-0.7,0c-0.1,0.1-0.1,0.6-0.1,0.8c0,0.1,0.2,0.3,0.3,0.4c0,0.2-0.1,0.5-0.2,0.7
		C5.4,48.7,5,48.7,5,48.9c0.1,0.4,1.3,0,1.5,0.3c0,0.1,0,0.2-0.1,0.3c-0.1,0.1-0.5,0-0.6,0.1c-0.2,0.1-0.5,0.5-0.6,0.7
		c-0.1,0.2-0.5,0.5-0.6,0.7c-0.1,0.2-0.2,0.6-0.1,0.7C4.9,51.9,5.7,51.2,6,51c0.2-0.1,0.7-0.5,0.9-0.5c0.3,0,1,0.4,1.3,0.3
		c0.3-0.1,0.7-0.6,1-0.7c0.3-0.1,1.2,0,1.3-0.3c0-0.2-0.8-0.4-0.8-0.6c0-0.1,0.3-0.3,0.4-0.3c0.2,0,0.6,0.2,0.7,0.1
		c0.3-0.2,0.3-1.2,0.1-1.5c-0.2-0.3-1.1-0.2-1.3-0.4c-0.2-0.2,0-0.8-0.1-1c0-0.2-0.1-0.5-0.2-0.6c-0.1-0.1-0.6-0.1-0.7-0.3
		C8.7,45,9,44.5,8.9,44.3c-0.1-0.1-0.5,0-0.6-0.2c-0.2-0.3,0.3-0.9,0.2-1.2c-0.2-0.5-1.7-0.7-1.6-1.2c0-0.2,0.7-0.1,0.9-0.3
		c0.2-0.2,0.3-0.8,0.1-1c-0.3-0.3-1.3,0.3-1.5,0c-0.2-0.2,0.2-0.9,0-1.1C6,39.1,5.3,39.3,5,39.5z"/>
	<path class="st0" d="M12.7,61.5c0,0-1.4,0.2-1.9,0.1c-0.2-0.1-0.5-0.5-0.7-0.6c-0.3-0.1-1,0-1.4-0.1c-0.3-0.1-1-0.3-1.3-0.4
		C7.1,60.4,6.4,60,6,60c-0.2,0-0.6,0.3-0.9,0.3c-0.2,0-0.5-0.4-0.7-0.4c-0.8-0.2-2.9-0.6-3.3,0.1c-0.1,0.1,0.2,0.4,0.2,0.5
		c-0.1,0.1-0.4,0.1-0.5,0.2c-0.1,0.2,0,0.6,0.1,0.8c0.1,0.2,0.5,0.5,0.5,0.5s0,0.6,0.2,0.7c0.2,0.1,0.7,0,0.9-0.1
		c0.2,0,0.5-0.3,0.7-0.3c0.1,0,0.2,0.2,0.3,0.3c0,0.1-0.1,0.3-0.2,0.3c-0.1,0.1-0.2,0.2-0.3,0.3c-0.2,0.4-0.1,1.5-0.3,1.9
		c-0.1,0.1-0.4,0.3-0.4,0.4c0,0.2,0.4,0.3,0.5,0.4c0.2,0.3,0.1,1.5,0.1,1.5s0,0.6,0.1,0.7c0.1,0.1,0.5,0,0.6,0.1
		c0.1,0.1-0.1,0.5,0,0.7c0.1,0.2,0.5,0.4,0.7,0.4c0.2,0,0.5-0.1,0.7-0.2c0.1-0.1,0.3-0.3,0.4-0.3c0.6-0.2,1.8,0.3,2.4,0.1
		c0.2-0.1,0.4-0.3,0.5-0.4c0.1-0.1-0.1-0.5,0-0.6c0.1-0.2,0.5-0.3,0.7-0.4c0.1-0.1,0.4-0.4,0.5-0.6c0.1-0.2,0.2-0.5,0.2-0.7
		c-0.1-0.3-0.7-0.6-0.7-0.9c0-0.2,0.4-0.4,0.5-0.6c0.1-0.2,0.3-0.6,0.4-0.7c0.2-0.1,0.6-0.1,0.8-0.2c0.3-0.2,0.6-0.8,0.8-1
		c0.1-0.1,0.4-0.4,0.5-0.5C12.1,62.1,12.7,61.5,12.7,61.5z"/>
	<path class="st0" d="M2.9,67.4c0,0,0.1-1.1-0.1-1.5c-0.1-0.1-0.5-0.3-0.5-0.4c0-0.2,0.4-0.3,0.4-0.4c0.2-0.4,0.2-1.4,0.3-1.9
		c0-0.1,0.2-0.3,0.3-0.3c0.1-0.1,0.2-0.2,0.2-0.3c0-0.1-0.2-0.3-0.3-0.3c-0.2-0.1-0.5,0.2-0.7,0.3c-0.2,0.1-0.7,0.2-0.9,0.1
		c-0.1-0.1-0.2-0.7-0.2-0.7S1.1,62.5,1,62.7c-0.1,0.2,0,0.8,0,1c0,0.1,0.2,0.3,0.2,0.4c0,0.2-0.3,0.5-0.4,0.7
		c-0.1,0.1-0.5,0.3-0.6,0.4c-0.1,0.2-0.2,0.8-0.1,1c0.1,0.2,0.6,0.2,0.7,0.3c0.1,0.1,0.1,0.5,0.1,0.7c0,0.2,0,0.5,0.1,0.7
		c0.1,0.1,0.5,0.2,0.7,0.3c0.2,0,0.6,0.1,0.8,0C2.6,68.2,2.9,67.4,2.9,67.4z"/>
	<path class="st0" d="M24.2,66.9c-0.2-0.1-0.6,0.2-0.8,0.2c-0.3,0-0.9-0.3-1-0.1c-0.1,0.1,0.1,0.2,0.2,0.3c0.1,0.1,0.1,0.4,0.2,0.5
		c0.1,0.1,0.4,0,0.6,0.1c0.3,0.1,0.9,0.6,1.1,0.4c0.1-0.1,0-0.5-0.1-0.7C24.3,67.4,24.3,67,24.2,66.9z"/>
	<path class="st0" d="M16.4,59.7c0,0,0.1-0.5,0-0.7c-0.1-0.2-0.6-0.2-0.8-0.3c-0.1-0.2-0.1-0.7-0.1-0.9c0-0.2,0.4-0.4,0.4-0.6
		c0.1-0.2,0-0.7,0-0.7s0.7,0,1,0c0.1-0.1,0.2-0.4,0.4-0.4c0.1,0,0.2,0.5,0.3,0.5c0.1,0,0.2-0.4,0.3-0.4c0.1,0,0.3,0.2,0.4,0.2
		c0.2-0.1,0.4-0.8,0.4-0.8s0.3,0.2,0.4,0.2c0.2,0.1,0.8,0.1,1,0c0.2-0.1,0.6-0.5,0.9-0.4c0.2,0,0.6,0.7,0.6,0.7l0.2,0.8
		c0,0-0.4,0.3-0.5,0.4c-0.1,0.2-0.3,0.7-0.3,0.9c0,0.2,0,0.5,0.1,0.7c0.1,0.1,0.3,0.2,0.4,0.3c0.2,0.2,0.4,0.8,0.6,1
		c0.2,0.3,0.5,0.8,0.7,1c0.3,0.3,0.8,1,1.2,1.2c0.1,0.1,0.5,0.1,0.6,0c0.1,0,0.4-0.2,0.5-0.2c0.1,0.1,0,0.3,0.1,0.4
		c0.1,0.1,0.3,0.3,0.3,0.4c0.1,0.1,0.2,0.4,0.3,0.5c0.1,0.1,0.4,0.3,0.5,0.3c0.1,0.1,0.4,0.3,0.5,0.4c0.1,0.2,0.6,0.4,0.5,0.6
		c0,0.1-0.3,0.3-0.4,0.3c-0.2,0-0.6-0.5-0.8-0.6c-0.2,0-0.5,0.1-0.6,0.3c-0.1,0.1-0.1,0.3-0.1,0.5c0,0.2,0.4,0.6,0.3,0.8
		c0,0.1-0.3,0.3-0.3,0.4c-0.1,0.1-0.2,0.5-0.3,0.5c-0.1,0.1-0.5,0.1-0.6,0c-0.2-0.2,0.1-0.8,0.1-1.1c0-0.2,0.1-0.5,0-0.6
		c-0.1-0.2-0.5-0.3-0.7-0.4c-0.1-0.1-0.2-0.5-0.3-0.6c-0.1-0.1-0.5,0-0.6-0.1c-0.1-0.1,0.1-0.5,0-0.6c-0.2-0.3-1.1-0.3-1.4-0.5
		c-0.3-0.2-0.7-0.6-0.9-0.8c-0.1-0.1-0.4-0.3-0.5-0.4c-0.2-0.1-0.5-0.3-0.6-0.5c-0.2-0.3-0.2-0.9-0.3-1.2c-0.1-0.2-0.2-0.6-0.3-0.7
		c-0.2-0.2-0.9-0.3-1.1-0.2c-0.1,0.1-0.1,0.5-0.3,0.6C17.3,59.8,16.4,59.7,16.4,59.7z"/>
	<path class="st0" d="M17.6,63.7c0,0,0.2,0,0.2,0c0.1,0,0.4-0.1,0.5-0.1c0.1,0,0.2-0.1,0.3-0.1c0.1,0,0.1,0.3,0.1,0.3
		c0,0.1,0,0.4,0,0.6c0,0.1,0,0.4-0.1,0.5c0,0.2,0,0.6-0.1,0.7c-0.1,0.1-0.4,0.2-0.5,0.1c-0.1,0-0.3-0.1-0.3-0.2
		c-0.1-0.1,0-0.4,0-0.6c0-0.1,0-0.4,0-0.6c0-0.1-0.1-0.3-0.1-0.4C17.5,63.9,17.6,63.8,17.6,63.7z"/>
	<path class="st0" d="M33.7,63.6c0.2,0.1,0.7,0.1,0.9,0c0.2-0.1,0.8-0.4,0.8-0.7c0-0.3-1.2-0.7-1.2-0.7l-0.9,0.2l0,0.8
		C33.3,63.2,33.6,63.6,33.7,63.6z"/>
	<path class="st0" d="M30.5,66.3c-0.1-0.3-1,0-1.2-0.2c-0.1-0.1,0-0.5-0.1-0.6c-0.1-0.3-0.8-0.6-0.9-0.9c-0.1-0.2-0.1-0.7-0.1-0.7
		l0.9-0.8l0,0c0,0,0.5,0.3,0.7,0.2c0.3-0.1,0.9-0.8,0.9-0.8s0.4,0,0.5,0c0.2,0,0.6,0.3,0.9,0.3c0.2,0,0.5-0.4,0.6-0.4
		c0.1,0,0.5,0,0.5,0l0,0.8c0,0-0.4,0.1-0.6,0.1c-0.1,0.1-0.3,0.2-0.3,0.3c-0.1,0.1-0.3,0.2-0.3,0.3c0,0.1,0.3,0.4,0.2,0.5
		c-0.1,0.1-0.5,0.2-0.6,0.2c-0.1,0-0.2-0.2-0.3-0.2c-0.1,0-0.3,0-0.3,0c-0.1,0.1,0.4,0.3,0.4,0.4c0,0.2-0.5,0.4-0.5,0.6
		c0,0.2,0.5,0.2,0.6,0.3c0.2,0.1,0.8,0.4,0.9,0.6c0.1,0.1,0.3,0.4,0.2,0.5c-0.1,0.1-0.3-0.1-0.4-0.1c-0.2,0-0.8,0.1-0.9,0.3
		c-0.1,0.2,0.4,0.4,0.3,0.6c-0.2,0.4-1.4,0.4-1.7,0.1c-0.1-0.1,0.1-0.5,0-0.7c-0.1-0.1-0.6-0.1-0.6-0.3c0-0.2,0.4-0.3,0.6-0.3
		c0.1,0,0.3,0,0.4,0C30.4,66.5,30.5,66.4,30.5,66.3z"/>
	<path class="st0" d="M32.9,68.9c-0.2,0-0.6-0.2-0.8-0.2c-0.3,0-0.3-0.1-0.3-0.2c0-0.1,0.3-0.1,0.9-0.1c0.3,0,0.9-0.2,1.1-0.2
		c0.2,0,0.3,0.4,0.3,0.5C34.2,68.7,33.5,68.9,32.9,68.9z"/>
	<path class="st0" d="M25.2,56.5c-0.1,0.2-0.4,0.5-0.5,0.6c-0.2,0.1-0.7,0.3-0.9,0.4c-0.2,0.1-0.4,0.4-0.5,0.6c0,0-0.2,0.2-0.2,0.2
		s-0.1-0.7-0.2-0.9c-0.1-0.1-0.3-0.2-0.4-0.2c-0.1-0.1-0.6-0.4-0.6-0.4l-0.2-0.8c0,0,1.2,0.4,1.6,0.3c0.2,0,0.9-0.4,0.9-0.4
		s0.3,0.1,0.4,0.1l0,0c0.2,0,0.6,0.3,0.6,0.3S25.2,56.4,25.2,56.5z"/>
	<path class="st0" d="M26.8,56.9l0.1,0.7c0,0-1.2,0.1-1.5,0.2c-0.3,0.1-0.8,0.3-0.9,0.6c-0.1,0.2,0.1,0.5,0.2,0.7
		c0.1,0.2,0.3,0.6,0.5,0.8c0.2,0.2,0.7,0.3,0.9,0.5c0.2,0.2,0.5,0.8,0.5,1.1c0,0-0.1,0.1-0.1,0.1s-0.2-0.1-0.2-0.1
		c-0.2-0.2-0.4-0.7-0.6-0.9c-0.1-0.1-0.5-0.3-0.7-0.4c-0.2-0.1-0.9-0.2-1-0.4c-0.1-0.1,0.1-0.5,0-0.7c-0.1-0.2-0.7-0.3-0.9-0.5
		c0-0.1-0.1-0.3-0.1-0.3s0.2-0.1,0.2-0.2c0.1-0.1,0.4-0.5,0.5-0.6c0.2-0.1,0.7-0.2,0.9-0.4c0.2-0.1,0.4-0.4,0.5-0.6
		c0,0,0.1-0.1,0.1-0.1s0.3,0.2,0.4,0.2C25.9,56.6,26.8,56.8,26.8,56.9L26.8,56.9z"/>
	<path class="st0" d="M30.7,61.8l0.1,0.8c0,0-0.6,0.7-0.9,0.8c-0.2,0-0.7-0.2-0.7-0.2L29,62.4l0.9-0.2c0,0,0.4-0.3,0.6-0.3
		C30.5,61.8,30.7,61.8,30.7,61.8L30.7,61.8z"/>
	<path class="st0" d="M28.4,61.2l0.3-0.1c0,0,0.6,0.2,0.8,0.4c0.1,0.1,0.2,0.5,0.3,0.7c0,0,0.1,0.1,0.1,0.1L29,62.4
		c0,0,0-0.3-0.1-0.3C28.8,61.8,28.4,61.2,28.4,61.2z"/>
	<path class="st0" d="M26.8,61.7c0-0.1,0.1-0.3,0.1-0.4c0.1-0.2,0.4-0.8,0.6-0.8c0.1,0,0.3,0.1,0.3,0.1s0.5,0.1,0.7,0.2
		c0.1,0.1,0.2,0.3,0.2,0.3l-0.3,0.1c0,0-0.5,0.1-0.6,0.3c-0.1,0.2,0.2,0.8,0.2,0.8S27.2,62,27,61.9C26.9,61.9,26.8,61.8,26.8,61.7
		C26.8,61.8,26.8,61.7,26.8,61.7z"/>
	<path class="st0" d="M27.5,58.5c0.2,0.3,0.5,1,0.5,1.4c0,0.1-0.1,0.4-0.1,0.5c0,0-0.1,0.1-0.1,0.1s-0.2-0.1-0.3-0.1
		c-0.2,0.1-0.5,0.6-0.6,0.8c0,0.1-0.1,0.3-0.1,0.4c0,0,0,0,0,0l-0.3-0.2c0,0,0.1-0.1,0.1-0.1c0-0.3-0.3-0.9-0.5-1.1
		c-0.2-0.2-0.7-0.3-0.9-0.5c-0.2-0.2-0.4-0.6-0.5-0.8c-0.1-0.2-0.3-0.5-0.2-0.7c0.1-0.3,0.6-0.5,0.9-0.6c0.4-0.1,1.5-0.2,1.5-0.2
		S27.4,58.2,27.5,58.5z"/>
	<path class="st0" d="M28.6,57.6c-0.1,0.1-0.4,0-0.6,0.1c-0.2,0.1-0.5,0.3-0.7,0.4c0,0-0.1,0-0.1,0s0.3,0.3,0.3,0.5
		c0.2,0.3,0.5,1,0.5,1.4c0,0.1-0.1,0.4-0.1,0.5c0,0-0.1,0.1-0.1,0.1s0.5,0.1,0.7,0.2c0.1,0.1,0.2,0.3,0.2,0.3s0.6,0.2,0.8,0.4
		c0.1,0.1,0.2,0.5,0.3,0.7c0,0,0.1,0.1,0.1,0.1s0.4-0.3,0.6-0.3c0.1,0,0.3-0.1,0.3-0.1s0-0.6,0-0.7c-0.1-0.3-0.4-0.7-0.5-0.9
		c0-0.1-0.1-0.5-0.1-0.6c0.1-0.3,0.9-0.7,0.9-0.7s-0.4-0.3-0.6-0.4c-0.2-0.1-0.7-0.4-0.9-0.5c-0.2-0.1-0.8-0.4-0.8-0.4
		S28.6,57.5,28.6,57.6z"/>
	<path class="st0" d="M28.6,57.6c-0.1,0.1-0.4,0-0.6,0.1c-0.2,0.1-0.5,0.3-0.7,0.4c0,0-0.1,0-0.1,0l-0.3-0.4l-0.1-0.7l0,0
		c0,0,0.4-0.5,0.6-0.5c0.2-0.1,0.8,0.1,0.8,0.1s0.1,0.7,0.3,0.9c0,0.1,0.3,0.2,0.3,0.2S28.6,57.5,28.6,57.6z"/>
	<path class="st0" d="M29.1,63.1l-0.9,0.8c0,0-0.3-0.2-0.4-0.3c-0.1-0.1-0.4-0.2-0.4-0.3c-0.1-0.3,0.6-1.1,0.6-1.1s-0.3-0.6-0.2-0.8
		c0.1-0.1,0.6-0.3,0.6-0.3l0.5,0.9c0,0,0,0.1,0.1,0.3C29,62.6,29.1,62.8,29.1,63.1L29.1,63.1z"/>
	<path class="st0" d="M51.5,21.8c-0.3,0-0.7,0.6-0.8,0.9c0,0.2,0.2,0.6,0.3,0.7c0.1,0.1,0.5,0,0.6-0.1c0.2-0.1,0.6-0.6,0.6-0.9
		C52.2,22.1,51.8,21.8,51.5,21.8z"/>
	<path class="st0" d="M60.3,20.6c-0.2-0.2-0.7-0.4-0.9-0.3c-0.3,0.1-1,0.6-0.9,0.9c0.1,0.2,0.5,0.1,0.7,0.1c0.4,0,1.3,0.5,1.5,0.2
		C60.8,21.2,60.5,20.7,60.3,20.6z"/>
	<path class="st0" d="M56.8,15.5c0.1-0.2,0.6-0.5,0.8-0.7c0.1-0.1,0.2-0.3,0.3-0.4c0.3-0.3,0.9-0.7,1.2-0.9c0.3-0.2,1-0.6,1.3-0.8
		c0.4-0.3,1.1-0.9,1.5-1.1c0.2-0.1,0.7-0.3,0.9-0.3c0.5-0.2,1.4-0.5,1.9-0.7c0.3-0.1,1-0.3,1.4-0.4c0.2-0.1,0.6-0.2,0.6-0.3
		c0-0.2-0.3-0.6-0.4-0.7C65.9,8.8,65,8.8,64.6,9c-0.3,0.1-0.7,0.7-1,0.9c-0.4,0.2-1.2,0.4-1.6,0.4c-0.5,0.1-1.4-0.1-1.9,0.1
		c-0.3,0.1-0.6,0.7-0.9,0.9c-0.3,0.1-0.9-0.1-1.1,0c-0.2,0.1-0.3,0.6-0.5,0.8c-0.4,0.2-1.4,0-1.7,0.3c-0.2,0.2-0.2,1-0.3,1.3
		c0,0.2,0,0.6-0.1,0.7c-0.2,0.1-0.6-0.2-0.8-0.1c0,0,0,0.2,0,0.3c0,0.1,0.1,0.3,0.1,0.3c0,0.1-0.2,0.4-0.3,0.5
		c-0.1,0.1-0.4,0.2-0.5,0.3c-0.2,0.2-0.2,0.8-0.3,1.1c-0.1,0.3-0.3,1.1-0.2,1.4c0.1,0.2,0.7,0.3,0.9,0.4c0.3,0.3,0.4,1.4,0.8,1.6
		c0.3,0.2,1,0.2,1.3,0.2c0.4,0,1.3,0.1,1.6-0.2c0.1-0.1,0.2-0.5,0.2-0.7c-0.1-0.3-0.8-0.4-1-0.6c-0.2-0.1-0.6-0.5-0.7-0.7
		c-0.1-0.3,0-1,0-1.4c0-0.3,0.2-0.8,0.3-1.1C56.8,15.7,56.8,15.5,56.8,15.5z"/>
	<path class="st0" d="M68.8,14.2c0.2,0,0.3-0.2,0.3-0.5c0-0.3-0.1-0.5-0.3-0.5c-0.2,0-0.3,0.2-0.3,0.5
		C68.5,13.9,68.6,14.2,68.8,14.2z"/>
	<path class="st0" d="M85.6,0.5c-0.2,0.2-0.5,0.6-0.8,0.7c-0.2,0.1-0.6,0-0.8,0.1c-0.2,0.1-0.7,0.4-0.8,0.6c0,0.3,0.4,0.7,0.6,0.9
		c0.3,0.2,0.8,0.7,1.2,0.8c0.4,0,1.2-0.5,1.5-0.7c0.3-0.1,1.1-0.3,1.3-0.6c0.2-0.3,0-1.1-0.3-1.5C87.4,0.5,86.7,0,86.4,0
		C86.1,0,85.8,0.4,85.6,0.5z"/>
	<path class="st0" d="M87.6,3.6c0.2-0.1,0.3-0.7,0.5-0.9c0.2-0.1,0.6-0.2,0.8-0.2c0.2,0,0.6,0.1,0.8,0.3c0.2,0.2,0.5,0.7,0.6,0.9
		c0,0.2-0.1,0.6,0,0.7c0.1,0.1,0.4-0.2,0.5-0.1C90.9,4.5,91,4.9,90.9,5c-0.2,0.3-1.1,0.5-1.5,0.4c-0.4,0-1.1-0.5-1.5-0.6
		c-0.4-0.1-1.3-0.2-1.5-0.5c-0.1-0.2,0.1-0.6,0.3-0.7C86.9,3.5,87.4,3.7,87.6,3.6z"/>
	<path class="st0" d="M91.8,5c0.1-0.2,0.3-0.5,0.4-0.7c0.2-0.2,0.5-0.6,0.8-0.5c0.1,0,0.2,0.4,0.3,0.5c0.1,0.1,0.3,0.1,0.4,0.2
		c0.1,0,0.4,0,0.5,0c0.2,0,0.6,0.1,0.7,0.3c0.1,0.2,0.2,0.6,0.2,0.9c0,0.2-0.2,0.6-0.4,0.8c-0.3,0.2-1,0.2-1.3,0.3
		c-0.4,0-1.2,0-1.5-0.2c-0.1-0.1-0.4-0.3-0.4-0.5C91.4,5.7,91.7,5.3,91.8,5z"/>
	<path class="st0" d="M127.1,10.3c-0.1,0.1,0,0.7-0.2,0.8c-0.2,0.2-0.9,0-1.1-0.1c-0.1-0.1-0.2-0.3-0.3-0.4c-0.2-0.2-0.7-0.5-1-0.5
		c-0.2,0-0.7,0.3-0.9,0.5c-0.1,0.3-0.1,0.9,0,1.2c0.2,0.4,0.9,0.8,1.3,0.9c0.4,0.1,1.2,0.3,1.6,0.2c0.2-0.1,0.5-0.6,0.7-0.6
		c0.3,0,0.8,0.4,1,0.4c0.3,0.1,1,0.1,1.3-0.1c0.2-0.1,0.6-0.5,0.5-0.7c-0.1-0.3-0.8-0.2-1-0.3c-0.2-0.2-0.3-0.8-0.5-1
		c-0.2-0.2-0.7-0.4-0.9-0.4C127.4,10.2,127.2,10.2,127.1,10.3z"/>
	<path class="st0" d="M131.6,11c0.2-0.1,0.4,0.4,0.5,0.4c0.3,0.1,1.1,0,1.5,0c0.4,0,1.3-0.3,1.6,0c0.2,0.2,0.3,0.8,0.2,0.9
		c-0.3,0.4-1.5,0.2-2,0.2c-0.3,0-0.9-0.2-1.2-0.3c-0.2-0.1-0.5-0.5-0.6-0.7C131.5,11.4,131.5,11.1,131.6,11z"/>
	<path class="st0" d="M163.7,18.1c-0.2,0.1-0.7,0.5-0.9,0.7c-0.1,0.2-0.4,0.8-0.3,0.9c0.2,0.3,1.1-0.1,1.5-0.1c0.3,0,0.8,0.1,1-0.1
		c0.2-0.2,0.4-0.8,0.3-1c-0.1-0.3-0.7-0.6-0.9-0.6C164.2,17.9,163.9,18,163.7,18.1z"/>
	<path class="st0" d="M55,56.5c0.2-0.2,0.8-0.8,0.8-0.8s0.2-1.4,0.4-1.8c0.2-0.3,0.8-0.7,0.9-1c0.1-0.3,0.1-1-0.1-1.3
		c-0.2-0.3-0.9-0.5-1.1-0.7c-0.2-0.2-0.5-0.8-0.5-1.1c0.1-1.2,1.6-3.7,3.1-3.6c0.4,0,0.7,1.3,1.1,1.2c0.2,0,0.2-0.7,0.4-0.8
		c0.3-0.2,1-0.3,1.3-0.3c0.3,0,0.8,0.2,1.1,0.2c0.5,0.1,1.4,0,1.9,0.1c0.7,0.2,2.1,0.9,2.5,1.6c0.1,0.1-0.2,0.5-0.1,0.7
		c0.1,0.2,0.7,0.3,0.9,0.3c0.3,0,1-0.2,1.3-0.2c0.5,0.1,1.3,0.8,1.8,1.1c0.2,0.1,0.7,0.4,0.9,0.3c0.2,0,0.5-0.4,0.6-0.6
		c0.1-0.3-0.8-1-0.7-1.2c0.1-0.4,1-0.4,1.3-0.5c0.3-0.1,1-0.3,1.1-0.6c0.2-0.3-0.4-1.1-0.2-1.4C73.6,46,74,46,74.2,46
		c0.3,0,1,0.3,1.3,0.3c0.6,0.1,1.8,0.3,2.5,0.2c0.4,0,1.1-0.3,1.5-0.3c0.5-0.1,1.4-0.5,1.9-0.3c0.3,0.1,0.7,0.5,0.8,0.7
		c0.1,0.2-0.1,0.7,0.1,0.8c0.2,0.2,0.8,0.1,1.1,0.1c0.4-0.1,1.1-0.5,1.6-0.6c0.3-0.1,1-0.2,1.3,0c0.7,0.4,0.8,2.3,1.5,2.8
		c0.2,0.1,0.8,0,1,0.1c0.2,0.1,0.4,0.6,0.6,0.7c0.3,0.3,1.3,0.3,1.6,0.7c0.4,0.5,0.9,2.4,0.9,2.4s0.4-0.4,0.6-0.5
		c0.3-0.2,1-0.3,1.3-0.3c0.7-0.1,2.2-0.5,2.9-0.3c0.1,0.1,0.2,0.4,0.3,0.4c0.2,0.1,0.8,0.1,1,0.2c0.1,0.1,0.3,0.4,0.4,0.4
		c0.5,0.2,1.8,0.2,2-0.3c0.1-0.3-0.4-0.8-0.5-1.1c-0.1-0.1-0.4-0.4-0.3-0.5c0.1-0.2,0.7,0.1,0.9-0.1c0.3-0.3,0-1.3,0-1.7
		c0-0.4-0.4-1.5,0-1.7c0.4-0.3,1.3,0.6,1.8,0.7c0.3,0.1,0.9,0,1.2,0.1c0.3,0.1,0.7,0.6,0.9,0.9c0.1,0.2,0.2,0.7,0.4,0.9
		c0.3,0.2,1.1,0,1.5,0c0.5,0,1.6,0,2.1,0.2c0.3,0.1,0.9,0.6,1.2,0.7c0.2,0.1,0.8,0.1,0.9,0.3c0.1,0.1,0.1,0.7,0.3,0.8
		c0.5,0.3,2,0,2.6-0.3c0.2-0.1,0.2-0.6,0.4-0.7c0.2-0.1,0.6,0.5,0.9,0.5c0.4,0,0.8-0.9,1.2-1c0.2-0.1,0.7-0.1,0.9-0.1
		c0.2,0.1,0.9,0.5,0.9,0.5s0.5,0.7,0.8,0.8c0.3,0.1,1,0.2,1.3,0c0.4-0.3,0-1.5,0.3-1.9c0.1-0.2,0.7-0.4,0.8-0.7
		c0.1-0.4-0.7-1.2-0.7-1.7c0-0.3,0.3-0.9,0.5-1c0.9-0.5,3.2-0.3,4.2,0.1c0.3,0.2,0.8,0.8,1,1.1c0.2,0.2,0.7,0.6,0.9,0.9
		c0.2,0.2,0.6,0.6,0.7,0.9c0.1,0.3,0.1,0.9,0.3,1.2c0.1,0.3,0.5,0.8,0.8,0.9c0.4,0.2,1.3,0.1,1.7,0.3c0.2,0.1,0.6,0.5,0.8,0.7
		c0.2,0.2,0.7,0.4,0.9,0.6c0.1,0.1,0.2,0.5,0.3,0.6c0.2,0.1,0.8,0.1,1,0.1c0.4,0,1.3-0.5,1.7-0.3c0.1,0.1,0.3,0.4,0.3,0.5
		c0.1,0.2,0.2,0.7,0.2,0.9c-0.1,0.2-0.6,0.3-0.7,0.5c-0.3,0.5,0.4,2.1-0.1,2.5c-0.2,0.1-0.7-0.3-0.9-0.2c-0.3,0.1-0.5,0.7-0.5,1
		c-0.1,0.3-0.1,0.9,0.1,1.1c0.2,0.2,0.7,0.1,0.9,0.2c0.3,0.1,0.9,0.5,1.2,0.4c0.5-0.1,1.3-0.8,1.6-1.2c0.4-0.4,0.9-1.5,1.2-2.1
		c0.3-0.6,0.9-1.7,1.1-2.3c0.2-0.5,0.8-1.6,0.9-2.2c0-0.6-0.6-1.7-0.5-2.3c0-0.2,0.3-0.5,0.3-0.7c0.1-0.6,0-1.9-0.3-2.5
		c-0.2-0.4-0.7-1.3-1-1.5c-0.3-0.3-1.2-0.7-1.6-0.5c-0.2,0.1-0.3,0.8-0.5,0.9c-0.1,0.1-0.5,0.2-0.7,0.1c-0.2-0.1,0-0.7-0.2-0.9
		c-0.3-0.3-1.3-0.4-1.5-0.8c-0.1-0.2-0.3-0.6-0.3-0.8c0.1-0.3,0.7-0.7,0.9-0.9c0.3-0.4,0.9-1.3,1.1-1.8c0.2-0.3,0.4-1,0.6-1.3
		c0.2-0.3,0.5-1,0.8-1.2c0.5-0.3,1.7-0.5,2.3-0.6c0.5-0.1,1.4-0.1,1.9-0.1c0.6,0,2,0.5,2.6,0.3c0.3-0.1,0.3-0.9,0.6-1
		c0.4-0.2,1.6,0.1,1.9,0.4c0.1,0.1-0.1,0.6,0,0.7c0.5,0.4,2,0,2.5-0.4c0.2-0.2,0.1-0.9,0.2-1.2c0.1-0.4,0.3-1.2,0.4-1.6
		c0.1-0.2,0.3-0.8,0.5-0.9c0.6-0.3,2-0.3,2.6,0c0.3,0.1,0.6,0.8,0.9,1c0.1,0.1,0.4,0.3,0.6,0.3c0.4-0.1,0.5-1.3,0.9-1.5
		c0.1-0.1,0.5-0.3,0.7-0.3c0.3,0.1,0.6,0.9,0.6,1.2c0,0.3-0.3,0.9-0.5,1.1c-0.3,0.3-1.1,0.8-1.4,1.1c-0.4,0.4-0.9,1.4-1.2,1.8
		c-0.2,0.3-0.9,1-1,1.4c-0.2,0.5-0.2,1.5-0.2,2c0,0.5,0.1,1.6,0.3,2.1c0.1,0.4,0.7,1.1,0.9,1.5c0.2,0.4,0.2,1.3,0.4,1.7
		c0.1,0.3,0.5,0.8,0.7,1c0.2,0.2,0.6,0.6,0.9,0.5c0.4-0.1,0.7-1.1,0.9-1.5c0.3-0.5,0.8-1.4,0.9-1.9c0.1-0.3-0.2-0.9,0-1.1
		c0.2-0.2,0.9,0.2,1,0c0.2-0.3-0.2-1-0.2-1.4c0-0.3,0-0.8,0.2-1c0.1-0.1,0.5,0.1,0.6-0.1c0.1-0.2-0.3-0.6-0.4-0.8
		c-0.2-0.3-0.7-1-1.1-1.2c-0.2-0.1-0.6-0.1-0.6-0.5c0-0.4,0.2-1.2,0.3-1.5c0.1-0.2,0.4-0.6,0.6-0.8c0.4-0.3,1.2-0.5,1.6-0.8
		c0.2-0.1,0.6-0.5,0.9-0.6c0.3-0.1,0.9-0.3,1.2-0.3c0.2,0,0.6,0.1,0.8,0.3c0.2,0.2,0.5,0.7,0.7,0.9c0.1,0.1,0.4,0.5,0.5,0.4
		c0.5-0.1,0.3-1.4,0.6-1.8c0.1-0.2,0.4-0.4,0.5-0.5c0.1-0.2,0-0.8,0.2-0.9c0.3-0.2,1,0.2,1.4,0.1c0.4-0.1,0.9-0.8,1.3-0.9
		c0.2-0.1,0.6-0.2,0.8-0.2c0.4,0,1.1,0.7,1.5,0.6c0.2-0.1,0.4-0.6,0.3-0.8c-0.1-0.5-0.9-1.3-1.3-1.6c-0.4-0.4-1.8-0.7-1.8-1.2
		c0-0.2,0.5-0.5,0.7-0.6c0.3-0.2,1.1-0.4,1.2-0.8c0-0.2-0.4-0.5-0.4-0.7c-0.1-0.3-0.2-0.9,0-1.1c0.2-0.2,0.9-0.5,1.1-0.3
		c0.3,0.1,0.3,0.9,0.4,1.2c0.1,0.2,0.1,0.8,0.3,0.9c0.4,0.3,1.4-0.1,1.9,0.1c0.2,0.1,0.5,0.7,0.8,0.8c0.3,0.1,1-0.1,1.3,0.1
		c0.3,0.2,0.4,0.8,0.7,1c0.1,0.1,0.5,0.3,0.7,0.3c0.3-0.1,0.8-0.6,0.9-0.9c0-0.3-0.8-0.7-0.9-1c0-0.2,0.1-0.7,0.3-0.8
		c0.2-0.1,0.6,0,0.8,0c0.2,0,0.6-0.2,0.7-0.3c0.2-0.3,0.5-1,0.3-1.3c-0.3-0.4-1.4,0.1-1.9,0c-0.3-0.1-0.8-0.6-1.1-0.7
		c-0.4-0.1-1.2,0-1.5,0.2c-0.2,0.1-0.2,0.7-0.4,0.7c-0.3,0-0.4-0.8-0.6-1.1c-0.1-0.2-0.3-0.5-0.4-0.6c-0.3-0.2-1.2-0.1-1.5-0.3
		c-0.2-0.2,0-0.7-0.2-0.9c-0.4-0.3-1.5,0.2-2,0c-0.3-0.1-0.6-0.8-0.9-1c-0.3-0.2-1-0.6-1.4-0.7c-0.3-0.1-0.9-0.1-1.2-0.2
		c-0.4-0.1-1-0.3-1.4-0.5c-0.2-0.1-0.4-0.3-0.6-0.4c-0.3-0.2-1-0.4-1.4-0.4c-0.4-0.1-1.3,0-1.8,0c-0.6,0-1.8-0.6-2.2-0.3
		c-0.3,0.2,0,1.1-0.3,1.4c-0.2,0.2-0.8,0.3-1,0.2c-0.2-0.1-0.4-0.6-0.6-0.7c-0.3-0.1-0.8,0.3-1.1,0.3c-0.4,0-1.1-0.5-1.5-0.5
		c-0.6-0.1-1.9-0.1-2.4,0.3c-0.2,0.1-0.3,0.8-0.5,0.9c-0.2,0.1-0.7-0.1-0.9-0.3c-0.3-0.2-0.8-0.7-1.1-0.9c-0.3-0.3-0.8-1-1.1-1.2
		c-0.6-0.3-2-0.6-2.7-0.6c-0.2,0-0.7,0.2-0.9,0.3c-0.2,0.1-0.4,0.2-0.6,0.3c-0.4,0.1-1.2-0.1-1.5-0.2c-0.5-0.2-1.4-0.8-1.9-1
		c-0.3-0.2-1-0.4-1.2-0.6c-0.1-0.1-0.1-0.4-0.3-0.5c-0.6-0.4-2.2-0.1-2.9,0c-0.2,0-0.6,0.4-0.9,0.3c-0.3-0.1-0.6-0.9-0.9-1
		c-0.4-0.2-1.3,0.2-1.6,0c-0.2-0.1-0.4-0.8-0.7-0.9c-0.3-0.1-0.7,0.4-0.9,0.5c-0.2,0.1-0.8,0.3-0.9,0.6c-0.1,0.4,0.8,1,0.6,1.4
		c-0.2,0.3-1,0.3-1.3,0.3c-0.4,0-1.2-0.2-1.5-0.3c-0.3,0-0.9-0.2-1.2-0.1c-0.2,0-0.5,0.4-0.8,0.4c-0.3,0-0.9-0.3-1.1-0.5
		c-0.2-0.1-0.4-0.7-0.6-0.7c-0.3,0.1,0,0.9-0.2,1.1c-0.3,0.3-1.2,0.2-1.5,0.2c-0.5-0.1-1.5-0.5-2-0.7c-0.3-0.1-1.1-0.1-1.2-0.4
		c-0.1-0.2,0.2-0.6,0.3-0.7c0.2-0.1,0.8-0.1,0.9-0.3c0.2-0.4-0.4-1.1-0.7-1.4c-0.3-0.3-1.2-0.5-1.6-0.6c-0.5-0.1-1.7-0.1-2.1,0.2
		c-0.4,0.3-0.3,1.4-0.7,1.6c-0.4,0.2-1.2-0.4-1.6-0.6c-0.4-0.2-1.1-0.6-1.5-0.7c-0.5-0.2-1.7-0.4-2.2-0.5c-1-0.1-3.1,0-4.1,0
		c-0.4,0-1.1-0.1-1.5,0c-0.4,0.1-1.1,0.5-1.5,0.6c-0.5,0.2-1.7,1.1-2,0.7c-0.2-0.3,0.7-1,1-1.2c0.5-0.4,1.5-0.8,2.1-1
		c0.2-0.1,0.7-0.3,0.9-0.4c0.3-0.2,0.9-0.7,1-1c0.2-0.3,0.4-1.1,0.2-1.5c-0.2-0.3-1.1-0.4-1.4-0.6c-0.2-0.2-0.4-0.8-0.6-0.9
		c-0.7-0.4-2.5-0.6-3.2-0.3c-0.2,0.1-0.4,0.6-0.6,0.7c-0.3,0.1-0.9-0.3-1.1-0.5C97,9,96.9,8.5,96.8,8.4c-0.2-0.2-0.6-0.5-0.9-0.7
		c-0.2-0.1-0.5-0.4-0.8-0.4c-0.4,0-1.3,0.4-1.6,0.7c-0.2,0.3-0.2,1-0.3,1.3c-0.1,0.1-0.4,0.4-0.3,0.5c0.1,0.2,0.8,0.1,0.8,0.3
		c0,0.3-0.8,0.6-1.1,0.6c-0.4,0.1-1.2-0.3-1.6-0.3c-0.3,0-0.9,0-1.1,0.2c-0.2,0.1-0.3,0.5-0.5,0.5c-0.3,0-0.4-0.8-0.7-0.9
		c-0.3-0.1-0.7,0.4-0.9,0.4c-0.2,0-0.7-0.4-0.9-0.3c-0.2,0.1,0.1,0.7-0.1,0.9c-0.3,0.3-1.3,0.1-1.7,0.1c-0.4,0-1.2,0-1.5,0.2
		c-0.3,0.1-0.8,0.5-1,0.6c-0.3,0.1-0.9,0.2-1.1,0.4c-0.1,0.2-0.1,0.7,0,0.9c0.1,0.2,0.7,0.1,0.9,0.3c0.2,0.2,0.4,0.9,0.3,1.1
		c-0.3,0.3-1.2-0.2-1.5-0.2c-0.5,0-1.5,0-2,0.1c-0.3,0.1-0.9,0.2-1.1,0.4c-0.2,0.2-0.3,0.8-0.3,1.1c0,0.3,0.3,0.8,0.5,0.9
		c0.2,0.1,0.7,0,0.9,0.1c0.2,0.1,0.5,0.6,0.7,0.9c0.2,0.3,0.5,0.8,0.6,1.1c0,0.2,0.1,0.8-0.1,0.9c-0.5,0.2-1-1.2-1.5-1.5
		c-0.3-0.2-1.1-0.2-1.5-0.4c-0.2-0.2-0.4-0.8-0.7-0.9c-0.2-0.1-0.7,0-0.9,0.1c-0.2,0.2-0.5,0.8-0.4,1.1c0,0.2,0.4,0.4,0.4,0.6
		c0.1,0.1,0.2,0.5,0.1,0.6c-0.2,0.2-0.9-0.3-1.2-0.4c-0.3-0.2-1-0.7-1.2-1c-0.2-0.3-0.1-1-0.2-1.3c-0.1-0.2-0.3-0.8-0.5-0.8
		c-0.2,0-0.5,0.5-0.6,0.7c-0.1,0.2,0.2,0.8,0.2,1c0,0.2-0.2,0.5-0.2,0.7c0,0.2,0.1,0.6,0.2,0.7c0.1,0.1,0.4,0.1,0.5,0.2
		c0.3,0.4,0.1,1.4,0.2,1.9c0,0.2,0,0.8,0.2,0.9c0.2,0.2,1,0.3,1.3,0.2c0.1-0.1,0-0.5,0.2-0.5c0.2-0.1,0.7,0.2,0.9,0.3
		c0.2,0.1,0.5,0.2,0.6,0.3c0.1,0.1,0.3,0.4,0.4,0.6c0.1,0.2,0.1,0.7,0.3,0.9c0.1,0.1,0.4,0.3,0.5,0.4c0.1,0.1,0.5,0.2,0.6,0.3
		c0.1,0.1,0.1,0.6,0,0.7c-0.2,0.1-0.7-0.4-0.9-0.5c-0.2-0.2-0.5-0.6-0.7-0.8c-0.2-0.2-0.7-0.7-1-0.8c-0.2-0.1-0.8-0.1-1,0
		c-0.1,0.1-0.1,0.3-0.2,0.3c-0.1,0.2-0.1,0.6-0.2,0.8c-0.1,0.3-0.4,0.8-0.5,1.1c-0.2,0.3-0.4,1-0.7,1.3c-0.2,0.2-0.8,0.4-1.1,0.4
		c-0.4,0-1.4-0.1-1.6-0.5c-0.1-0.1,0.1-0.5,0.3-0.6c0.2-0.2,0.8-0.2,1-0.3c0.2-0.1,0.8-0.3,0.9-0.5c0.2-0.2,0.3-0.8,0.3-1.1
		c0-0.3-0.4-1.2-0.5-1.5c-0.1-0.2-0.3-0.7-0.3-0.9c0-0.2,0-0.6,0-0.8c0-0.2-0.3-0.7-0.3-0.9c-0.1-0.3-0.2-0.9-0.3-1.2
		c-0.1-0.4-0.3-1.3-0.4-1.7c-0.1-0.3-0.2-1-0.3-1.3c-0.2-0.3-0.5-0.9-0.9-1c-0.3-0.1-1,0-1.3,0.2c-0.3,0.3-0.6,1.2-0.7,1.6
		c-0.1,0.4,0,1.3-0.3,1.7c-0.2,0.3-1,0.4-1.1,0.7c-0.1,0.2,0,0.8,0.1,1.1c0.1,0.3,0.5,0.8,0.7,1c0.2,0.3,0.6,0.8,0.8,1.1
		c0.1,0.2,0.5,0.6,0.6,0.8c0.1,0.2,0.3,0.6,0.3,0.8c-0.1,0.2-0.7,0.4-0.9,0.3c-0.4-0.1-0.6-1-0.9-1.3c-0.3-0.3-1.2-0.8-1.6-0.9
		c-0.5-0.2-1.5-0.4-2-0.5c-0.4-0.1-1.3-0.3-1.6-0.1c-0.2,0.1-0.5,0.5-0.4,0.7c0,0.2,0.4,0.2,0.5,0.3c0.1,0.3,0.1,1-0.1,1.3
		c-0.1,0.2-0.7,0.4-0.9,0.3c-0.2-0.1,0-0.9-0.3-1.1c-0.1-0.1-0.5-0.2-0.7-0.1c-0.3,0.1-0.4,0.7-0.7,0.9c-0.5,0.2-1.6-0.2-2,0
		c-0.3,0.1-0.5,0.9-0.8,0.9c-0.3,0-0.3-0.9-0.6-1c-0.2-0.1-0.5,0.1-0.7,0.2c-0.3,0.1-0.8,0.4-1.1,0.5c-0.3,0.1-0.9,0.3-1.1,0.4
		c-0.4,0.2-1,0.9-1.4,1.2c-0.3,0.2-1.1,0.8-1.5,0.7c-0.3-0.1-0.4-0.7-0.5-0.9c0-0.2,0.1-0.6,0-0.8c-0.1-0.3-0.6-0.9-0.9-1
		c-0.3-0.1-1.3-0.1-1.5,0.2c-0.1,0.2,0.3,0.6,0.3,0.9c0.1,0.3,0.2,0.8,0.3,1c0.1,0.2,0.4,0.7,0.4,0.9c0.1,0.3,0.3,1,0.1,1.2
		c-0.2,0.2-0.8-0.4-1-0.5c-0.2-0.1-0.8-0.3-1-0.2c-0.2,0.1-0.4,0.6-0.6,0.7c-0.3,0.2-1.1,0.1-1.3,0.3c-0.1,0.2-0.2,0.7-0.1,0.9
		c0.1,0.2,0.7,0.2,0.8,0.4c0.1,0.3-0.1,0.9-0.3,1.1c-0.2,0.1-0.8,0.2-0.9,0c-0.2-0.2,0.2-0.9,0-1.1c-0.2-0.2-0.7-0.4-1-0.4
		c-0.3,0-0.8,0.2-0.9,0.4c-0.1,0.2,0,0.7,0.1,0.9c0.1,0.1,0.5,0.1,0.7,0.3c0.1,0.1,0.3,0.3,0.3,0.4c0,0.2-0.3,0.5-0.5,0.5
		c-0.3,0-0.8-0.5-1-0.8c-0.2-0.2-0.6-0.8-0.8-1c-0.2-0.2-0.4-0.8-0.5-1c-0.1-0.4-0.1-1.1-0.3-1.5c-0.1-0.2-0.5-0.4-0.4-0.6
		c0.2-0.2,0.8,0.3,1.1,0.3c0.4,0.1,1.3,0.5,1.7,0.5c0.4,0,1.3-0.2,1.6-0.4c0.2-0.1,0.5-0.5,0.7-0.7c0.1-0.2,0.5-0.6,0.4-0.8
		c-0.1-0.5-1.2-1-1.7-1.3c-0.5-0.3-1.5-0.7-2.1-0.9c-0.5-0.3-1.6-0.9-2.1-1.2c-0.3-0.1-1-0.5-1-0.5s-0.9,0.5-1.2,0.7
		c-0.3,0.3-0.9,0.9-1.1,1.2c-0.2,0.2-0.4,1.1-0.4,1.1s0,0.8,0,1.1c0,0.3,0.3,1,0.3,1.4c0.1,0.4,0,1.2,0.1,1.6c0.1,0.4,0.3,1,0.4,1.4
		c0.1,0.4,0.3,1.2,0.5,1.5c0.1,0.2,0.4,0.5,0.5,0.6c0.2,0.2,0.7,0.6,0.7,0.6l0,0c0,0-0.6,0.5-0.8,0.7c-0.3,0.3-0.8,0.8-1,1.1
		c-0.2,0.3-0.8,0.8-0.9,1.1c-0.1,0.2-0.2,0.7-0.3,0.9c0,0.3,0.1,1.1,0.1,1.1l0,0l-0.6,0.2l1.1,1.5l1.6,1.4c0,0,2.3,0.5,2.7,1.1
		c0.5,0.7,0.5,2.7,0.2,3.6c-0.1,0.1-0.3,0.3-0.4,0.4c-0.2,0.3-0.4,1.4-0.4,1.4s2-0.5,2.6-0.2c0.3,0.2,0.3,1.1,0.6,1.5
		c0.7,1,3.5,2.1,3.9,3.3c0.3,0.7-0.8,2.3-0.6,3c0.1,0.2,0.5,0.3,0.5,0.5c0,0.3-0.8,0.7-1,0.9c-0.2,0.2-0.7,0.6-0.9,0.9
		c-0.1,0.2-0.3,0.5-0.3,0.7c0.1,0.3,1,0.5,1.3,0.7c0.2,0.2,0.7,0.8,0.7,0.8s1.5-1.2,2.1-1.2c0.3,0,0.9,0.6,1.2,0.7
		c0.2,0,0.6-0.1,0.8,0c0.3,0.1,0.7,0.6,0.9,0.8c0.3,0.3,1,1.1,1,1.1l1.9-0.5c0,0-0.5-1-0.5-1.4c0-0.3,0.3-0.7,0.5-0.9
		C53.9,57.5,54.7,56.9,55,56.5z"/>
	<path class="st0" d="M30.2,54.3c0,0-0.6-0.5-0.8-0.7c-0.1-0.1-0.4-0.2-0.5-0.2c-0.4,0-1.2,0.3-1.6,0.3c-0.3,0-0.8,0-1.1,0
		c-0.3,0-1.4-0.2-1.4-0.2s0.2,0.7,0.1,0.9c0,0.2-0.3,0.4-0.4,0.6c0,0.1,0,0.2,0,0.3c-0.1,0.1-0.3,0.5-0.3,0.5s0.3,0.1,0.4,0.1l0,0
		c0.3,0.1,0.8,0.4,1.1,0.5c0.3,0.1,1.1,0.3,1.1,0.3s0.4-0.5,0.6-0.5c0.2-0.1,0.8,0.1,0.8,0.1s0.8-0.1,0.9-0.3
		c0.3-0.2,0.5-0.8,0.7-1.1C29.9,54.8,30.2,54.3,30.2,54.3z"/>
	<path class="st0" d="M34.2,62.3l-0.9,0.2c0,0-0.4,0-0.5,0c-0.2,0.1-0.5,0.4-0.6,0.4c-0.2,0-0.6-0.2-0.9-0.3c-0.1,0-0.5,0-0.5,0
		l-0.1-0.8c0,0,0-0.6,0-0.7c-0.1-0.3-0.4-0.7-0.5-0.9c0-0.1-0.1-0.5-0.1-0.6c0.1-0.3,0.9-0.7,0.9-0.7s0.2,0.3,0.3,0.2
		c0.1,0,0.2-0.3,0.3-0.4c0.3-0.1,0.9,0.2,1.1,0.4c0.2,0.2,0.1,0.7,0.3,0.9c0.3,0.2,1.1-0.1,1.4-0.2c0.2,0,0.9-0.1,0.9-0.1
		s0.3,0.6,0.3,0.8c0,0.2-0.2,0.5-0.3,0.7c-0.1,0.1-0.4,0.3-0.4,0.5c0,0.1,0.4,0.4,0.3,0.5C35.1,62.4,34.2,62.3,34.2,62.3z"/>
	<path class="st0" d="M23,49.7c0,0-0.6-1.3-0.6-1.8c-0.1-0.5,0.2-2,0.2-2s2-1.3,2.8-1.3c0.3,0,0.7,0.4,1,0.4c0.3,0,1.4-0.2,1.4-0.2
		s1.3,0.4,1.6,0.6c0.4,0.2,1.4,1.2,1.4,1.2s-0.2,1.1,0,1.4c0.1,0.1,0.5-0.1,0.6,0c0.2,0.2,0,1.1,0,1.1s0.2,1.4,0.1,1.8
		c-0.1,0.2-0.7,0.6-0.7,0.6l0,0c0,0-1.2,0.1-1.6,0.1c-0.4,0-1.6,0.1-1.6,0.1s-0.8-0.5-1.1-0.6c-0.6-0.2-1.8-0.5-2.3-0.8
		C23.6,50.1,23,49.7,23,49.7"/>
	<path class="st0" d="M31,58.8c0,0-0.4-0.3-0.6-0.4c-0.2-0.1-0.7-0.4-0.9-0.5c-0.2-0.1-0.8-0.4-0.8-0.4s-0.2-0.1-0.3-0.2
		c-0.1-0.2-0.3-0.9-0.3-0.9s0.8-0.1,0.9-0.3c0.3-0.2,0.5-0.8,0.7-1.1c0.1-0.2,0.4-0.7,0.4-0.7s1.1-0.1,1.4,0c0.2,0,0.4,0.3,0.5,0.4
		c0.3,0.1,1.1,0.2,1.5,0.1c0.2,0,0.6-0.2,0.6-0.2s1.1,0.9,1.3,1.4c0.1,0.3,0.1,0.8,0.1,1.1c0.1,0.3,0.5,1.2,0.5,1.2S36.1,58.8,36,59
		c-0.1,0.2-0.8,0.7-0.8,0.7s-0.7,0.1-0.9,0.1c-0.4,0-1.1,0.4-1.4,0.2c-0.2-0.1-0.1-0.7-0.3-0.9c-0.2-0.2-0.8-0.5-1.1-0.4
		c-0.1,0-0.2,0.4-0.3,0.4C31.1,59.1,31,58.8,31,58.8z"/>
	<path class="st0" d="M31.2,49.1c0,0,5.5,0.2,7-0.8c0.3-0.2,0.7-1.1,0.7-1.1s0.3-1.1,0.4-1.4c0.1-0.1,0.4-0.3,0.4-0.4
		c0.3-0.8,0.3-2.8-0.2-3.6c-0.4-0.5-2.7-1.1-2.7-1.1s-0.5,0.5-0.7,0.5c-0.3,0-0.8-0.4-1-0.3c-0.3,0.2-0.4,1.3-0.4,1.3
		s-0.2-0.2-0.2-0.2c-0.4,0.1-0.7,0.9-0.7,1.3c0,0.2,0.6,0.5,0.5,0.7c-0.1,0.3-1.1,0.2-1.3,0.5c-0.1,0.2-0.1,0.7-0.2,0.8
		c-0.3,0.2-0.9-0.2-1.2-0.2c-0.3,0-0.9,0.2-1.1,0.4c-0.1,0.2,0.1,0.9,0.1,0.9s-0.2,1.1,0,1.4c0.1,0.1,0.5-0.1,0.6,0
		C31.4,48.2,31.2,49.1,31.2,49.1z"/>
	<path class="st0" d="M20.2,50.7c0.2-0.7,2.7-1.1,2.7-1.1s0.7,0.5,0.9,0.6c0.6,0.3,1.8,0.6,2.3,0.8c0.3,0.1,1.1,0.6,1.1,0.6
		s-1.4,0.9-1.9,1.2c-0.2,0.2-0.6,0.7-0.6,0.7s-0.5-0.2-0.6-0.4c-0.1-0.1,0.2-0.5,0.1-0.6c-0.1-0.2-0.7-0.2-0.9-0.1
		c-0.1,0.1-0.1,0.5-0.2,0.6c-0.1,0.1-0.5,0.1-0.7,0.1c-0.2-0.1-0.8-0.7-0.8-0.7S20.1,51.3,20.2,50.7z"/>
	<path class="st0" d="M27.3,51.7l3.2-0.2l-0.3,2.8c0,0-0.6-0.5-0.8-0.7c-0.1-0.1-0.4-0.2-0.5-0.2c-0.4,0-1.2,0.3-1.6,0.3
		c-0.3,0-0.8,0-1.1,0c-0.3,0-1.4-0.2-1.4-0.2s0.5-0.5,0.6-0.7C25.9,52.5,27.3,51.7,27.3,51.7z"/>
	<path class="st0" d="M34.2,54.6c0,0,0.9-0.2,1.2-0.1c0.3,0.1,0.7,0.3,0.9,0.5c0.4,0.4,1.1,1.3,1.2,1.9c0,0.2-0.1,0.6-0.2,0.8
		c-0.1,0.2-0.4,0.8-0.4,0.8s-0.2-0.7-0.4-0.7c-0.1,0-0.3,0.5-0.3,0.5s-0.4-0.9-0.5-1.2c-0.1-0.3,0-0.9-0.1-1.1
		C35.3,55.5,34.2,54.6,34.2,54.6z"/>
	<path class="st0" d="M45.9,51.8c-0.4-1.2-3.2-2.2-3.9-3.3c-0.2-0.3-0.2-1.2-0.6-1.5c-0.5-0.3-2.6,0.2-2.6,0.2s-0.4,0.9-0.7,1.1
		c-1.5,0.9-7,0.8-7,0.8s0.2,1.4,0.1,1.8c-0.1,0.2-0.7,0.6-0.7,0.6l-0.3,2.8c0,0,1.1-0.1,1.4,0c0.2,0,0.4,0.3,0.5,0.4
		c0.3,0.1,1.1,0.2,1.5,0.1c0.2,0,0.6-0.2,0.6-0.2s0.9-0.2,1.2-0.1c0.3,0.1,0.7,0.3,0.9,0.5c0.4,0.4,1.1,1.3,1.2,1.9
		c0,0.2-0.1,0.6-0.2,0.8c-0.1,0.2-0.4,0.8-0.4,0.8s0.7-0.5,0.9-0.8c0.3-0.5,0.1-1.8,0.5-2.2c0.2-0.2,0.8-0.3,1-0.2
		c0.3,0.2,0.1,1.1,0.3,1.3c0.2,0.1,0.5,0.2,0.9,0.2c0,0.1,0,0.3,0,0.4c0,0.1,0,0.2,0,0.3c-0.1,0.1-0.2,0.4-0.4,0.5
		c-0.1,0.1-0.5,0.1-0.6,0.1c-0.1,0.1-0.2,0.3-0.2,0.4c0,0.1-0.2,0.3-0.1,0.3c0.1,0.1,0.4,0.2,0.5,0.2c0.2,0,0.6,0,0.8,0
		c0.2,0,0.6,0.1,0.8,0c0.2,0,0.5-0.3,0.7-0.4c0.2-0.1,0.5-0.2,0.7-0.3c0.1-0.1,0.5-0.1,0.5-0.2c0-0.1-0.2-0.3-0.4-0.4
		c-0.2-0.1-0.5,0.1-0.7,0c-0.2,0-0.5-0.2-0.6-0.3c-0.1-0.1-0.3-0.2-0.3-0.3c0-0.1,0-0.2,0.1-0.4c0.3-0.1,0.6-0.2,0.8-0.3
		c0.2-0.1,0.3-0.7,0.5-0.8c0.2-0.1,0.6,0.1,0.8,0.1c0.5-0.1,1.6-0.5,1.9-0.9C45.1,54,46.2,52.6,45.9,51.8z"/>
	<path class="st0" d="M27.6,44.8l1.1,0.4c0,0,0-0.4-0.1-0.4c-0.1-0.2-0.6-0.5-0.6-0.5L27.6,44.8z"/>
</g>
</svg>
