<?xml version="1.0" encoding="utf-8"?>
<!-- Generator: Adobe Illustrator 22.1.0, SVG Export Plug-In . SVG Version: 6.00 Build 0)  -->
<svg version="1.1" id="Layer_1" xmlns="http://www.w3.org/2000/svg" xmlns:xlink="http://www.w3.org/1999/xlink" x="0px" y="0px"
	 viewBox="0 0 60 152" style="enable-background:new 0 0 60 152;" xml:space="preserve">
<style type="text/css">
	.st0{fill:#BDE6EE;}
	.st1{fill:#003B4D;}
</style>
<polygon class="st0" points="57,17.7 1,1 1,8 1,34.3 1,149 5,149 5,33.1 "/>
<g>
	<g>
		<path class="st1" d="M9.9,16.9L6.8,12h1l2.7,4.2L13,12h0.8l-3.2,4.9v3.8H9.9V16.9z"/>
		<path class="st1" d="M20.2,17.7c0,1.6-0.9,3.2-2.8,3.2s-2.8-1.6-2.8-3.2s0.9-3.2,2.8-3.2S20.2,16.1,20.2,17.7z M17.4,15.1
			c-1.5,0-2,1.4-2,2.5c0,1.1,0.6,2.5,2,2.5s2-1.4,2-2.5C19.5,16.5,18.9,15.1,17.4,15.1z"/>
		<path class="st1" d="M25.9,14.6h0.7v4.7c0,0.5,0,0.9,0.1,1.4h-0.7l0-0.9l0,0c-0.4,0.7-1.1,1.1-1.9,1.1c-2,0-2.1-1.7-2.1-2.4v-3.8
			h0.7v3.9c0,1,0.6,1.7,1.6,1.7c1.2,0,1.7-1,1.7-2.1V14.6z"/>
	</g>
</g>
</svg>
