<?xml version="1.0" encoding="utf-8"?>
<!-- Generator: Adobe Illustrator 22.0.1, SVG Export Plug-In . SVG Version: 6.00 Build 0)  -->
<svg version="1.1" id="Layer_1" xmlns="http://www.w3.org/2000/svg" xmlns:xlink="http://www.w3.org/1999/xlink" x="0px" y="0px"
	 viewBox="0 0 58.6 43" style="enable-background:new 0 0 58.6 43;" xml:space="preserve">
<style type="text/css">
	.st0{fill:#FFFFFF;}
</style>
<path class="st0" d="M18.5,29.5l1.9-3c-0.8-0.5-1.5-1.1-2.1-1.8c-1.7-1.7-2.9-3.6-3.6-5.7l-1.3-0.7l-9.6,6.6v5.4l9.7-3.6L18.5,29.5z
	 M1.8,10.1H0v29.3h39.3v-1.8H1.8V10.1z M29.3,29.3c-2.8,0-5.5-0.7-7.9-2.1l-2.5,3.9l-5.7-3.1l-9.6,3.6v4.2h35.7V29l-2-2
	C35,28.5,32.1,29.3,29.3,29.3 M57.7,37.1L46.1,26.6c-0.5-0.4-1.2-0.6-1.7-0.4L40.2,22c4.1-5.4,3.7-13.1-1.2-18
	c-5.4-5.4-14-5.4-19.4,0c-5.4,5.4-5.4,14,0,19.4c4.9,4.9,12.6,5.3,18,1.2l4.2,4.2c-0.2,0.6,0,1.3,0.4,1.7l10.4,11.5
	c1.1,1.2,2.9,1.2,4,0.1l1.2-1.2C58.9,39.9,58.8,38.1,57.7,37.1 M21.5,6C25.8,1.7,32.8,1.7,37,6c1.2,1.2,2,2.6,2.6,4l-10.1,7L20.6,7
	C20.9,6.7,21.2,6.3,21.5,6 M37,21.5c-4.3,4.3-11.2,4.3-15.5,0c-3.2-3.2-4-8-2.4-12l9.9,11l11.2-7.7C40.5,16,39.4,19.1,37,21.5"/>
</svg>
