<?xml version="1.0" encoding="utf-8"?>
<!-- Generator: Adobe Illustrator 22.0.1, SVG Export Plug-In . SVG Version: 6.00 Build 0)  -->
<svg version="1.1" id="Layer_1" xmlns="http://www.w3.org/2000/svg" xmlns:xlink="http://www.w3.org/1999/xlink" x="0px" y="0px"
	 viewBox="0 0 52.4 45.8" style="enable-background:new 0 0 52.4 45.8;" xml:space="preserve">
<style type="text/css">
	.st0{fill:#FFFFFF;}
</style>
<path class="st0" d="M33.4,35.6l6.5-3.8c0.1-0.1,0.2-0.2,0.2-0.4v-1.7c0-0.2-0.1-0.3-0.2-0.4l-6.5-3.6c-0.1-0.1-0.3,0-0.3,0.2v1.6
	c0,0.2,0.1,0.3,0.2,0.4l4.9,2.7l-4.9,2.9c-0.1,0.1-0.2,0.2-0.2,0.4v1.6C33,35.6,33.2,35.7,33.4,35.6 M16.6,32l6.5,3.6
	c0.1,0.1,0.3,0,0.3-0.2v-1.6c0-0.2-0.1-0.3-0.2-0.4l-4.9-2.7l4.9-2.9c0.1-0.1,0.2-0.2,0.2-0.4v-1.6c0-0.2-0.2-0.3-0.3-0.2l-6.5,3.8
	c-0.1,0.1-0.2,0.2-0.2,0.4v1.7C16.4,31.8,16.4,31.9,16.6,32 M25.7,35.8h1.3c0.2,0,0.4-0.1,0.4-0.3l3.6-9.7c0.1-0.2,0-0.3-0.2-0.3
	h-1.3c-0.2,0-0.4,0.1-0.4,0.3l-3.6,9.7C25.4,35.7,25.5,35.8,25.7,35.8 M10.6,31.9H3.3v1.6h7.4V31.9z M5.7,37.6h4.9V36H5.7V37.6z
	 M5.7,41.7h4.9v-1.6H5.7V41.7z M10.6,19.6H3.3v1.6h7.4V19.6z M5.7,29.5h4.9v-1.6H5.7V29.5z M5.7,25.4h4.9v-1.6H5.7V25.4z M51.5,0H9
	C8.5,0,8.2,0.4,8.2,0.8v10.6H0.8c-0.5,0-0.8,0.4-0.8,0.8v33.5h44.2V12.3c0-0.5-0.4-0.8-0.8-0.8H22.1V5.7h28.6v27h-4.9v1.6h6.5V0.8
	C52.4,0.4,52,0,51.5,0 M9.8,1.6h2.5v2.5H9.8V1.6z M9.8,5.7h10.6v5.7H9.8V5.7z M1.6,13.1h2.5v2.5H1.6V13.1z M12.3,44.2H1.6v-27h10.6
	V44.2z M42.5,44.2H13.9v-27h28.6V44.2z"/>
</svg>
