<?xml version="1.0" encoding="utf-8"?>
<!-- Generator: Adobe Illustrator 22.0.1, SVG Export Plug-In . SVG Version: 6.00 Build 0)  -->
<svg version="1.1" id="Layer_1" xmlns="http://www.w3.org/2000/svg" xmlns:xlink="http://www.w3.org/1999/xlink" x="0px" y="0px"
	 viewBox="0 0 50.2 43.9" style="enable-background:new 0 0 50.2 43.9;" xml:space="preserve">
<style type="text/css">
	.st0{fill:#FFFFFF;}
</style>
<path class="st0" d="M25.1,0C11.2,0,0,11.2,0,25.1c0,7.5,3.3,14.2,8.5,18.8h33.2c5.2-4.6,8.5-11.3,8.5-18.8C50.2,11.2,39,0,25.1,0
	 M40.5,40.7l-15.4-6.4c0,0-8.1,3.4-15.4,6.4c-4-4-6.5-9.5-6.5-15.6c0-12.1,9.9-22,22-22c12.1,0,22,9.9,22,22
	C47.1,31.2,44.6,36.7,40.5,40.7 M28.1,21.5c-1.3-1.1-3.1-1.4-4.8-0.7c-2.4,1-3.5,3.7-2.5,6.2c1,2.4,3.7,3.5,6.2,2.5
	c1.7-0.7,2.7-2.2,2.9-3.9L37,21l-0.6-1.5L28.1,21.5z M9.7,25.1c0-0.4-0.4-0.8-0.8-0.8H5.5c-0.4,0-0.8,0.4-0.8,0.8
	c0,0.4,0.4,0.8,0.8,0.8h3.4C9.3,25.9,9.7,25.5,9.7,25.1 M25.1,9.4c0.4,0,0.8-0.4,0.8-0.8V5.5c0-0.4-0.4-0.8-0.8-0.8
	c-0.4,0-0.8,0.4-0.8,0.8v3.1C24.3,9.1,24.7,9.4,25.1,9.4 M9.8,30.6l-3.1,1.3c-0.4,0.2-0.6,0.6-0.4,1c0.1,0.3,0.4,0.5,0.7,0.5
	c0.1,0,0.2,0,0.3-0.1l3.1-1.3c0.4-0.2,0.6-0.6,0.4-1C10.7,30.6,10.2,30.4,9.8,30.6 M39.1,19.3c0.1,0.3,0.4,0.5,0.7,0.5
	c0.1,0,0.2,0,0.3-0.1l3.4-1.4c0.4-0.2,0.6-0.6,0.4-1c-0.2-0.4-0.6-0.6-1-0.4l-3.4,1.4C39.1,18.4,39,18.9,39.1,19.3 M31.1,10.6
	c0.1,0,0.2,0.1,0.3,0.1c0.3,0,0.6-0.2,0.7-0.5l1.2-2.9c0.2-0.4,0-0.9-0.4-1c-0.4-0.2-0.9,0-1,0.4l-1.2,2.9
	C30.5,10,30.7,10.4,31.1,10.6 M11.8,10.7c-0.3-0.3-0.8-0.3-1.1,0c-0.3,0.3-0.3,0.8,0,1.1l2.4,2.4c0.2,0.2,0.4,0.2,0.6,0.2
	c0.2,0,0.4-0.1,0.6-0.2c0.3-0.3,0.3-0.8,0-1.1L11.8,10.7z M43.5,31.9l-3.4-1.4c-0.4-0.2-0.9,0-1,0.4c-0.2,0.4,0,0.9,0.4,1l3.4,1.4
	c0.1,0,0.2,0.1,0.3,0.1c0.3,0,0.6-0.2,0.7-0.5C44.1,32.5,43.9,32.1,43.5,31.9 M44.7,24.3h-3.7c-0.4,0-0.8,0.4-0.8,0.8
	c0,0.4,0.4,0.8,0.8,0.8h3.7c0.4,0,0.8-0.4,0.8-0.8C45.5,24.7,45.2,24.3,44.7,24.3 M18.3,6.7c-0.2-0.4-0.6-0.6-1-0.4
	c-0.4,0.2-0.6,0.6-0.4,1l1.2,2.9c0.1,0.3,0.4,0.5,0.7,0.5c0.1,0,0.2,0,0.3-0.1c0.4-0.2,0.6-0.6,0.4-1L18.3,6.7z M39.5,10.7
	c-0.3-0.3-0.8-0.3-1.1,0l-2.2,2.2c-0.3,0.3-0.3,0.8,0,1.1c0.2,0.2,0.4,0.2,0.6,0.2c0.2,0,0.4-0.1,0.6-0.2l2.2-2.2
	C39.8,11.5,39.8,11,39.5,10.7 M10.4,18.2l-3.1-1.3c-0.4-0.2-0.9,0-1,0.4c-0.2,0.4,0,0.9,0.4,1l3.1,1.3c0.1,0,0.2,0.1,0.3,0.1
	c0.3,0,0.6-0.2,0.7-0.5C11,18.8,10.8,18.3,10.4,18.2"/>
</svg>
