<?xml version="1.0" encoding="utf-8"?>
<!-- Generator: Adobe Illustrator 22.0.1, SVG Export Plug-In . SVG Version: 6.00 Build 0)  -->
<svg version="1.1" id="Layer_1" xmlns="http://www.w3.org/2000/svg" xmlns:xlink="http://www.w3.org/1999/xlink" x="0px" y="0px"
	 viewBox="0 0 62.1 45.6" style="enable-background:new 0 0 62.1 45.6;" xml:space="preserve">
<style type="text/css">
	.st0{fill:#FFFFFF;}
	.st1{fill:none;stroke:#FFFFFF;stroke-miterlimit:10;}
</style>
<g>
	<path class="st0" d="M50.9,12.6c-0.3,0-0.7,0-1,0c-1.4-4.5-5.6-7.8-10.6-7.8c-1.3,0-2.5,0.2-3.7,0.6C33.3,2.2,29.5,0,25.2,0
		c-6,0-11,4.1-12.3,9.7c-0.1,0-0.2,0-0.3,0C5.6,9.7,0,15.3,0,22.3c0,7,5.6,12.6,12.6,12.6h12v-8.7l-5.7,5.7c-0.7,0.7-1.9,0.7-2.6,0
		L15,30.6c-0.7-0.7-0.7-1.9,0-2.6l12.4-12.4l3.9,3.9l8.5,8.5c0.7,0.7,0.7,1.9,0,2.6l-1.3,1.3c-0.7,0.7-1.9,0.7-2.6,0l-5.7-5.7v8.7
		h20.7c6.2,0,11.2-5,11.2-11.2C62.1,17.6,57.1,12.6,50.9,12.6z"/>
	<path class="st1" d="M15,28c-0.7,0.7-0.7,1.9,0,2.6l1.3,1.3c0.7,0.7,1.9,0.7,2.6,0l5.7-5.7v17.1c0,1,0.8,1.8,1.8,1.8h1.8
		c1,0,1.8-0.8,1.8-1.8V26.2l5.7,5.7c0.7,0.7,1.9,0.7,2.6,0l1.3-1.3c0.7-0.7,0.7-1.9,0-2.6l-8.5-8.5l-3.9-3.9L15,28z"/>
</g>
</svg>
