<?xml version="1.0" encoding="utf-8"?>
<!-- Generator: Adobe Illustrator 22.0.1, SVG Export Plug-In . SVG Version: 6.00 Build 0)  -->
<svg version="1.1" id="Layer_1" xmlns="http://www.w3.org/2000/svg" xmlns:xlink="http://www.w3.org/1999/xlink" x="0px" y="0px"
	 viewBox="0 0 32 32" style="enable-background:new 0 0 32 32;" xml:space="preserve">
<style type="text/css">
	.st0{fill:#FFFFFF;}
</style>
<path class="st0" d="M30,0H2C0.9,0,0,0.9,0,2v28c0,1.1,0.9,2,2,2h28c1.1,0,2-0.9,2-2V2C32,0.9,31.1,0,30,0 M11,25H7.3V13H11V25z
	 M9.2,11.3C8,11.3,7,10.4,7,9.2C7,8,8,7,9.2,7c1.2,0,2.2,1,2.2,2.2C11.3,10.4,10.3,11.3,9.2,11.3 M25,25h-3.7v-5.8
	c0-1.4,0-3.2-1.9-3.2c-1.9,0-2.2,1.5-2.2,3.1V25h-3.7V13h3.6v1.6H17c0.5-0.9,1.7-1.9,3.5-1.9c3.8,0,4.5,2.5,4.5,5.7V25z"/>
</svg>
