<?xml version="1.0" encoding="utf-8"?>
<!-- Generator: Adobe Illustrator 22.0.1, SVG Export Plug-In . SVG Version: 6.00 Build 0)  -->
<svg version="1.1" id="Layer_1" xmlns="http://www.w3.org/2000/svg" xmlns:xlink="http://www.w3.org/1999/xlink" x="0px" y="0px"
	 viewBox="0 0 32 32" style="enable-background:new 0 0 32 32;" xml:space="preserve">
<style type="text/css">
	.st0{fill:#FFFFFF;}
</style>
<path class="st0" d="M30,0H2C0.9,0,0,0.9,0,2v28c0,1.1,0.9,2,2,2h15.5V20.2h-4v-4.6h4v-3.4c0-4,2.4-6.1,5.9-6.1
	c1.7,0,3.1,0.1,3.6,0.2v4.1l-2.4,0c-1.9,0-2.3,0.9-2.3,2.3v3h4.6l-0.6,4.6h-4V32H30c1.1,0,2-0.9,2-2V2C32,0.9,31.1,0,30,0"/>
</svg>
