<?xml version="1.0" encoding="utf-8"?>
<!-- Generator: Adobe Illustrator 22.0.1, SVG Export Plug-In . SVG Version: 6.00 Build 0)  -->
<svg version="1.1" id="Layer_1" xmlns="http://www.w3.org/2000/svg" xmlns:xlink="http://www.w3.org/1999/xlink" x="0px" y="0px"
	 viewBox="0 0 140 109.8" style="enable-background:new 0 0 140 109.8;" xml:space="preserve">
<style type="text/css">
	.st0{fill:rgba(0,59,77,.5);}
</style>
<path class="st0" d="M16.5,25.1c-0.3,0.1-0.6,0.6-0.9,0.7c-0.5,0.2-1.6-0.3-2,0c-0.2,0.2-0.3,0.9-0.5,1c-0.5,0.3-1.9-0.2-2.4,0.2
	c-0.4,0.3-0.4,1.6-0.9,1.9c-0.7,0.5-2.7,0-3.4,0.5C6.3,29.5,6,30,6.1,30.2c0.2,0.6,1.4,1.1,1.9,1.4c0.7,0.4,3,0.4,2.9,1.2
	c-0.1,0.5-1.5,0.2-2.1,0.3c-0.3,0.1-1,0.5-1.4,0.3c-0.3-0.1-0.4-0.8-0.7-0.9c-0.3-0.1-0.9,0.1-1,0.3c-0.1,0.1,0.1,0.4,0,0.5
	c-0.3,0.3-1.3,0-1.7,0.2c-0.2,0.1-0.6,0.5-0.5,0.7c0.1,0.3,0.9,0.3,1,0.5c0.1,0.2-0.3,0.8-0.2,1c0.1,0.2,0.5,0.4,0.7,0.5
	c0.5,0.2,1.6,0.1,2,0c0.4-0.1,1-0.9,1.4-0.9C8.7,35.5,9,35.9,9,36c0,0.2-0.6,0.3-0.7,0.5c-0.2,0.3,0.1,1-0.2,1.2
	c-0.3,0.3-1.2-0.2-1.5,0c-0.2,0.2-0.1,0.9-0.3,1c-0.3,0.1-0.6-0.7-0.9-0.7c-0.4,0-1.1,0.4-1.4,0.7c-0.2,0.2,0,0.8-0.2,1
	c-0.2,0.3-1.3,0.3-1.4,0.7c-0.1,0.2,0.3,0.7,0.5,0.9c0.2,0.1,0.8,0.1,0.9,0.3c0,0.3-1.1,0.3-1.2,0.7c-0.1,0.3,0.5,0.9,0.9,1
	c0.2,0.1,0.8,0,1-0.2c0.2-0.1,0.3-0.9,0.5-0.9c0.3,0.1,0.1,1,0,1.4C5,44,4.6,44.3,4.6,44.6c0,0.3-0.1,0.9,0.2,1
	c0.3,0.2,1.1-0.6,1.5-0.5c0.2,0,0.3,0.4,0.5,0.4c0.3,0.1,0.9-0.6,1.2-0.4c0.3,0.2,0.3,1.3,0.2,1.6c-0.5,1.1-2.9,2-3.9,2.6
	c-0.7,0.4-2.1,1-2.8,1.3c-0.3,0.2-1.2,0.3-1.4,0.6c-0.1,0.1,0,0.5,0.1,0.6c0.9,0.7,3.5-0.4,4.5-0.9c1.4-0.6,3.7-2.3,4.9-3.2
	c0.1-0.1,0.4-0.4,0.5-0.5c0.2-0.1,0.6-0.4,0.8-0.5c0.3-0.2,1.2-0.5,1.4-0.9c0.1-0.2-0.3-0.7-0.3-0.9c0.1-0.5,1.2-1,1.5-1.4
	c0.5-0.5,1.2-2.1,1.9-2.3c0.4-0.1,1.5,0,1.6,0.4c0.1,0.8-2.4,1.1-2.6,1.9c0,0.2,0.5,0.4,0.4,0.6c0,0.2-0.7,0.3-0.7,0.5
	c0,0.2,0.6,0.4,0.8,0.5c1,0.4,1.8-1.3,2.4-1.8c0.2-0.2,0.7-0.2,0.9-0.4c0.2-0.2,0-0.9,0.2-1.1c0.2-0.3,1-0.6,1.3-0.4
	c0.2,0.1,0.1,0.6,0.3,0.7c0.2,0.1,0.8-0.1,0.9,0.1c0.1,0.2-0.1,0.7,0,0.9c0.5,0.5,2.3-0.1,3,0.2c0.1,0,0.3,0.2,0.3,0.3
	c0.1,0.1,0,0.5,0.1,0.6c0.2,0.2,0.8,0.1,1,0.3c0.1,0.1,0,0.7,0.2,0.8c0.2,0.1,0.6-0.2,0.8-0.1c0.2,0.1,0.1,0.5,0.3,0.7
	c0.1,0.2,0.6,0.5,0.8,0.4c0.2-0.1,0.2-0.7,0.4-0.7c0.2,0,0.3,0.5,0.4,0.7c0.1,0.1,0.4,0.4,0.6,0.3c0.1,0,0.2-0.3,0.3-0.3
	c0.1,0,0.4,0.1,0.4,0.2c0.1,0.1-0.1,0.3-0.1,0.4c0,0.2-0.1,0.7,0,0.9c0.1,0.2,0.3,0.4,0.4,0.5c0.1,0.1,0.5,0,0.6,0.1
	c0.1,0.1-0.1,0.6,0,0.8c0.1,0.2,0.6,0.4,0.8,0.4c0.2,0,0.8,0,0.8,0s0.7-0.5,0.7-0.7c-0.1-0.3-1.1-0.1-1.4-0.3
	c-0.3-0.3-0.1-1.3-0.3-1.6c-0.1-0.1-0.4-0.1-0.5-0.3c-0.2-0.2-0.1-0.9-0.3-1.2c-0.2-0.5-1-1.4-1.5-1.6c-0.1-0.1-0.5-0.2-0.6-0.1
	c-0.1,0.1,0,0.6-0.2,0.7c-0.1,0.1-0.5-0.1-0.6,0c-0.1,0.1-0.1,0.6-0.3,0.6c-0.3,0.1-0.7-0.4-0.9-0.6c-0.2-0.3-0.1-1-0.3-1.3
	c-0.1-0.1-0.3-0.3-0.4-0.3c-0.2,0-0.9,0.3-0.9,0.3l4.4-15c0,0-0.7-0.8-1-0.9c-0.6-0.2-1.8,0.2-2.4,0.3c-0.3,0-0.8,0.2-1,0.1
	c-0.2-0.1-0.5-0.6-0.7-0.7c-0.7-0.3-2.4,0.6-3.1,0.3c-0.4-0.2-0.6-1.3-1-1.4c-0.3,0-0.7,0.8-1,0.9c-0.4,0.1-1.2,0.1-1.5-0.2
	c-0.2-0.2,0.1-0.8-0.1-0.9C17.1,25.1,16.7,25.1,16.5,25.1z"/>
<path class="st0" d="M36.7,58.9l26-0.1c0,0-0.2,0.6-0.1,0.7c0.3,0.3,1.3,0,1.8,0c0.7,0,2,0.2,2.7,0.3c0.4,0,1.3-0.1,1.7,0
	c0.4,0.1,1,0.8,1.4,1c0.4,0.2,1.3,0.5,1.6,0.9c0.4,0.4,0.8,1.5,1,2c0.2,0.5,1,1.4,0.9,2c0,0.5-0.9,1.3-1.2,1.7
	c-0.1,0.2-0.6,0.5-0.5,0.8c0.1,0.4,1.1,0.7,1.5,0.6c0.7-0.1,1.6-1.4,2.1-1.9c0.2-0.2,0.6-0.7,0.9-0.8c0.5-0.2,1.8,0.4,2.2,0.1
	c0.3-0.2,0.2-1.1,0.4-1.5c0.1-0.2,0.5-0.7,0.8-0.8c0.9-0.4,3.1,0.7,4,0.3c0.3-0.1,0.5-0.7,0.7-0.9c0.1-0.2,0.4-0.7,0.5-0.9
	c0.2-0.4,0.2-1.4,0.6-1.6c0.3-0.2,1.1,0,1.4,0.3c0.5,0.5-0.2,2.2,0.2,2.7c0.1,0.2,0.7,0.3,0.7,0.3s-0.4,0.6-0.6,0.7
	c-0.2,0.1-0.7,0-0.9,0.1c-0.2,0.1-0.3,0.5-0.4,0.6c-0.2,0.1-0.5-0.2-0.7-0.1c-0.1,0.1-0.1,0.4-0.2,0.5c-0.2,0.1-0.6-0.1-0.8,0
	c-0.2,0.1-0.3,0.6-0.3,0.9c-0.1,0.2-0.2,0.6-0.2,0.8c0.1,0.2,0.7,0.4,0.7,0.7c0,0.2-0.6,0.4-0.9,0.5c-0.4,0.1-1.4-0.1-1.8,0.2
	c-0.2,0.1-0.2,0.6-0.3,0.8c-0.1,0.1-0.2,0.4-0.3,0.5c-0.2,0.1-0.8,0-1,0.2c-0.2,0.1-0.4,0.5-0.5,0.7c-0.2,0.4,0,1.4-0.3,1.7
	c-0.1,0.1-0.5,0.2-0.7,0.3c-0.1,0.1-0.3,0.4-0.4,0.5c-0.1,0.1-0.5,0.4-0.4,0.6c0,0.2,0.4,0.2,0.5,0.3c0.2,0.5,0.2,1.6-0.1,2.1
	c-0.1,0.2-0.6,0.2-0.7,0.3c-0.1,0.2,0,0.7-0.2,0.8c-0.2,0.2-0.9-0.2-1.1-0.1c-0.2,0.1-0.3,0.6-0.5,0.7c-0.2,0.2-0.8,0.2-1,0.3
	c-0.2,0.2-0.2,0.8-0.3,0.9c-0.1,0.1-0.6,0.1-0.8,0.2c-0.3,0.1-0.7,0.5-0.9,0.8c-0.1,0.2-0.2,0.7-0.3,0.9c-0.1,0.4,0,1.2,0,1.5
	c0,0.3-0.3,1-0.1,1.3c0.1,0.1,0.4,0.1,0.4,0.2c0.2,0.3,0,1.3,0.1,1.7c0,0.1,0.2,0.3,0.2,0.4c0.2,0.6,0.5,1.8,0.5,2.4
	c0,0.3-0.2,0.9-0.4,0.9c-0.2,0-0.3-0.5-0.5-0.6c-0.2-0.2-0.8-0.4-1-0.6c-0.2-0.3-0.4-1-0.5-1.4c-0.1-0.4-0.4-1.1-0.4-1.5
	c0-0.4,0.3-1.2,0.2-1.5c-0.1-0.3-0.6-0.6-0.8-0.8c-0.2-0.2-0.6-0.7-0.9-0.8c-0.3-0.1-0.9,0.3-1.2,0.3c-0.3,0-0.7-0.5-0.9-0.5
	c-0.5-0.1-1.7,0-2.2,0.2c-0.2,0.1-0.6,0.3-0.7,0.5c-0.1,0.3,0.6,0.8,0.4,1c-0.1,0.2-0.8,0.1-1,0.1c-0.3,0-0.9,0-1.1-0.3
	c-0.2-0.3,0.1-1.2-0.2-1.4c-0.2-0.1-0.6,0.1-0.8,0.3c-0.2,0.2,0,0.9-0.3,1c-0.1,0.1-0.5-0.1-0.6-0.2c-0.2-0.2-0.3-0.8-0.6-0.9
	c-0.2,0-0.5,0.3-0.7,0.4c-0.2,0.1-0.5,0.4-0.6,0.6c-0.2,0.2-0.4,0.7-0.6,0.9c-0.1,0.2-0.4,0.5-0.6,0.7c-0.2,0.2-0.9,0.3-1.1,0.5
	c-0.3,0.3-0.4,1.6-0.4,1.6s-1.1,0.2-1.4,0c-0.3-0.2,0-1.1-0.3-1.4c-0.1-0.2-0.7-0.2-0.9-0.4c-0.2-0.3-0.1-1.1-0.3-1.5
	c-0.1-0.2-0.4-0.6-0.6-0.8c-0.2-0.2-0.7-0.9-1-0.8c-0.3,0.1-0.1,1.2-0.3,1.4c-0.2,0.2-0.8,0.2-1,0c-0.3-0.3-0.2-1.3-0.5-1.6
	c-0.1-0.1-0.5-0.1-0.6-0.2c-0.2-0.2,0.1-0.8-0.1-0.9c-0.1-0.1-0.6,0-0.8-0.2c-0.2-0.2-0.1-0.9-0.3-1c-0.2-0.1-0.5,0.4-0.7,0.5
	c-0.2,0.1-0.7-0.1-0.9,0.1c-0.1,0.1,0,0.5-0.2,0.6c-0.3,0.2-1.1-0.1-1.5,0c-0.3,0.1-0.8,0.4-1.1,0.4c-0.4,0-1.2-0.2-1.5-0.3
	c-0.3-0.2-0.7-0.8-1-1c-0.2-0.1-0.7-0.2-0.9-0.3c-0.1-0.1-0.1-0.5-0.3-0.6c-0.4-0.3-2.1-0.1-2.1-0.1s0.2-0.7,0.1-0.9
	c-0.2-0.3-1-0.3-1.3-0.4c-0.2-0.1-0.6-0.5-0.9-0.7c-0.2-0.1-0.8-0.2-0.9-0.4c-0.2-0.3,0.4-1.1,0.2-1.4c-0.2-0.2-1,0-1.2-0.3
	c-0.1-0.2,0-0.6,0.1-0.8c0.1-0.2,0.4-0.7,0.3-0.9c0-0.2-0.4-0.6-0.6-0.8c-0.2-0.2-0.7-0.6-0.9-0.9c-0.3-0.7-0.5-2.2-0.2-2.9
	c0.1-0.2,0.6-0.3,0.6-0.5c0-0.2-0.4-0.3-0.4-0.4c-0.1-0.1-0.1-0.4-0.1-0.5c0-0.1,0.2-0.4,0.3-0.5c0.1-0.3,0-0.9,0.2-1.1
	c0.1-0.1,0.4-0.2,0.5-0.3c0.2-0.4-0.2-1.3,0-1.7c0.1-0.2,0.4-0.3,0.5-0.4c0.3-0.4,0.1-1.6,0.4-2c0.1-0.1,0.5,0,0.5-0.2
	c0.1-0.3-0.6-0.6-0.7-0.9c-0.1-0.2-0.1-0.7,0-0.9c0.1-0.2,0.6-0.2,0.9-0.2c0.2,0.1,0.5,0.5,0.6,0.7c0.1,0.1,0.2,0.6,0.4,0.6
	C37,60.8,36.7,58.9,36.7,58.9z"/>
<path class="st0" d="M11.2,47.3c0.1-0.1,0.2-0.5,0.3-0.6c0.2-0.1,0.8-0.2,0.9,0c0.2,0.2,0.1,0.7,0,0.9c-0.2,0.4-0.7,1.1-1.1,1.1
	c-0.3,0-0.8-0.5-0.8-0.8C10.6,47.7,11.1,47.5,11.2,47.3z"/>
<path class="st0" d="M92.8,42.7c0.2,0,0.4,0.6,0.5,0.8c0.1,0.3,0,1.1,0.3,1.3c0.1,0.1,0.6-0.1,0.8,0c0.3,0.3-0.1,1.5,0.3,1.7
	c0.1,0.1,0.4-0.2,0.5-0.1c0.1,0.1,0.1,0.6,0,0.8c-0.1,0.1-0.4,0.2-0.5,0.3c-0.1,0.2,0,0.6,0.1,0.7c0.1,0.1,0.6,0,0.7,0.2
	c0.3,0.3,0,1.4,0.3,1.6c0.3,0.2,1.1-0.4,1.3-0.2c0.1,0.1-0.3,0.6-0.2,0.7c0.2,0.2,0.9-0.4,1-0.2c0.2,0.2-0.5,0.7-0.7,0.9
	c-0.1,0.2-0.1,0.6-0.3,0.7c-0.3,0.2-1.3,0-1.4,0.3c0,0.2,0.4,0.3,0.6,0.3c0.3,0,0.8-0.2,1-0.3c0.2-0.1,0.7-0.5,0.9-0.5
	c0.2,0,0.8-0.1,0.9,0.1c0.2,0.1,0.1,0.6,0.2,0.9c0,0.3,0,0.9,0,1.2c0,0.2,0.1,0.5,0.1,0.7c0,0.1,0,0.4-0.1,0.5
	c-0.2,0.2-0.9,0.3-1.2,0.3c-0.3,0-0.8-0.2-1-0.1c-0.4,0.1-1,1-1.4,1.2c-0.5,0.2-1.7,0.2-2.3,0.3c-0.6,0-1.8,0-2.4,0
	c-0.3,0-0.9-0.3-1.2-0.2c-0.3,0.1-0.6,0.6-0.9,0.8c-0.3,0.2-1,0.4-1.3,0.6c-0.4,0.3-1.5,1.2-1.2,1.5c0.3,0.4,1.5-0.6,2-0.9
	c0.3-0.1,0.9-0.6,1.2-0.6c0.3,0,1.1,0.3,1.2,0.7c0.1,0.3-0.8,0.8-0.8,1.2c0,0.4,0.8,1,1.1,1.2c0.6,0.5,2.7,0.6,2.7,1.4
	c0,0.7-1.9,1-2.5,1.4c-0.6,0.4-1.7,1.7-2.4,1.6c-0.2,0-0.5-0.4-0.5-0.6c0.1-1,2.7-1.8,2.9-2.7c0-0.1-0.1-0.4-0.2-0.4
	c-0.2-0.1-0.7-0.1-0.9,0c-0.8,0.3-2.5,2.1-2.5,2.1s-0.6-0.2-0.7-0.3c-0.4-0.6,0.3-2.2-0.2-2.7c-0.2-0.3-1.1-0.4-1.4-0.3
	c-0.4,0.2-0.4,1.2-0.6,1.6c-0.1,0.2-0.4,0.7-0.5,0.9c-0.2,0.2-0.4,0.8-0.7,0.9c-0.9,0.4-3.1-0.6-4-0.3c-0.3,0.1-0.6,0.5-0.8,0.8
	c-0.2,0.3-0.1,1.2-0.4,1.5c-0.5,0.3-1.7-0.3-2.2-0.1c-0.3,0.1-0.6,0.6-0.9,0.8c-0.5,0.5-1.4,1.8-2.1,1.9c-0.4,0.1-1.3-0.2-1.5-0.6
	c-0.1-0.2,0.4-0.6,0.5-0.8c0.3-0.4,1.2-1.2,1.2-1.7c0-0.5-0.7-1.5-0.9-2c-0.2-0.5-0.6-1.6-1-2c-0.3-0.3-1.2-0.6-1.6-0.9
	c-0.4-0.2-1-0.9-1.4-1c-0.4-0.1-1.3,0-1.7,0c-0.7,0-2-0.2-2.7-0.3c-0.4,0-1.5,0.3-1.8,0c-0.1-0.1,0.1-0.7,0.1-0.7l-26,0.1
	c0,0-0.9-1.3-1.3-1.6c-0.3-0.3-1-0.6-1.3-0.9c-0.3-0.3-0.9-0.8-1-1.2C33,54.9,33,54.2,33,53.8c0-0.3,0.1-1-0.1-1.2
	c-0.2-0.2-0.8,0.2-0.9,0.1c-0.2-0.2,0.1-0.7-0.1-0.9c-0.1-0.1-0.5-0.1-0.6-0.3c-0.2-0.3,0.1-1.1,0.2-1.5c0.1-0.2,0.4-0.8,0.4-0.8
	s0.7-0.5,0.7-0.7c-0.1-0.3-1.1-0.1-1.4-0.3c-0.3-0.3-0.1-1.3-0.3-1.6c-0.1-0.1-0.4-0.1-0.5-0.3c-0.2-0.2-0.1-0.9-0.3-1.2
	c-0.2-0.5-1-1.4-1.5-1.6c-0.1-0.1-0.5-0.2-0.6-0.1c-0.1,0.1,0,0.6-0.2,0.7c-0.1,0.1-0.5-0.1-0.6,0c-0.1,0.1-0.1,0.6-0.3,0.6
	c-0.3,0.1-0.7-0.4-0.9-0.6c-0.2-0.3-0.1-1-0.3-1.3c-0.1-0.1-0.3-0.3-0.4-0.3c-0.2,0-0.9,0.3-0.9,0.3l4.4-15c0,0,2.1,0.3,2.8,0.5
	c0.7,0.2,1.9,1,2.6,1.2c0.2,0.1,0.8,0.3,1,0.1c0.2-0.2,0-0.8,0.1-1c0.1-0.3,0.7-0.5,0.9-0.7c0.6-0.4,1.7-1.5,2.4-1.5
	c0.2,0,0.7,0.2,0.7,0.4c0,0.5-1.9,0.6-1.7,1.1c0.1,0.4,1.4,0.1,1.8-0.1c0.2-0.1,0.5-0.5,0.7-0.7c0.1-0.2,0.3-0.6,0.4-0.8
	c0.1-0.1,0.4-0.3,0.6-0.3c0.4,0.1,0.5,1.2,0.9,1.5c0.2,0.2,0.8,0.3,1.1,0.2c0.2-0.1,0.3-0.6,0.5-0.6c0.3,0,0.4,1,0.7,1
	c0.3,0,0.6-0.6,0.9-0.7c0.9-0.2,2.7,1,3.7,1.2c0.6,0.1,1.7-0.1,2.3,0.1c0.5,0.1,1.5,0.4,1.7,0.9c0.1,0.3-0.6,1-0.3,1.2
	c0.4,0.4,1.7-0.8,2.3-0.7c0.6,0.1,1.1,1.4,1.6,1.6c0.3,0.1,1,0.2,1.2-0.1c0.1-0.2-0.2-0.6-0.2-0.9c0.1-0.5,0.9-1.3,1.4-1.4
	c0.5,0,1,1,1.5,1.1c1,0.4,3.4,0.7,4.4,0.3c0.3-0.1,0.5-0.8,0.8-0.9c0.3-0.2,1-0.3,1.3-0.2c0.3,0.1,0.4,1,0.7,1
	c0.3,0.1,0.8-0.4,1-0.6c0.2-0.2,0.8-0.4,0.9-0.7c0.2-0.5-0.2-1.5-0.5-2c-0.2-0.3-1.2-0.5-1.2-0.9c0-0.3,0.7-0.4,0.9-0.6
	c0.2-0.2,0.3-0.7,0.5-0.9c0.3-0.3,0.9-0.9,1.3-0.9c0.5,0,1.2,0.8,1.4,1.2c0.1,0.3-0.3,0.8-0.3,1.1c0,0.2,0.1,0.7,0.2,0.9
	c0.1,0.3,0.7,0.5,0.9,0.8c0.2,0.3,0.1,1.3,0.4,1.4c0.4,0.1,0.7-1.4,1.1-1.4c0.3,0,0.5,0.9,0.6,1.2c0.1,0.5-0.4,1.6-0.1,2
	c0.1,0.2,0.7,0.1,0.9,0c0.2-0.2,0.2-0.9,0.3-1.1c0.2-0.4,1-0.8,1.2-1.2c0.2-0.4,0.2-1.4,0.5-1.6c0.5-0.3,1.7-0.1,2.1,0.3
	c0.3,0.3,0.7,1.1,0.6,1.5c-0.1,0.2-0.8,0.3-0.9,0.5c-0.2,0.5,0.6,1.5,0.4,2c-0.3,0.7-2,1.7-2.7,1.5c-0.2-0.1-0.2-0.6-0.4-0.7
	c-0.3-0.2-1.2-0.2-1.5,0.1c-0.2,0.2,0,1-0.3,1.2c-0.3,0.3-1.3,0.2-1.7,0c-0.2-0.1-0.3-0.5-0.5-0.5c-0.2-0.1-0.6-0.1-0.7,0.1
	c-0.1,0.1,0,0.5,0.1,0.7c0.3,0.3,1.4,0.2,1.6,0.6c0.2,0.4-0.2,1.2-0.4,1.5c-0.2,0.2-0.6,0.5-0.9,0.6c-0.3,0.1-1.1,0-1.4,0.2
	c-0.3,0.2-0.5,0.9-0.8,1.2c-0.4,0.4-1.4,1.1-1.9,1.5c-0.4,0.3-1.2,1-1.5,1.4c-0.4,0.4-1.1,1.4-1.3,2c-0.1,0.3-0.3,1.2-0.1,1.5
	c0.2,0.2,1,0,1.2,0.3c0.4,0.4,0.1,2,0.6,2.4c0.5,0.4,2,0.1,2.6,0.3c0.5,0.3,1.2,1.4,1.7,1.6c0.2,0.1,0.8,0,1,0.2
	c0.3,0.2,0.7,1,1,1.1c0.4,0.2,1.5-0.5,1.8-0.2c0.4,0.4-0.1,1.6-0.2,2.1c0,0.5-0.3,1.4-0.2,1.9c0.1,0.4,0.4,1.1,0.7,1.4
	c0.2,0.1,0.6,0.2,0.8,0.1c0.2-0.1,0.4-0.7,0.6-0.7c0.2,0,0.5,0.7,0.8,0.6c0.2-0.1,0.3-0.6,0.3-0.8c0.2-0.5,0.4-1.6,0.4-2.1
	c0-0.2-0.1-0.6-0.1-0.9c0-0.4,0-1.2,0.2-1.5c0.2-0.3,1.2-0.4,1.5-0.8c0.7-1-0.5-3.5-0.5-5c0-0.3,0.8-0.2,0.9-0.4
	c0.3-0.4,0.4-1.5,0.3-2c0-0.2-0.2-0.5-0.3-0.7c0-0.4,0.1-1.2,0.3-1.5c0.2-0.4,0.6-1.4,1-1.5c0.4-0.1,1.1,0.7,1.5,0.9
	c0.5,0.1,1.6-0.2,2.1,0c0.3,0.1,0.6,0.6,0.9,0.9c0.2,0.2,0.6,0.8,0.9,0.9c0.3,0.2,1.3,0.2,1.4,0.5c0.1,0.2-0.5,0.5-0.6,0.8
	c-0.2,0.6-0.3,2.1,0.1,2.6c0.2,0.3,1.1,0.4,1.5,0.4c0.4,0,1.2-0.3,1.5-0.5c0.2-0.2,0.5-0.6,0.6-0.9C92.2,43.8,92.4,42.7,92.8,42.7z"
	/>
<path class="st0" d="M98.3,56.1c0.1,0.1-0.3,0.1-0.4,0.2c-0.2,0.1-0.3,0.5-0.4,0.7c-0.1,0.2-0.4,0.6-0.6,0.8
	c-0.2,0.2-0.7,0.3-0.9,0.4c-0.2,0.2-0.4,0.7-0.4,0.9c-0.1,0.3-0.2,1.1,0,1.4c0.2,0.2,0.8,0.2,1.1,0.2c0.3,0,0.7-0.4,0.9-0.4
	c0.2,0,0.6-0.1,0.8,0c0.2,0.2,0,1,0.2,1.3c0.1,0.1,0.5,0.4,0.7,0.3c0.2-0.1-0.2-0.8,0-0.9c0.1-0.1,0.5,0.1,0.6,0.2
	c0.1,0.1,0.1,0.8,0.3,0.8c0.3,0,0.4-0.9,0.5-1.2c0.1-0.3,0.4-0.7,0.4-1c0-0.4,0-1.2-0.3-1.5c-0.1-0.1-0.5-0.2-0.7-0.3
	c-0.2,0-0.7,0.1-0.9,0c-0.2-0.1-0.3-0.6-0.3-0.9c0-0.1,0.2-0.5,0.1-0.6c-0.1-0.2-0.6-0.1-0.4-0.3C98.5,56,98.2,56,98.3,56.1z"/>
<path class="st0" d="M101.3,60.4c0.2,0.1-0.1,0.5-0.1,0.7c0,0.2,0,0.6-0.1,0.7c-0.1,0.1-0.6,0.3-0.7,0.2
	C100.2,61.6,100.9,60.2,101.3,60.4z"/>
<path class="st0" d="M46.8,18.7c-0.6,0.1-0.9,1.4-1.2,1.9c-0.2,0.3-0.5,0.9-0.7,1.2c-0.3,0.4-1.2,0.9-1.2,1.4c0,0.3,0.6,0.8,0.9,1
	c0.3,0.3,1,0.8,1.4,0.9c0.7,0,1.9-1,2.6-1.4c0.3-0.2,1-0.7,1.4-0.9c0.5-0.2,1.6-0.3,2-0.5c0.4-0.2,1.3-0.6,1.4-1
	c0-0.6-1.2-1.3-1.7-1.5c-0.5-0.3-1.7-0.2-2.2-0.5c-0.3-0.1-0.6-0.9-0.9-0.9c-0.4,0-0.7,1-1,1C47.2,19.3,47,18.6,46.8,18.7z"/>
<path class="st0" d="M54.1,21.9c-0.5,0.2-1.6,0.6-1.9,1c-0.1,0.2,0.1,0.7,0,0.9c-0.4,0.4-1.8-0.2-2.2,0.2c-0.2,0.1-0.3,0.7-0.2,0.9
	c0.5,0.8,3.6-0.2,3.6,0.7c0,0.7-2.1,0.3-2.7,0.7c-0.2,0.1-0.5,0.3-0.5,0.5c0.1,0.5,1.4,0.8,1.9,1c0.4,0.2,1.2,0.7,1.7,0.9
	c0.6,0.1,1.8,0,2.4,0c1,0,3.1,0,4.1-0.2c0.6-0.1,2.3,0.1,2.6-0.5c0.2-0.4-0.9-1.3-0.7-1.7c0.2-0.3,1.5,0,1.5-0.3
	c0.1-0.5-1.4-0.7-1.7-1c-0.4-0.4-1-1.5-1-2.1c0-0.3,0.7-0.9,0.5-1.2c-0.2-0.5-1.6-0.6-2-0.3c-0.5,0.3,0,2.1-0.5,2.2
	c-0.4,0.1-0.7-0.9-1-1.2c-0.2-0.2-0.6-0.7-0.9-0.7c-0.3,0.1-0.3,1.2-0.7,1.2c-0.4,0-0.3-1.2-0.7-1.4C55.3,21.2,54.5,21.7,54.1,21.9z
	"/>
<path class="st0" d="M61.8,20.9c0.5,0,1-0.2,1-0.5c0-0.3-0.4-0.5-1-0.5c-0.5,0-1,0.2-1,0.5C60.8,20.6,61.3,20.9,61.8,20.9z"/>
<path class="st0" d="M54.6,13.2c-0.3-0.2-1.2,0.4-1.5,0.5c-0.6,0.2-1.6,0.8-2.2,1c-0.5,0.2-1.6,0.1-1.9,0.5c-0.2,0.2-0.4,1-0.2,1.2
	c0.4,0.5,2,0.5,2.6,0.3c0.6-0.2,1.2-1.5,1.7-1.7c0.4-0.1,1.3,0.3,1.5,0C55,14.7,55,13.5,54.6,13.2z"/>
<path class="st0" d="M52.9,18.2c-0.3,0-0.5-0.4-0.5-0.8c0-0.5,0.2-0.8,0.5-0.8s0.5,0.4,0.5,0.8C53.4,17.8,53.2,18.2,52.9,18.2z"/>
<path class="st0" d="M57.5,16.3c-0.3,0.1-0.6,0.7-0.9,0.9c-0.4,0.2-1.5-0.3-1.9,0c-0.3,0.2-0.5,1.2-0.3,1.5c0.3,0.4,1.5,0.5,2,0.5
	c0.4,0,1.3-0.2,1.7-0.3c0.4-0.1,1.1-0.4,1.5-0.5c0.5-0.1,1.4-0.4,1.9-0.3c0.4,0,1.4,0.8,1.7,0.5c0.3-0.4-0.5-1.5-0.9-1.9
	c-0.4-0.3-1.5-0.2-1.9-0.5c-0.2-0.2-0.1-1-0.3-1.2c-0.3-0.2-1.3-0.1-1.5,0.2c-0.2,0.2,0,0.8-0.2,1C58.4,16.3,57.8,16.2,57.5,16.3z"
	/>
<path class="st0" d="M59.1,12.7c-0.3,0-0.9-0.2-1.2,0c-0.2,0.2-0.4,0.7-0.5,1c0,0.2-0.2,0.7,0,0.9c0.3,0.2,0.9-0.6,1.2-0.7
	c0.3-0.1,1.1-0.1,1.4-0.3c0.2-0.2,0.4-0.8,0.2-1C59.9,12.3,59.3,12.7,59.1,12.7z"/>
<path class="st0" d="M58,10.6c0.2-0.2,0.6-0.5,0.9-0.5c0.3-0.1,0.9,0,1.2,0.2c0.2,0.1,0.6,0.6,0.5,0.9c-0.1,0.4-1.1,0.4-1.5,0.5
	c-0.5,0.1-1.6,0.6-1.9,0.2C57,11.5,57.8,10.9,58,10.6z"/>
<path class="st0" d="M64.7,10.1c0.3-0.1,0.9,0.1,1.2,0.2c0.3,0.1,0.9,0.2,1.2,0.3c0.3,0.2,0.8,0.9,1,1.2c0.1,0.2,0.5,0.8,0.3,1
	c-0.3,0.4-1.6,0.6-2,0.3c-0.3-0.1-0.3-0.9-0.5-1c-0.2-0.2-0.9,0-1.2-0.2c-0.3-0.2-0.9-0.8-0.9-1.2C63.9,10.5,64.4,10.2,64.7,10.1z"
	/>
<path class="st0" d="M65.4,20c-0.1,0.2,0.3,0.8,0.3,1c0,0.3,0.1,1.1-0.2,1.2c-0.4,0.2-1.1-1-1.5-0.9c-0.2,0.1-0.3,0.8-0.2,1
	c0.2,0.4,1.1,0.6,1.4,0.9c0.2,0.2,0.4,0.7,0.7,0.9c0.3,0.2,1.2,0.3,1.5,0.2c0.4-0.2,0.8-1.1,0.9-1.5c0-0.3-0.5-0.9-0.5-1.2
	c-0.1-0.5,0.5-1.6,0.2-1.9C67.5,19.2,65.7,19.5,65.4,20z"/>
<path class="st0" d="M66.2,26.5c-0.3,0-0.8,0.4-1,0.7c-0.2,0.3-0.5,0.9-0.3,1.2c0.2,0.4,1.3,0.3,1.7,0.2c0.3-0.1,1-0.4,1-0.7
	C67.6,27.4,66.7,26.6,66.2,26.5z"/>
<path class="st0" d="M69.7,23.1c-0.3-0.3,0.1-1.2,0.2-1.5c0.1-0.4,0.3-1.1,0.5-1.4c0.3-0.3,1.1-0.6,1.5-0.7c0.3-0.1,1,0.1,1.4,0.2
	c0.3,0.1,1,0.1,1,0.3c0.1,0.3-0.6,0.8-0.9,1c-0.3,0.3-1,0.9-1.4,1c-0.2,0.1-0.8-0.1-1,0c-0.2,0.2-0.1,0.9-0.3,1
	C70.5,23.3,69.8,23.3,69.7,23.1z"/>
<path class="st0" d="M77.9,19.9c-0.4-0.4-1.6,0.3-2,0.7c-0.5,0.4-1.1,1.5-1.2,2.1c-0.1,0.5-0.1,1.5,0.2,1.9c0.2,0.3,1.5,0.3,1.5,0.7
	c0,0.2-0.6,0.4-0.7,0.7c0,0.2,0.2,0.6,0.3,0.7c0.7,0.4,2.4-0.6,3.2-0.5c0.6,0.1,1.5,1.1,2,1c0.5,0,1.1-1.1,1.5-1
	c0.6,0,1.7,1.1,1.9,1.7c0.1,0.3-0.4,1-0.2,1.2c0.3,0.3,1.3-0.1,1.7,0c0.3,0.1,0.9,0.6,1,0.9c0.2,0.4,0.3,1.4,0.2,1.9
	c-0.2,0.7-1.3,1.7-1.9,2.1c-0.7,0.4-2.4,0.2-3.1,0.7c-0.3,0.2-0.7,0.7-0.7,1c0,0.4,0.8,1.1,1.2,1.2c0.6,0.2,1.9-0.8,2.6-0.7
	c0.8,0.2,1.9,1.6,2.6,2.1c0.8,0.5,2.7,2.4,3.4,1.7c0.5-0.5-1.8-2.2-1.2-2.7c0.5-0.5,1.7,1.8,2.4,1.5c0.4-0.1,0.7-1.2,0.7-1.7
	c0-0.5-0.1-1.7-0.5-2.1c-0.3-0.3-1.4,0-1.7-0.3c-0.3-0.4-0.2-1.7,0.2-2.1c0.1-0.2,0.6-0.2,0.9-0.2c0.9,0.3,1.8,2.9,2.7,2.7
	c0.5-0.1,0.8-1.3,1-1.7c0.2-0.3,0.8-0.9,0.7-1.2c-0.1-0.5-1.2-1-1.7-1.2c-0.4-0.2-1.5-0.2-1.9-0.5c-0.5-0.3-1.4-1.3-1.4-1.9
	c0-0.4,1-0.8,1-1.2c0-0.4-0.5-1.2-0.9-1.5c-0.6-0.5-2.1-0.9-2.7-1.2c-0.4-0.2-1.4-0.5-1.7-0.9c-0.5-0.4-0.8-1.9-1.4-2.2
	c-0.8-0.4-2.7-0.1-3.4,0.3c-0.4,0.2-0.6,1.5-1,1.4c-0.7-0.3,1-2.5,0.5-3.1c-0.4-0.5-1.8-0.4-2.4-0.2c-0.4,0.2-1,1.1-1.2,1.5
	c-0.1,0.3,0.1,1-0.2,1.2c-0.2,0.2-1,0.1-1.2-0.2C76.8,21.9,78.3,20.3,77.9,19.9z"/>
<path class="st0" d="M83,32.2c-0.4,0,0.1-0.7,0.1-1.2c0-0.5,0.3-0.8,0.7-0.8c0.4,0,0.7,0.4,0.7,0.8C84.6,31.5,83.4,32.2,83,32.2z"/>
<path class="st0" d="M82.3,29.4c-0.3,0-0.5-0.4-0.5-1c0-0.5,0.2-1,0.5-1c0.3,0,0.5,0.4,0.5,1C82.8,28.9,82.6,29.4,82.3,29.4z"/>
<path class="st0" d="M76,34.7c0.4,0,1.4,0.2,1.7,0.5c0.2,0.2,0.6,0.8,0.5,1c-0.1,0.3-1.1,0.3-1.4,0.5c-0.4,0.3-1,1.4-1.5,1.4
	c-0.4,0-0.9-1-1-1.4c-0.1-0.3,0-1.1,0.2-1.4C74.7,35.1,75.6,34.7,76,34.7z"/>
<path class="st0" d="M66.1,16.1c0-0.4,1-0.8,1.4-0.9c0.3-0.1,1.1-0.1,1.4,0.2c0.3,0.4,0.2,1.7-0.2,2.1c-0.5,0.5-2.2,0.8-2.9,0.5
	c-0.3-0.1-0.7-0.8-0.9-1c-0.2-0.3-0.9-1-0.9-1.4c0-0.2,0.4-0.7,0.7-0.7c0.3,0,0.9,0.7,0.9,1"/>
<path class="st0" d="M70.2,11.1c-0.2,0.2-0.1,0.9,0,1.2c0.1,0.3,0.6,0.8,0.9,0.9c0.2,0.1,0.8,0,1-0.2c0.3-0.2,0.5-0.9,0.5-1.2
	c0-0.4-0.5-1.1-0.9-1.2C71.3,10.5,70.4,10.8,70.2,11.1z"/>
<path class="st0" d="M69.8,8.1c-0.3,0.2-0.4,1.1-0.2,1.4c0.2,0.3,1.1,0.2,1.4,0c0.2-0.2,0.5-0.8,0.3-1C71.2,8.1,70.1,7.8,69.8,8.1z"
	/>
<path class="st0" d="M75.1,5.8c-0.4,0.1-0.6,0.9-0.9,1.2c-0.2,0.3-0.9,0.8-1,1.2c-0.1,0.3-0.1,1.1,0.2,1.4c0.2,0.2,1-0.2,1.2,0
	c0.1,0.2-0.2,0.6-0.2,0.9c0,0.3,0.1,0.9,0.3,1c0.6,0.5,2.4,0.7,3.1,0.3c0.3-0.1,0.7-0.9,0.9-1.2c0.2-0.4,0.3-1.4,0.2-1.9
	c-0.1-0.5-0.8-1.2-1.2-1.5C77.1,6.7,75.8,5.7,75.1,5.8z"/>
<path class="st0" d="M78.4,5c-0.1,0.3,0.4,0.8,0.5,1c0.2,0.3,0.6,0.8,0.9,1c0.2,0.1,0.6,0.3,0.9,0.3c0.4,0.1,1.3,0.5,1.7,0.5
	c0.4,0,1.1-0.5,1.5-0.7c0.5-0.2,1.6-0.3,2-0.5c0.2-0.1,0.5-0.4,0.7-0.3c0.3,0.2,0.2,1,0,1.2c-0.4,0.4-1.7,0.3-2.2,0.5
	C84,8.2,83,8.4,83,8.8c0,0.3,1.3,0.2,1.2,0.5c-0.1,0.5-1.7,0.2-2.2,0c-0.3-0.1-0.7-0.8-1-0.7c-0.3,0.1-0.3,1-0.2,1.4
	c0.1,0.4,0.9,0.8,0.9,1.2c0,0.3-0.8,0.6-1,0.9c-0.2,0.2-0.6,0.5-0.9,0.7c-0.2,0.2-0.8,0.5-1,0.7c-0.2,0.2-0.3,0.8-0.5,0.9
	c-0.4,0.2-1.5-0.7-1.7-0.3c-0.3,0.4,0.5,1.3,0.9,1.5c1,0.7,3.6,0.7,4.8,0.7c0.7,0,2.1-0.2,2.7-0.5c0.4-0.2,1.2-0.9,1.2-1.4
	c0-0.4-1.2-1-1-1.4c0.1-0.3,0.8-0.3,1-0.3c0.3-0.1,0.9-0.2,1.2-0.3c0.5-0.3,1.3-1.2,1.7-1.7c0.2-0.2,0.3-0.7,0.5-0.9
	c0.3-0.3,1-0.8,1.4-0.9c0.5-0.1,1.4,0.6,1.9,0.5c1.1-0.2,3.2-1.8,3.4-2.9c0.1-0.3-0.8-0.9-0.7-1.2c0.3-0.7,2.3-0.3,3.1-0.5
	c0.5-0.2,1.9-0.3,2-0.9c0.1-0.4-0.8-1-1.2-1.2c-0.5-0.2-1.5,0-2,0c-1.3,0-3.9-0.6-5.1-0.2c-0.5,0.2-1.2,1.4-1.7,1.4
	c-0.5,0-1-1.5-1.5-1.4c-0.2,0.1,0,0.6-0.2,0.7c-0.6,0.4-2.2-0.4-2.9-0.2c-0.5,0.2-0.9,1.3-1.4,1.5c-0.3,0.1-1.1,0.1-1.4,0
	c-0.2-0.1-0.4-0.8-0.7-0.9c-0.4-0.1-1.2,0.1-1.5,0.3c-0.2,0.1-0.2,0.6-0.3,0.7C80.1,5,78.6,4.5,78.4,5z"/>
<path class="st0" d="M73.8,14c-0.4,0.1-1.3,0.7-1.4,1.2c0,0.4,0.6,0.9,0.9,1.2c0.4,0.4,1.1,1.4,1.5,1.7c0.3,0.2,1.1,0.6,1.5,0.7
	c1.1,0.2,3.3-0.6,4.4-0.5c0.7,0,2.1,1.1,2.6,0.7c0.4-0.3,0-1.6-0.3-1.9c-0.7-0.6-2.7,0-3.6-0.2c-0.8-0.1-2.6-0.3-3.2-0.9
	c-0.3-0.3-0.1-1.6-0.5-1.9C75.3,13.9,74.2,13.9,73.8,14z"/>
<path class="st0" d="M70.8,17c-0.3,0.1-0.9,0.7-0.9,1c0.1,0.3,0.9,0.5,1.2,0.5c0.3,0,0.9-0.3,1-0.5c0.1-0.2,0-0.7-0.2-0.9
	C71.8,16.9,71.1,16.8,70.8,17z"/>
<path class="st0" d="M33.4,57.5c0-0.2,0.4-0.6,0.6-0.6c0.5,0,1,0.9,1.3,1.3c0.1,0.2,0.6,0.6,0.5,0.9c-0.1,0.2-0.7,0.4-0.9,0.3
	c-0.3-0.1-0.8-0.7-1-1C33.6,58.1,33.3,57.7,33.4,57.5z"/>
<path class="st0" d="M60.4,51.8c0.2-0.1,0.7,0,0.9,0.2c0.2,0.2,0,1,0,1.3c0,0.3,0.3,1,0.3,1.3c0,0.2,0.1,0.5,0.2,0.7
	c0.1,0.1,0.3,0.4,0.4,0.5c0.2,0.3,0.9,0.7,0.8,1c0,0.1-0.4,0.2-0.5,0.2c-0.2,0-0.5,0-0.7-0.1c-0.2,0-0.5-0.1-0.6-0.3
	c-0.2-0.3,0.3-1.3,0-1.6c-0.2-0.2-0.8,0-0.9-0.2C59.8,54.2,59.8,52.3,60.4,51.8z"/>
<path class="st0" d="M68.3,59c-0.3,0-1.2,0-1.2,0.3c0,0.1,0.5,0.1,0.5,0.3c0.1,0.8-2.2,1-2.5,1.7c-0.1,0.1,0,0.5,0.1,0.6
	c0.2,0.3,1.1,0.7,1.5,0.6c0.6-0.1,1.1-2.1,1.7-2c0.1,0,0,0.3,0.1,0.3c0.3,0.3,1.2,0.2,1.5,0.4c0.4,0.2,0.9,0.9,1.2,1.3
	c0.3,0.4,0.9,1.1,1,1.5c0.1,0.5-0.7,1.6-0.3,1.9c0.2,0.1,0.6-0.5,0.9-0.4c0.3,0,0.6,0.9,0.9,0.9c0.5-0.2,0.1-1.8,0.5-2.1
	c0.2-0.1,0.7,0.3,0.9,0.2c0.3-0.4-0.5-1.3-0.9-1.6c-0.3-0.3-1.3-0.5-1.7-0.9c-0.2-0.2-0.6-0.8-0.8-1c-0.4-0.5-1-1.8-1.5-2.1
	C69.8,58.6,68.8,58.9,68.3,59z"/>
<path class="st0" d="M70.2,62.2c0,0.3-0.8,0-1,0.2c-0.3,0.2-0.8,0.7-0.9,1c-0.1,0.2-0.5,0.8-0.3,0.9c0.2,0.1,0.5-0.7,0.7-0.6
	c0.3,0.2-0.2,1-0.3,1.3c0,0.2-0.1,0.6-0.2,0.9c-0.1,0.5-0.2,1.4-0.1,1.9c0.1,0.3,0.5,1,0.9,1c0.3,0,1-0.5,1.1-0.9
	c0.2-0.7-0.5-2-0.6-2.7c0-0.3-0.1-0.9,0.1-1.1c0.1-0.2,0.8-0.3,0.9-0.5c0.1-0.1,0.3-0.4,0.3-0.6c0-0.3-0.6-0.7-0.6-1"/>
<path class="st0" d="M103.6,26.9c-0.3,0.1-0.9,0.9-0.7,1.2c0.2,0.3,0.9,0.1,1.2,0c0.3-0.1,1.2-0.2,1.2-0.5
	C105.3,27.1,104,26.8,103.6,26.9z"/>
<path class="st0" d="M101.3,5.3c-0.2,0.3-0.5,1-0.9,1.2c-0.6,0.4-2.4,0.1-2.9,0.7c-0.3,0.4,0.2,1.6-0.2,2c-0.4,0.5-1.7,0.4-2.2,0.7
	c-0.6,0.3-1.5,1.2-2,1.5c-0.5,0.3-1.8,0.2-2,0.7c-0.1,0.2,0,0.6,0.2,0.7c0.7,0.5,2.8-0.6,3.6-0.2c0.3,0.1,0.8,0.7,0.7,1
	c-0.1,0.4-1.1,0.3-1.5,0.3c-0.4,0.1-1.4-0.2-1.5,0.2c-0.2,0.7,1.7,1.5,2.4,1.7c1.4,0.5,4.6-0.6,6,0c0.5,0.2,1.2,1.2,1.5,1.7
	c0.4,0.6,0.8,2,1,2.7c0.2,0.7,0.4,2,0.5,2.7c0,0.3-0.1,1.1,0.2,1.2c0.3,0.2,1-0.8,1.4-0.7c0.4,0.1,0.8,1.1,0.6,1.5
	c-0.2,0.4-1.7,0.1-1.8,0.6c0,0.6,2.1,0.4,2.4,1c0.3,0.5,0,1.6-0.3,2.1c-0.3,0.4-1.5,0.6-1.9,1c-0.3,0.3-0.5,1.1-0.5,1.5
	c0,0.8,0.6,2.3,0.9,3.1c0.3,0.8,0.9,2.5,1.2,3.2c0.3,0.8,0.9,2.6,1.5,3.1c0.3,0.3,1.3,0.1,1.7,0.3c0.3,0.2,0.5,1.2,0.9,1.4
	c0.4,0.2,1.2-0.1,1.5-0.3c0.9-0.7,1.1-3.3,1.7-4.3c0.2-0.4,1-1.1,1.2-1.5c0.2-0.5-0.2-1.8,0.2-2.2c0.5-0.6,2.2-0.5,2.9-0.7
	c0.8-0.2,2.5-0.2,3.1-0.7c0.7-0.5,0.8-2.7,1.5-3.1c0.8-0.5,2.8,0.6,3.8,0.3c1-0.2,2.5-1.6,3.2-2.2c0.4-0.4,1.7-1.2,1.5-1.7
	c-0.1-0.4-1.3-0.4-1.7-0.5c-0.5-0.1-1.8,0.1-2-0.3c-0.2-0.3,0.1-1,0.3-1.2c0.2-0.2,0.9-0.4,1.2-0.3c0.4,0.1,1,0.8,1.4,1
	c0.3,0.2,1,0.8,1.4,0.7c0.3-0.1,0.7-0.7,0.7-1c0-0.5-0.5-1.4-0.9-1.7c-0.4-0.3-1.6-0.3-1.9-0.7c-0.2-0.3-0.1-1,0.2-1.2
	c0.3-0.2,1.1-0.1,1.4,0c0.2,0.1,0.3,0.5,0.5,0.5c0.2,0,0.3-0.7,0.5-0.9c0.3-0.2,1.2,0,1.4-0.3c0.1-0.2-0.6-0.6-0.5-0.9
	c0.1-0.3,0.9,0.1,1.2,0c0.3-0.1,0.8-0.7,1-1c0.1-0.2,0.5-0.8,0.3-1c-0.2-0.4-1.3-0.3-1.5-0.7c-0.2-0.2-0.3-0.9-0.2-1.2
	c0.1-0.3,0.4-0.7,0.7-0.9c0.2-0.1,0.7,0,0.9-0.2c0.2-0.3,0.1-1.3-0.2-1.5c-0.5-0.5-2.5,0.3-2.9-0.3c-0.2-0.4,0.4-1.4,0.7-1.7
	c0.3-0.4,1.2-0.8,1.5-1c0.2-0.2,0.9-0.4,0.9-0.7c-0.1-0.5-1.7-0.4-1.7-0.9c0-0.3,0.9-0.4,1.2-0.5c0.2-0.1,0.8-0.1,1-0.2
	c0.6-0.1,1.8-0.4,2.4-0.7c0.6-0.3,2.4-0.9,2.2-1.5c-0.3-1-3.2-0.5-4.3-0.3c-0.6,0.1-1.7,0.5-2.2,0.7c-0.8,0.3-2.5,2.2-3.1,1.5
	c-0.5-0.6,2-2.1,1.5-2.7c-0.6-0.7-2.7,1.8-3.4,1.2c-0.3-0.2,0.4-1.3,0.2-1.5c-1-1-5.4,1.9-5.6,0.5c-0.2-0.8,2.4-0.8,3.2-1
	c1-0.2,3.1-0.5,4.1-0.7c0.3-0.1,1.3,0,1.4-0.3c0-0.7-2-0.9-2.7-1c-1.5-0.2-5.6,2.3-6,0.9c-0.2-0.8,3.4-0.5,3.2-1.4
	c-0.4-1.8-5.5-0.5-7.2,0.2c-0.6,0.3-1.4,1.7-2,1.9c-0.8,0.2-2.3-1.5-2.9-1c-0.3,0.2,0.1,1,0,1.4c-0.1,0.4-0.1,1.5-0.5,1.5
	c-0.4,0.1-0.7-1-1-1.2c-0.2-0.1-0.8,0-1,0c-0.3,0-1.1-0.2-1.4,0c-0.3,0.3,0.3,1.4,0,1.7c-0.3,0.3-1.2,0.3-1.5,0
	c-0.3-0.2,0.1-1.1-0.2-1.4c-0.3-0.3-1.3-0.5-1.5-0.2c-0.1,0.2,0.5,0.7,0.3,0.9c-0.5,0.5-2-1.1-2.7-1c-0.3,0-0.9,0.6-1.2,0.7
	c-0.2,0.1-0.8-0.1-1,0C102.1,4.4,101.5,5,101.3,5.3z"/>
<path class="st0" d="M69.6,106.7l-0.9,0.4c0,0-0.1,0.9,0.1,1.1c0.4,0.3,1.5,0.1,2,0.3c0.2,0.1,0.5,0.6,0.8,0.7
	c0.2,0,0.8-0.2,0.9-0.4c0.1-0.2-0.5-0.7-0.3-0.9c0.1-0.2,0.7-0.2,0.9-0.1c0.3,0.2,0.8,0.9,0.9,1.2c0.1,0.2,0.4,0.8,0.4,0.8l0.2-2.2
	c0,0-0.9-0.7-1.2-0.8c-0.3-0.1-0.8-0.4-1.1-0.3c-0.3,0.1-0.5,0.7-0.8,0.8C71,107.2,69.6,106.7,69.6,106.7z"/>
<path class="st0" d="M68.5,105.1l-2.1-0.1c0,0-0.1,0.6-0.1,0.8c0.1,0.2,0.3,0.6,0.5,0.8c0.4,0.3,1.9,0.5,1.9,0.5l0.9-0.4
	c0,0,0-0.7-0.1-0.9C69.3,105.5,68.5,105.1,68.5,105.1z"/>
<path class="st0" d="M68.8,101c0,0-1.2-0.3-1.5-0.1c-0.2,0.2-0.1,0.9-0.3,1c-0.3,0.2-1,0-1.3,0.1c-0.3,0.1-1,0.5-1,0.5
	s0.4,0.3,0.5,0.5c0.2,0.3,0.3,1,0.5,1.3c0.1,0.2,0.7,0.8,0.7,0.8l2.1,0.1c0,0,0.1-2.3,0.3-3c0.1-0.2,0.4-0.6,0.3-0.8
	C69.1,101.3,68.8,101,68.8,101z"/>
<path class="st0" d="M64.7,102.5c0,0,0.1-1-0.1-1.3c-0.2-0.2-0.8-0.1-1.1-0.1c-0.2,0-0.7,0.3-0.7,0.3L64.7,102.5z"/>
<path class="st0" d="M63.8,99.7c0,0,0,0.7-0.2,0.9c-0.1,0.1-0.6-0.1-0.7,0c-0.2,0.2-0.2,0.9-0.2,0.9s0.5-0.3,0.7-0.3
	c0.3-0.1,0.9-0.1,1.1,0.1c0.2,0.2,0.1,1.3,0.1,1.3s0.7-0.5,1-0.5c0.3-0.1,1,0.1,1.3-0.1c0.2-0.2,0.1-0.9,0.3-1
	c0.3-0.2,1.5,0.1,1.5,0.1s0.7-0.5,0.6-0.8c-0.1-0.3-0.8-0.2-1-0.3c-0.2-0.1-0.4-0.5-0.6-0.6c-0.4-0.2-1.2-0.1-1.6,0
	c-0.2,0.1-0.4,0.5-0.6,0.5c-0.2,0-0.5-0.6-0.5-0.6s-0.5,0.4-0.7,0.4C64.3,99.7,63.8,99.7,63.8,99.7"/>
<path class="st0" d="M60.4,100.6c0,0,0.2-1,0.4-1.2c0.2-0.2,0.7-0.1,0.9-0.3c0.2-0.2,0-1,0.2-1.2c0.3-0.3,1.5-0.7,1.5-0.7
	s-0.1,1-0.1,1.3c0,0.2-0.1,0.8,0,0.9c0.1,0.1,0.5,0.1,0.5,0.1s0,0.7-0.2,0.9c-0.1,0.1-0.6-0.1-0.7,0c-0.2,0.2-0.2,0.9-0.2,0.9
	s-1.1,0.1-1.4-0.1C61.1,101.3,60.4,100.6,60.4,100.6z"/>
<path class="st0" d="M63.4,97.3c0,0,0.4-0.1,0.5-0.2c0.3-0.1,1.2-0.7,1.2-0.7s-0.2,1-0.2,1.3c0,0.4,0.2,1.4,0.2,1.4
	s-0.5,0.4-0.7,0.4c-0.1,0.1-0.6,0.1-0.6,0.1s-0.5,0-0.5-0.1c-0.1-0.2,0-0.7,0-0.9C63.3,98.3,63.4,97.3,63.4,97.3z"/>
<path class="st0" d="M56.1,87.6c0,0-1.1,0.2-1.4,0c-0.3-0.2,0-1.1-0.3-1.4c-0.1-0.2-0.7-0.2-0.9-0.4c-0.2-0.3-0.1-1.1-0.3-1.5
	c-0.1-0.2-0.4-0.6-0.6-0.8c-0.2-0.2-0.7-0.9-1-0.8c-0.3,0.1-0.1,1.2-0.3,1.4c-0.2,0.2-0.8,0.2-1,0c-0.3-0.3-0.2-1.3-0.5-1.6
	c-0.1-0.1-0.5-0.1-0.6-0.2c-0.2-0.2,0.1-0.8-0.1-0.9c-0.1-0.1-0.6,0-0.8-0.2c-0.2-0.2-0.1-0.9-0.3-1c-0.2-0.1-0.5,0.4-0.7,0.5
	c-0.2,0.1-0.7-0.1-0.9,0.1c-0.1,0.1,0,0.5-0.2,0.6c-0.3,0.2-1.1-0.1-1.5,0c-0.3,0.1-0.8,0.4-1.1,0.4c-0.4,0-1.2-0.2-1.5-0.3
	c-0.3-0.2-0.7-0.8-1-1c-0.2-0.1-0.7-0.2-0.9-0.3c-0.1-0.1-0.1-0.5-0.3-0.6c-0.4-0.3-2.1-0.1-2.1-0.1s-0.1,1.9,0.2,2.5
	c0.1,0.3,0.7,0.8,0.9,1.1c0.2,0.3,0.8,1,0.9,1.4c0,0.2-0.1,0.7-0.3,0.9c-0.1,0.1-0.5,0.2-0.5,0.3c0,0.5,1.2,1,1.6,1.3
	c0.3,0.2,0.9,0.5,1.1,0.9c0.2,0.4,0,1.3,0.2,1.6c0.3,0.6,1.2,1.8,1.9,2.1c0.2,0.1,0.7,0.2,0.8,0c0.2-0.3-0.4-1.2-0.5-1.5
	c-0.2-0.4-0.7-1.3-0.9-1.7c-0.2-0.4-0.4-1.3-0.7-1.7c-0.2-0.4-0.9-1.1-1.2-1.5c-0.2-0.3-0.6-1-0.8-1.4c-0.2-0.3-0.5-0.9-0.6-1.2
	c-0.1-0.4-0.4-1.4,0-1.6c0.2-0.1,0.5,0.3,0.7,0.4c0.2,0.2,0.6,0.7,0.8,0.9c0.2,0.2,0.7,0.4,0.8,0.6c0.2,0.4,0,1.5,0.2,1.9
	c0.1,0.2,0.6,0.6,0.8,0.8c0.2,0.3,0.5,1,0.8,1.3c0.1,0.1,0.5,0.2,0.6,0.3c0.1,0.2-0.2,0.8-0.1,1c0.1,0.2,0.8,0.1,0.9,0.3
	c0.2,0.2-0.1,0.9,0.1,1.2c0.2,0.3,1,0.3,1.2,0.6c0.1,0.2-0.1,0.7,0,0.9c0.1,0.1,0.6-0.1,0.8,0.1c0.2,0.2,0,1,0.1,1.3
	c0.1,0.3,0.4,0.8,0.4,1.1c0,0.3-0.4,0.8-0.3,1c0.1,0.3,0.7,0.4,0.9,0.6c1.3,0.9,3.9,2.8,5.4,3.5c0.6,0.3,2,0.9,2.7,0.9
	c0.3,0,0.7-0.6,0.9-0.6c0.2,0,0.6,0.3,0.8,0.3c0.3,0.1,0.9,0.2,1.1,0.4c0.2,0.2,0.7,1,0.7,1s0.2-1,0.4-1.2c0.2-0.2,0.7-0.1,0.9-0.3
	c0.2-0.2,0-1,0.2-1.2c0.3-0.3,1.5-0.7,1.5-0.7s0.4-0.1,0.5-0.2c0.3-0.1,1.2-0.7,1.2-0.7s0.6-0.6,0.7-0.9c0.1-0.3-0.2-1-0.1-1.3
	c0.1-0.1,0.4-0.1,0.4-0.3c0.1-0.2-0.1-0.9-0.3-1c-0.4-0.3-1.6-0.3-2.1-0.2c-0.3,0.1-0.7,0.5-0.9,0.8c-0.4,0.4-0.6,1.7-1,2.1
	c-0.3,0.3-1.1,0.4-1.5,0.4c-0.5,0.1-1.6,0.2-2.1,0.1c-0.5-0.1-1.4-0.7-1.6-1.1c-0.4-0.6-0.4-2.1-0.5-2.8c-0.1-0.5-0.5-1.5-0.5-2
	c0-0.4,0.3-1.1,0.4-1.5C56,88.5,56.1,87.6,56.1,87.6z"/>
<path class="st0" d="M80.2,94.4c-0.2,0.1-0.5,0.6-0.4,0.9c0,0.2,0.5,0.3,0.4,0.5c0,0.2-0.4,0.3-0.6,0.4c-0.4,0.1-1.3-0.3-1.6,0
	c-0.1,0.2,0.1,0.6,0.3,0.8c0.2,0.2,0.8,0.1,1.1,0.1c0.3,0,1.1,0.1,1.1,0.1s0.3-0.6,0.3-0.8c0.1-0.4,0-1.1,0-1.5c0-0.1,0-0.5,0-0.5
	S80.4,94.3,80.2,94.4z"/>
<path class="st0" d="M74.8,96.1c0.2-0.1,0.6,0,0.9,0c0.3,0.1,0.9,0.2,0.9,0.4c0.1,0.2-0.2,0.6-0.3,0.7c-0.2,0.2-0.9,0.2-1.2,0.1
	c-0.2-0.1-0.7-0.3-0.8-0.5C74.2,96.6,74.6,96.2,74.8,96.1z"/>
<path class="st0" d="M80.6,97c0,0,0.3-0.6,0.3-0.8c0.1-0.4,0-1.1,0-1.5c0-0.1,0-0.5,0-0.5s0.7,0.1,0.9,0.2c0.1,0.1,0.2,0.3,0.3,0.4
	c0.1,0.1,0.3,0.1,0.4,0.2c0.1,0,0.3-0.1,0.4,0c0.1,0.1,0.1,0.5,0.2,0.6c0.1,0.1,0.4,0.2,0.5,0.3c0.2,0.1,0.6,0.3,0.7,0.5
	c0,0.1-0.1,0.4-0.3,0.4c-0.2,0.1-0.7,0-0.9,0c-0.4,0-1.1-0.1-1.4,0C81.5,96.9,80.6,97,80.6,97z"/>
<path class="st0" d="M85.7,96.3c-0.2,0.1-0.6,0.2-0.6,0.4c0,0.1,0.3,0.2,0.4,0.3c0.1,0.1,0.4,0.3,0.6,0.3c0.2,0,0.5-0.2,0.6-0.3
	c0.1-0.2,0.1-0.6,0-0.7C86.4,96,85.9,96.2,85.7,96.3z"/>
<path class="st0" d="M68.4,92.3c-0.2-0.3,0.7-0.7,0.9-0.9c0.2-0.1,0.6-0.4,0.9-0.4c0.3-0.1,1,0.1,1.4,0.2c0.5,0.1,1.5,0.3,2,0.4
	c0.5,0.2,1.3,0.7,1.7,0.9c0.7,0.4,2.2,0.8,2.8,1.4c0.1,0.1,0.5,0.5,0.4,0.7c-0.1,0.4-1,0.7-1.4,0.8c-0.5,0.1-1.7,0.2-2-0.2
	c-0.2-0.2,0.3-0.8,0.2-1.1c-0.1-0.2-0.5-0.5-0.7-0.7c-0.3-0.3-1.1-0.8-1.5-1c-0.1-0.1-0.4-0.2-0.6-0.3c-0.7-0.2-2.2-0.3-2.9-0.2
	C69.3,92,68.5,92.6,68.4,92.3z"/>
</svg>
