<?xml version="1.0" encoding="utf-8"?>
<!-- Generator: Adobe Illustrator 22.0.1, SVG Export Plug-In . SVG Version: 6.00 Build 0)  -->
<svg version="1.1" id="Layer_1" xmlns="http://www.w3.org/2000/svg" xmlns:xlink="http://www.w3.org/1999/xlink" x="0px" y="0px"
	 viewBox="0 0 42.7 37.3" style="enable-background:new 0 0 42.7 37.3;" xml:space="preserve">
<style type="text/css">
	.st0{fill:#00758F;}
</style>
<path class="st0" d="M25.5,24.9l2.4,2.4c0.4,0,0.8-0.4,0.8-0.8v-3.1c0-0.4-0.4-0.8-0.8-0.8H14.8c-0.4,0-0.8,0.4-0.8,0.8v3.1
	c0,0.4,0.4,0.8,0.8,0.8H24v-1.8c0-0.4,0.2-0.7,0.5-0.8c0.1,0,0.2-0.1,0.3-0.1C25.1,24.7,25.3,24.8,25.5,24.9 M37.3,13.3h-32V20h32
	V13.3z M36,18.7H6.7v-4H36V18.7z M42,0H0.7C0.3,0,0,0.3,0,0.7V32h24v-1.3H1.3v-22h40v22H31.2l1,1c0.1,0.1,0.2,0.2,0.2,0.4h10.3V0.7
	C42.7,0.3,42.4,0,42,0 M9,1.3c0.6,0,1,0.4,1,1c0,0.6-0.4,1-1,1c-0.6,0-1-0.4-1-1C8,1.8,8.4,1.3,9,1.3 M5.7,1.3c0.6,0,1,0.4,1,1
	c0,0.6-0.4,1-1,1c-0.6,0-1-0.4-1-1C4.7,1.8,5.1,1.3,5.7,1.3 M2.3,1.3c0.6,0,1,0.4,1,1c0,0.6-0.4,1-1,1c-0.6,0-1-0.4-1-1
	C1.3,1.8,1.8,1.3,2.3,1.3 M28.7,7.3H1.3V4.7h27.3V7.3z M41.3,7.3H30V4.7h11.3V7.3z M29.9,30.3L25,25.4c-0.1-0.1-0.2-0.1-0.2,0
	c-0.1,0-0.1,0.1-0.1,0.2v6.9V35c0,0.2,0.2,0.3,0.4,0.1l1.9-1.9l1.6,4c0,0.1,0.2,0.2,0.3,0.1l0.8-0.3l0.8-0.3c0.1,0,0.2-0.2,0.1-0.3
	l-1.6-4h2.7c0.2,0,0.3-0.2,0.1-0.4L29.9,30.3z"/>
</svg>
