<?xml version="1.0" encoding="utf-8"?>
<!-- Generator: Adobe Illustrator 22.0.1, SVG Export Plug-In . SVG Version: 6.00 Build 0)  -->
<svg version="1.1" id="Layer_1" xmlns="http://www.w3.org/2000/svg" xmlns:xlink="http://www.w3.org/1999/xlink" x="0px" y="0px"
	 viewBox="0 0 182 102.8" style="enable-background:new 0 0 182 102.8;" xml:space="preserve">
<style type="text/css">
	.st0{opacity:0.2;fill:#FFFFFF;}
	.st1{fill:#FFFFFF;}
	.st2{fill:none;stroke:#FFFFFF;stroke-miterlimit:10;}
</style>
<g>
	<path class="st0" d="M148.9,37.3c-1,0-1.9,0.1-2.9,0.1c-4.1-13.2-16.5-22.8-31-22.8c-3.7,0-7.3,0.6-10.7,1.8
		C97.7,6.8,86.6,0.5,74,0.5c-17.4,0-31.9,12.1-35.8,28.3c-0.3,0-0.7,0-1,0C17,28.8,0.5,45.2,0.5,65.5c0,20.3,16.5,36.8,36.8,36.8
		h111.7c18,0,32.5-14.6,32.5-32.5S166.9,37.3,148.9,37.3"/>
	<path class="st1" d="M148.9,37.3c-1,0-1.9,0.1-2.9,0.1c-0.8-2.4-1.8-4.7-3.1-6.9H26c-14.8,4.7-25.5,18.6-25.5,35
		c0,20.3,16.5,36.8,36.8,36.8h111.7c18,0,32.5-14.6,32.5-32.5S166.9,37.3,148.9,37.3z"/>
</g>
<path class="st2" d="M148.9,37.3c-1,0-1.9,0.1-2.9,0.1c-4.1-13.2-16.5-22.8-31-22.8c-3.7,0-7.3,0.6-10.7,1.8
	C97.7,6.8,86.6,0.5,74,0.5c-17.4,0-31.9,12.1-35.8,28.3c-0.3,0-0.7,0-1,0C17,28.8,0.5,45.2,0.5,65.5c0,20.3,16.5,36.8,36.8,36.8
	h111.7c18,0,32.5-14.6,32.5-32.5S166.9,37.3,148.9,37.3"/>
</svg>
