<?xml version="1.0" encoding="utf-8"?>
<!-- Generator: Adobe Illustrator 22.0.1, SVG Export Plug-In . SVG Version: 6.00 Build 0)  -->
<svg version="1.1" id="Layer_1" xmlns="http://www.w3.org/2000/svg" xmlns:xlink="http://www.w3.org/1999/xlink" x="0px" y="0px"
	 viewBox="0 0 48 48" style="enable-background:new 0 0 48 48;" xml:space="preserve">
<style type="text/css">
	.st0{fill:#FFFFFF;}
</style>
<path class="st0" d="M46.2,19.6l-8.9-8.9l-8.9-8.9C27.2,0.6,25.6,0,24,0c-1.6,0-3.2,0.6-4.4,1.8l-8.9,8.9L6,15.4l-4.2,4.2
	c-2.4,2.4-2.4,6.3,0,8.8L6,32.6l4.7,4.7l8.9,8.9c1.2,1.2,2.8,1.8,4.4,1.8c1.6,0,3.2-0.6,4.4-1.8l8.9-8.9l8.9-8.9
	C48.6,26,48.6,22,46.2,19.6 M27.3,45.1c-0.9,0.9-2.1,1.4-3.3,1.4c-1.3,0-2.4-0.5-3.3-1.4l-8.9-8.9l2.9-2.9c0.7-0.7,1.8-0.5,2.2,0.4
	c0.3,0.8,0.8,1.6,1.3,2.1c1.2,1.2,3.2,1.2,4.4,0c1.2-1.2,1.2-3.2,0-4.4c-0.5-0.5-1.2-1-2.1-1.3c-0.9-0.4-1.1-1.5-0.4-2.2l4-4l-4-4
	c-0.7-0.7-1.8-0.5-2.2,0.4c-0.3,0.8-0.8,1.6-1.3,2.1c-1.2,1.2-3.2,1.2-4.4,0c-1.2-1.2-1.2-3.2,0-4.4c0.5-0.5,1.2-1,2.1-1.3
	c0.9-0.4,1.1-1.5,0.4-2.2l-2.9-2.9l8.9-8.9C21.6,2,22.7,1.5,24,1.5c1.3,0,2.4,0.5,3.3,1.4l8.9,8.9l-2.9,2.9
	c-0.7,0.7-1.8,0.5-2.2-0.4c-0.3-0.8-0.8-1.6-1.3-2.1c-1.2-1.2-3.2-1.2-4.4,0c-1.2,1.2-1.2,3.2,0,4.4c0.5,0.5,1.2,1,2.1,1.3
	c0.9,0.4,1.1,1.5,0.4,2.2l-4,4l4,4c0.7,0.7,1.8,0.5,2.2-0.4c0.3-0.8,0.8-1.6,1.3-2.1c1.2-1.2,3.2-1.2,4.4,0c1.2,1.2,1.2,3.2,0,4.4
	c-0.5,0.5-1.2,1-2.1,1.3c-0.9,0.4-1.1,1.5-0.4,2.2l2.9,2.9L27.3,45.1z"/>
</svg>
