<?xml version="1.0" encoding="utf-8"?>
<!-- Generator: Adobe Illustrator 22.0.1, SVG Export Plug-In . SVG Version: 6.00 Build 0)  -->
<svg version="1.1" id="Layer_1" xmlns="http://www.w3.org/2000/svg" xmlns:xlink="http://www.w3.org/1999/xlink" x="0px" y="0px"
	 viewBox="0 0 185 60.6" style="enable-background:new 0 0 185 60.6;" xml:space="preserve">
<style type="text/css">
	.st0{fill:#F80000;}
	.st1{fill:#FFFFFF;}
</style>
<g>
	<g>
		<path class="st0" d="M77,15.1h11.8L82.6,5L71.1,23.2h-5.2L79.8,1.4C80.4,0.5,81.5,0,82.6,0c1.1,0,2.1,0.5,2.7,1.4l14,21.8H94
			l-2.5-4.1H79.6L77,15.1 M131.1,19.1V0.2h-4.4V21c0,0.6,0.2,1.1,0.7,1.5c0.4,0.4,1,0.7,1.6,0.7h20.1l2.6-4.1H131.1 M58,15.8
			c4.3,0,7.8-3.5,7.8-7.8S62.3,0.2,58,0.2H38.7v23h4.4V4.3h14.6c2.1,0,3.7,1.7,3.7,3.7c0,2-1.7,3.7-3.7,3.7l-12.5,0l13.2,11.5h6.4
			L56,15.8H58 M11.5,23.2h13.4c6.4,0,11.5-5.1,11.5-11.5c0-6.4-5.1-11.5-11.5-11.5H11.5C5.1,0.2,0,5.4,0,11.7
			C0,18.1,5.1,23.2,11.5,23.2 M24.5,19.2H11.8c-4.1,0-7.4-3.3-7.4-7.4c0-4.1,3.3-7.4,7.4-7.4h12.8c4.1,0,7.4,3.3,7.4,7.4
			C32,15.8,28.7,19.2,24.5,19.2 M108.4,23.2h13.6l2.6-4h-15.9c-4.1,0-7.4-3.3-7.4-7.4c0-4.1,3.3-7.4,7.4-7.4h13l2.6-4.1h-15.9
			c-6.3,0-11.5,5.1-11.5,11.5C96.9,18.1,102.1,23.2,108.4,23.2 M162.5,19.2c-3.4,0-6.3-2.3-7.2-5.4h18.9l2.6-4.1h-21.5
			c0.9-3.1,3.8-5.4,7.2-5.4h13l2.6-4.1h-15.8c-6.3,0-11.5,5.1-11.5,11.5c0,6.3,5.1,11.5,11.5,11.5h13.6l2.6-4H162.5 M180.4,2.7
			c0-1.1,0.9-2,2-2c1.1,0,2,0.9,2,2c0,1.1-0.9,2-2,2C181.3,4.7,180.4,3.8,180.4,2.7 M182.4,5.3c1.4,0,2.6-1.1,2.6-2.6
			s-1.1-2.6-2.6-2.6c-1.4,0-2.6,1.2-2.6,2.6S181,5.3,182.4,5.3 M182.2,1.1c0.4,0,0.6,0,0.8,0.1c0.5,0.2,0.5,0.6,0.5,0.8
			c0,0,0,0.1,0,0.2c0,0.1-0.1,0.3-0.4,0.5c0,0-0.1,0-0.1,0.1l0.7,1.2H183l-0.6-1.1H182V4h-0.6V1.1H182.2 M182.4,2.5
			c0.2,0,0.4,0,0.5-0.2c0.1-0.1,0.1-0.1,0.1-0.2c0-0.2-0.1-0.3-0.2-0.4c-0.2-0.1-0.3-0.1-0.5-0.1H182v0.8H182.4"/>
		<path class="st1" d="M15,43.3c-0.1-0.8-0.5-4-5-4c-5.5,0-6.5,5.7-6.5,9.5c0,4.3,1.2,9,6.5,9c1.4,0,2.7-0.3,3.7-1.4
			c0.8-0.9,1-1.9,1.1-2.4h3.5c-0.5,4.5-4.7,6.4-8.6,6.4C1.6,60.4,0,53.3,0,48.8C0,44,1.9,36.7,10.1,36.7c3.3,0,7.8,1.3,8.3,6.5H15z
			 M22.9,37.1h3v23h-3V37.1z M38.6,43.7c6.4,0,7.8,5,7.8,8.4c0,4.7-2.6,8.6-8.1,8.6c-5.3,0-7.9-3.7-7.9-8.3
			C30.5,48.3,32.3,43.7,38.6,43.7z M38.4,58.4c2.3,0,4.8-1.6,4.8-6.4c0-4-1.8-6.1-4.7-6.1c-1.9,0-5,1.2-5,6.2
			C33.6,55.3,35,58.4,38.4,58.4z M53.7,44.1v10.3c0,1.6,0.3,3.5,3.4,3.5c1.5,0,2.9-0.5,3.8-1.8c0.7-1,0.7-2.2,0.7-3v-9h3.1v13
			c0,0.3,0.1,2.1,0.1,3h-3.1l-0.1-2.7c-0.6,1.1-1.7,2.9-5.1,2.9c-4,0-5.8-2.3-5.8-5.4V44.1H53.7z M81.4,37.1h3v20.4
			c0,0.4,0.1,1.7,0.1,2.5h-3l-0.1-2.5c-0.3,0.4-0.6,1.1-1.4,1.7c-1.3,0.9-2.9,1.2-4,1.2c-2.1,0-6.9-1.1-6.9-8.1
			c0-6.1,3.5-8.7,7.2-8.7c3.4,0,4.6,2,5,2.7V37.1z M80.3,47.4c-0.6-0.8-1.8-1.6-3.5-1.6c-4.4,0-4.4,5.3-4.4,6.4
			c0,2.8,0.7,6.1,4.4,6.1c4.7,0,4.7-5.2,4.7-6.4C81.5,49.5,80.9,48.2,80.3,47.4z"/>
	</g>
</g>
</svg>
