<?xml version="1.0" encoding="utf-8"?>
<!-- Generator: Adobe Illustrator 22.0.1, SVG Export Plug-In . SVG Version: 6.00 Build 0)  -->
<svg version="1.1" id="Layer_1" xmlns="http://www.w3.org/2000/svg" xmlns:xlink="http://www.w3.org/1999/xlink" x="0px" y="0px"
	 viewBox="0 0 66.8 48" style="enable-background:new 0 0 66.8 48;" xml:space="preserve">
<style type="text/css">
	.st0{fill:#FFFFFF;}
</style>
<path class="st0" d="M23,0H5.2v2.1H23V0z M19.8,4.2H5.2v2.1h14.6V4.2z M50.1,14.6l-9.4-5.2l-9.4,8.3l-9.4-5.2L5.2,24v9.3L22,27l9,5
	l9.6-14.9l9.7,10.8l16.5-11.4V3.1L50.1,14.6z M40.8,20.5l-9.2,14.3l-9.8-5.5L5.2,35.5v7.2h61.6V19L49.9,30.6L40.8,20.5z M2.1,0H0v48
	h66.8v-2.1H2.1V0z"/>
</svg>
