<?xml version="1.0" encoding="utf-8"?>
<!-- Generator: Adobe Illustrator 22.1.0, SVG Export Plug-In . SVG Version: 6.00 Build 0)  -->
<svg version="1.1" id="Layer_1" xmlns="http://www.w3.org/2000/svg" xmlns:xlink="http://www.w3.org/1999/xlink" x="0px" y="0px"
	 viewBox="0 0 74 50" style="enable-background:new 0 0 74 50;" xml:space="preserve">
<style type="text/css">
	.st0{fill-rule:evenodd;clip-rule:evenodd;fill:#FFFFFF;}
</style>
<g>
	<path class="st0" d="M1103.6,52.2v1.9c0,3.4,1.4,6.5,2.7,8.5c1.6,2.3,3.7,3.7,6,5.2c1.9,1.2,5.7,2.5,8.3,3
		c3.2,0.6,6.4,1.1,10.2,1.1h1.9c11.7,0,23.6-3.4,31.3-7.5V59c-2.1,1.1-4.6,2.5-7,3.3c-0.5,0.2-1.3,0.5-1.8,0.7
		c-0.7,0.2-1.3,0.4-2,0.7c-1,0.4-2.9,0.9-4,1.1c-1.4,0.3-2.7,0.7-4.2,1c-1.5,0.3-2.9,0.5-4.4,0.7c-1.4,0.3-3.2,0.3-4.7,0.4
		c-1.6,0.1-3.3,0.2-5,0.2h-0.4c-6.2,0-12.2-1-16.3-3.1c-4-2-7.7-5.7-7.7-11.6v-0.5c0-2.8,0.9-4.9,1.7-7c0.4-0.9,1-2,1.5-2.8
		c0.3-0.5,0.6-0.8,0.9-1.3c0.3-0.4,0.8-0.8,1-1.2v-1.9c-1,0.6-2,1.9-2.8,2.8c-0.9,1-1.6,2.1-2.4,3.2
		C1105.2,45.4,1103.6,49.4,1103.6,52.2L1103.6,52.2z"/>
	<path class="st0" d="M1176.4,41.7v-1.8c0,0-0.3-2-0.3-2.2c-0.1-0.6-0.3-1.4-0.6-2c-0.5-1.3-1-2.3-1.8-3.3c-1.5-2-3.3-3.4-5.6-4.7
		c-4.1-2.3-10.5-3.7-16.9-3.7h-0.5c-6.6,0-12.1,1.1-17.3,2.6c-1.4,0.4-2.5,0.8-3.8,1.2c-1.1,0.4-2.6,0.9-3.6,1.4
		c-1.1,0.6-2.3,1-3.4,1.6c-0.6,0.3-2.8,1.7-3.2,1.8V34c0.5-0.1,2.3-1.1,3.1-1.4c1-0.4,2.2-1,3.2-1.3c0.4-0.1,1.2-0.4,1.6-0.6
		c0.5-0.2,1.1-0.4,1.7-0.6c1.1-0.4,2.3-0.8,3.5-1.1c2.5-0.6,4.7-1.1,7.4-1.6c2.3-0.4,5.6-0.8,8.2-0.8h2.7c5.3,0,11.1,1.2,14.5,3.1
		c2.1,1.1,3.5,2.1,4.9,3.9c1.1,1.4,2.4,4.1,2.4,6.4v1c0,2.5-1.3,5.2-2.4,6.7c-0.7,0.9-1.3,1.7-2.1,2.4c-0.4,0.4-2.2,1.8-2.7,1.9v4
		c0.9-0.1,3.4-1.7,4.1-2.2c1.2-0.9,2.3-1.9,3.2-3.1c1.1-1.3,1.6-2.3,2.4-4c0.3-0.7,0.5-1.5,0.8-2.4
		C1176.1,44.1,1176.4,41.7,1176.4,41.7L1176.4,41.7z"/>
	<path class="st0" d="M1143.7,48.4v0.7c0,4.2,2.6,7.2,6.7,7.2h0.8c1.3,0,2.2-0.3,3.1-0.7c1-0.4,1.5-1.1,2.2-1.6l-2.4-2.2
		c-0.5,0.7-1.8,1.4-3,1.4h-0.7c-1.6,0-3-1.3-3-2.9v-0.4h9.5v-1.6c0-1.9-0.7-3.8-1.5-4.9c-0.8-1.1-2.4-2.3-4.2-2.3h-1.2
		c-1.9,0-3.6,1.2-4.6,2.2C1144.5,44.4,1143.7,46.4,1143.7,48.4L1143.7,48.4z M1147.5,46.9v0.4h5.7v-0.3c0-1.5-1.1-2.9-2.7-2.9h-0.3
		C1148.8,44.2,1147.5,45.6,1147.5,46.9L1147.5,46.9z"/>
	<path class="st0" d="M1121.3,56.1h3.7V44.4h3.3c0.7,0,1.3,0.6,1.3,1.3v10.4h3.8V45.7c0-2.5-1.7-4.4-4.1-4.4h-8V56.1L1121.3,56.1z"
		/>
	<path class="st0" d="M1136.2,51.7c0,2.5,1.6,4.4,4.1,4.4h2.5v-3.2h-1.9c-0.6,0-1-0.6-1-1.2v-7.3h2.9v-3h-2.9v-4.1h-3.8V51.7
		L1136.2,51.7z"/>
	<path class="st0" d="M1159.1,52.5c0,1,0.6,1.9,1.1,2.4c0.3,0.3,0.7,0.5,1.1,0.7c0.6,0.2,0.9,0.2,1.5,0.3V35.2h-3.8V52.5
		L1159.1,52.5z"/>
	<path class="st0" d="M1114.2,44.8l0,7.3c0,2.5,1.5,4.1,3.8,4.1V41.4l-3.7,0L1114.2,44.8L1114.2,44.8z"/>
	<polygon class="st0" points="1114.2,39.3 1118,39.3 1118,35.7 1114.2,35.7 1114.2,39.3 	"/>
	<path class="st0" d="M1167,35.2c0.3,0,0.5,0.1,0.7,0.2c0.2,0.1,0.4,0.3,0.6,0.6c0.1,0.2,0.2,0.5,0.2,0.8c0,0.3-0.1,0.5-0.2,0.7
		c-0.1,0.2-0.3,0.4-0.6,0.6c-0.2,0.1-0.5,0.2-0.8,0.2c-0.3,0-0.5-0.1-0.7-0.2c-0.2-0.1-0.4-0.3-0.6-0.6c-0.1-0.2-0.2-0.5-0.2-0.7
		c0-0.3,0.1-0.5,0.2-0.8c0.1-0.2,0.3-0.4,0.6-0.6C1166.5,35.3,1166.7,35.2,1167,35.2L1167,35.2z M1167,35.5c-0.2,0-0.4,0.1-0.6,0.2
		c-0.2,0.1-0.4,0.3-0.5,0.5c-0.1,0.2-0.2,0.4-0.2,0.6c0,0.2,0.1,0.4,0.2,0.6c0.1,0.2,0.3,0.4,0.5,0.5c0.2,0.1,0.4,0.2,0.6,0.2
		s0.4-0.1,0.6-0.2c0.2-0.1,0.4-0.3,0.5-0.5c0.1-0.2,0.2-0.4,0.2-0.6c0-0.2-0.1-0.4-0.2-0.6c-0.1-0.2-0.3-0.4-0.5-0.5
		C1167.4,35.5,1167.2,35.5,1167,35.5L1167,35.5z M1166.3,37.5v-1.6h0.6c0.2,0,0.3,0,0.4,0s0.2,0.1,0.2,0.2c0.1,0.1,0.1,0.2,0.1,0.2
		c0,0.1,0,0.2-0.1,0.3c-0.1,0.1-0.2,0.1-0.3,0.1c0.1,0,0.1,0.1,0.1,0.1c0.1,0.1,0.1,0.2,0.2,0.3l0.2,0.3h-0.3l-0.1-0.3
		c-0.1-0.2-0.2-0.3-0.3-0.4c0,0-0.1-0.1-0.2-0.1h-0.2v0.7H1166.3L1166.3,37.5z M1166.6,36.6h0.3c0.2,0,0.3,0,0.3-0.1
		c0.1,0,0.1-0.1,0.1-0.2c0,0,0-0.1,0-0.1c0,0-0.1-0.1-0.1-0.1c0,0-0.1,0-0.3,0h-0.3V36.6L1166.6,36.6z"/>
</g>
<g>
	<path class="st0" d="M0.6,29.2v1.9c0,3.4,1.4,6.5,2.7,8.5c1.6,2.3,3.7,3.7,6,5.2c1.9,1.2,5.7,2.5,8.3,3C20.8,48.5,24,49,27.9,49
		h1.9c11.7,0,23.6-3.4,31.3-7.5V36c-2.1,1.1-4.6,2.5-7,3.3c-0.5,0.2-1.3,0.5-1.8,0.7c-0.7,0.2-1.3,0.4-2,0.7c-1,0.4-2.9,0.9-4,1.1
		c-1.4,0.3-2.7,0.7-4.2,1c-1.5,0.3-2.9,0.5-4.4,0.7c-1.4,0.3-3.2,0.3-4.7,0.4c-1.6,0.1-3.3,0.2-5,0.2h-0.4c-6.2,0-12.2-1-16.3-3.1
		c-4-2-7.7-5.7-7.7-11.6v-0.5c0-2.8,0.9-4.9,1.7-7c0.4-0.9,1-2,1.5-2.8c0.3-0.5,0.6-0.8,0.9-1.3c0.3-0.4,0.8-0.8,1-1.2v-1.9
		c-1,0.6-2,1.9-2.8,2.8c-0.9,1-1.6,2.1-2.4,3.2C2.2,22.4,0.6,26.4,0.6,29.2L0.6,29.2z"/>
	<path class="st0" d="M73.4,18.7v-1.8c0,0-0.3-2-0.3-2.2c-0.1-0.6-0.3-1.4-0.6-2c-0.5-1.3-1-2.3-1.8-3.3c-1.5-2-3.3-3.4-5.6-4.7
		C61,2.4,54.7,1,48.2,1h-0.5c-6.6,0-12.1,1.1-17.3,2.6C29,4,27.9,4.4,26.6,4.8C25.5,5.1,24,5.7,23,6.2c-1.1,0.6-2.3,1-3.4,1.6
		c-0.6,0.3-2.8,1.7-3.2,1.8V11c0.5-0.1,2.3-1.1,3.1-1.4c1-0.4,2.2-1,3.2-1.3c0.4-0.1,1.2-0.4,1.6-0.6c0.5-0.2,1.1-0.4,1.7-0.6
		c1.1-0.4,2.3-0.8,3.5-1.1c2.5-0.6,4.7-1.1,7.4-1.6c2.3-0.4,5.6-0.8,8.2-0.8h2.7c5.3,0,11.1,1.2,14.5,3.1c2.1,1.1,3.5,2.1,4.9,3.9
		c1.1,1.4,2.4,4.1,2.4,6.4v1c0,2.5-1.3,5.2-2.4,6.7c-0.7,0.9-1.3,1.7-2.1,2.4c-0.4,0.4-2.2,1.8-2.7,1.9v4c0.9-0.1,3.4-1.7,4.1-2.2
		c1.2-0.9,2.3-1.9,3.2-3.1c1.1-1.3,1.6-2.3,2.4-4c0.3-0.7,0.5-1.5,0.8-2.4C73.1,21.1,73.4,18.7,73.4,18.7L73.4,18.7z"/>
	<path class="st0" d="M40.7,25.4v0.7c0,4.2,2.6,7.2,6.7,7.2h0.8c1.3,0,2.2-0.3,3.1-0.7c1-0.4,1.5-1.1,2.2-1.6l-2.4-2.2
		c-0.5,0.7-1.8,1.4-3,1.4h-0.7c-1.6,0-3-1.3-3-2.9v-0.4h9.5v-1.6c0-1.9-0.7-3.8-1.5-4.9c-0.8-1.1-2.4-2.3-4.2-2.3H47
		c-1.9,0-3.6,1.2-4.6,2.2C41.5,21.4,40.7,23.4,40.7,25.4L40.7,25.4z M44.5,23.9v0.4h5.7v-0.3c0-1.5-1.1-2.9-2.7-2.9h-0.3
		C45.8,21.2,44.5,22.6,44.5,23.9L44.5,23.9z"/>
	<path class="st0" d="M18.3,33.1H22V21.4h3.3c0.7,0,1.3,0.6,1.3,1.3v10.4h3.8V22.7c0-2.5-1.7-4.4-4.1-4.4h-8V33.1L18.3,33.1z"/>
	<path class="st0" d="M33.2,28.7c0,2.5,1.6,4.4,4.1,4.4h2.5v-3.2h-1.9c-0.6,0-1-0.6-1-1.2v-7.3h2.9v-3H37v-4.1h-3.8V28.7L33.2,28.7z
		"/>
	<path class="st0" d="M56.1,29.5c0,1,0.6,1.9,1.1,2.4c0.3,0.3,0.7,0.5,1.1,0.7c0.6,0.2,0.9,0.2,1.5,0.3V12.2h-3.8V29.5L56.1,29.5z"
		/>
	<path class="st0" d="M11.2,21.8l0,7.3c0,2.5,1.5,4.1,3.8,4.1V18.4l-3.7,0L11.2,21.8L11.2,21.8z"/>
	<polygon class="st0" points="11.2,16.3 15,16.3 15,12.7 11.2,12.7 11.2,16.3 	"/>
	<path class="st0" d="M64,12.2c0.3,0,0.5,0.1,0.7,0.2c0.2,0.1,0.4,0.3,0.6,0.6c0.1,0.2,0.2,0.5,0.2,0.8c0,0.3-0.1,0.5-0.2,0.7
		c-0.1,0.2-0.3,0.4-0.6,0.6c-0.2,0.1-0.5,0.2-0.8,0.2c-0.3,0-0.5-0.1-0.7-0.2c-0.2-0.1-0.4-0.3-0.6-0.6c-0.1-0.2-0.2-0.5-0.2-0.7
		c0-0.3,0.1-0.5,0.2-0.8c0.1-0.2,0.3-0.4,0.6-0.6C63.5,12.3,63.7,12.2,64,12.2L64,12.2z M64,12.5c-0.2,0-0.4,0.1-0.6,0.2
		c-0.2,0.1-0.4,0.3-0.5,0.5c-0.1,0.2-0.2,0.4-0.2,0.6c0,0.2,0.1,0.4,0.2,0.6c0.1,0.2,0.3,0.4,0.5,0.5c0.2,0.1,0.4,0.2,0.6,0.2
		s0.4-0.1,0.6-0.2c0.2-0.1,0.4-0.3,0.5-0.5c0.1-0.2,0.2-0.4,0.2-0.6c0-0.2-0.1-0.4-0.2-0.6c-0.1-0.2-0.3-0.4-0.5-0.5
		C64.4,12.5,64.2,12.5,64,12.5L64,12.5z M63.3,14.5v-1.6h0.6c0.2,0,0.3,0,0.4,0c0.1,0,0.2,0.1,0.2,0.2c0.1,0.1,0.1,0.2,0.1,0.2
		c0,0.1,0,0.2-0.1,0.3c-0.1,0.1-0.2,0.1-0.3,0.1c0.1,0,0.1,0.1,0.1,0.1c0.1,0.1,0.1,0.2,0.2,0.3l0.2,0.3h-0.3l-0.1-0.3
		c-0.1-0.2-0.2-0.3-0.3-0.4c0,0-0.1-0.1-0.2-0.1h-0.2v0.7H63.3L63.3,14.5z M63.6,13.6h0.3c0.2,0,0.3,0,0.3-0.1
		c0.1,0,0.1-0.1,0.1-0.2c0,0,0-0.1,0-0.1c0,0-0.1-0.1-0.1-0.1c0,0-0.1,0-0.3,0h-0.3V13.6L63.6,13.6z"/>
</g>
</svg>
